<?xml version="1.0" encoding="UTF-8" standalone="no"?>
<!DOCTYPE svg PUBLIC "-//W3C//DTD SVG 1.1//EN"
 "http://www.w3.org/Graphics/SVG/1.1/DTD/svg11.dtd">
<!-- Generated by graphviz version 2.46.1 (0)
 -->
<!-- Title: structs Pages: 1 -->
<svg width="1277pt" height="908pt"
 viewBox="0.00 0.00 1276.69 908.00" xmlns="http://www.w3.org/2000/svg" xmlns:xlink="http://www.w3.org/1999/xlink">
<g id="graph0" class="graph" transform="scale(1 1) rotate(0) translate(4 904)">
<title>structs</title>
<polygon fill="white" stroke="transparent" points="-4,4 -4,-904 1272.69,-904 1272.69,4 -4,4"/>
<!-- el0x5626b4329a20 -->
<g id="node1" class="node">
<title>el0x5626b4329a20</title>
<ellipse fill="#adffbf" stroke="black" cx="706.84" cy="-882" rx="62.29" ry="18"/>
<text text-anchor="middle" x="706.84" y="-878.3" font-family="Times,serif" font-size="14.00">COMP_TYPE</text>
</g>
<!-- el0x5626b4329a50 -->
<g id="node2" class="node">
<title>el0x5626b4329a50</title>
<ellipse fill="#adffbf" stroke="black" cx="706.84" cy="-810" rx="57.69" ry="18"/>
<text text-anchor="middle" x="706.84" y="-806.3" font-family="Times,serif" font-size="14.00">STAT_TYPE</text>
</g>
<!-- el0x5626b4329a20&#45;&gt;el0x5626b4329a50 -->
<g id="edge38" class="edge">
<title>el0x5626b4329a20&#45;&gt;el0x5626b4329a50</title>
<path fill="none" stroke="black" d="M706.84,-863.7C706.84,-855.98 706.84,-846.71 706.84,-838.11"/>
<polygon fill="black" stroke="black" points="710.34,-838.1 706.84,-828.1 703.34,-838.1 710.34,-838.1"/>
</g>
<!-- el0x5626b4329aa0 -->
<g id="node3" class="node">
<title>el0x5626b4329aa0</title>
<ellipse fill="#adffbf" stroke="black" cx="647.84" cy="-738" rx="43.59" ry="18"/>
<text text-anchor="middle" x="647.84" y="-734.3" font-family="Times,serif" font-size="14.00">D_TYPE</text>
</g>
<!-- el0x5626b4329a50&#45;&gt;el0x5626b4329aa0 -->
<g id="edge24" class="edge">
<title>el0x5626b4329a50&#45;&gt;el0x5626b4329aa0</title>
<path fill="none" stroke="black" d="M692.86,-792.41C685.51,-783.69 676.37,-772.85 668.25,-763.21"/>
<polygon fill="black" stroke="black" points="670.85,-760.86 661.73,-755.47 665.5,-765.37 670.85,-760.86"/>
</g>
<!-- el0x5626b432a650 -->
<g id="node27" class="node">
<title>el0x5626b432a650</title>
<ellipse fill="#adffbf" stroke="black" cx="786.84" cy="-738" rx="57.69" ry="18"/>
<text text-anchor="middle" x="786.84" y="-734.3" font-family="Times,serif" font-size="14.00">STAT_TYPE</text>
</g>
<!-- el0x5626b4329a50&#45;&gt;el0x5626b432a650 -->
<g id="edge37" class="edge">
<title>el0x5626b4329a50&#45;&gt;el0x5626b432a650</title>
<path fill="none" stroke="black" d="M725.4,-792.76C735.9,-783.58 749.2,-771.94 760.74,-761.84"/>
<polygon fill="black" stroke="black" points="763.17,-764.37 768.39,-755.15 758.56,-759.1 763.17,-764.37"/>
</g>
<!-- el0x5626b4329ad0 -->
<g id="node4" class="node">
<title>el0x5626b4329ad0</title>
<ellipse fill="#adffbf" stroke="black" cx="571.84" cy="-666" rx="82.59" ry="18"/>
<text text-anchor="middle" x="571.84" y="-662.3" font-family="Times,serif" font-size="14.00">ID_TYPE | factorial</text>
</g>
<!-- el0x5626b4329aa0&#45;&gt;el0x5626b4329ad0 -->
<g id="edge23" class="edge">
<title>el0x5626b4329aa0&#45;&gt;el0x5626b4329ad0</title>
<path fill="none" stroke="black" d="M630.6,-721.12C620.87,-712.16 608.53,-700.79 597.67,-690.79"/>
<polygon fill="black" stroke="black" points="599.81,-688 590.08,-683.8 595.07,-693.15 599.81,-688"/>
</g>
<!-- el0x5626b432a030 -->
<g id="node5" class="node">
<title>el0x5626b432a030</title>
<ellipse fill="#adffbf" stroke="black" cx="433.84" cy="-594" rx="62.29" ry="18"/>
<text text-anchor="middle" x="433.84" y="-590.3" font-family="Times,serif" font-size="14.00">COMP_TYPE</text>
</g>
<!-- el0x5626b4329ad0&#45;&gt;el0x5626b432a030 -->
<g id="edge21" class="edge">
<title>el0x5626b4329ad0&#45;&gt;el0x5626b432a030</title>
<path fill="none" stroke="black" d="M540.87,-649.29C520.57,-638.99 493.88,-625.45 472.23,-614.47"/>
<polygon fill="black" stroke="black" points="473.79,-611.34 463.29,-609.94 470.63,-617.58 473.79,-611.34"/>
</g>
<!-- el0x5626b432a000 -->
<g id="node26" class="node">
<title>el0x5626b432a000</title>
<ellipse fill="#adffbf" stroke="black" cx="571.84" cy="-594" rx="57.69" ry="18"/>
<text text-anchor="middle" x="571.84" y="-590.3" font-family="Times,serif" font-size="14.00">ID_TYPE | n</text>
</g>
<!-- el0x5626b4329ad0&#45;&gt;el0x5626b432a000 -->
<g id="edge22" class="edge">
<title>el0x5626b4329ad0&#45;&gt;el0x5626b432a000</title>
<path fill="none" stroke="black" d="M571.84,-647.7C571.84,-639.98 571.84,-630.71 571.84,-622.11"/>
<polygon fill="black" stroke="black" points="575.34,-622.1 571.84,-612.1 568.34,-622.1 575.34,-622.1"/>
</g>
<!-- el0x5626b432a060 -->
<g id="node6" class="node">
<title>el0x5626b432a060</title>
<ellipse fill="#adffbf" stroke="black" cx="433.84" cy="-522" rx="57.69" ry="18"/>
<text text-anchor="middle" x="433.84" y="-518.3" font-family="Times,serif" font-size="14.00">STAT_TYPE</text>
</g>
<!-- el0x5626b432a030&#45;&gt;el0x5626b432a060 -->
<g id="edge20" class="edge">
<title>el0x5626b432a030&#45;&gt;el0x5626b432a060</title>
<path fill="none" stroke="black" d="M433.84,-575.7C433.84,-567.98 433.84,-558.71 433.84,-550.11"/>
<polygon fill="black" stroke="black" points="437.34,-550.1 433.84,-540.1 430.34,-550.1 437.34,-550.1"/>
</g>
<!-- el0x5626b432a280 -->
<g id="node7" class="node">
<title>el0x5626b432a280</title>
<ellipse fill="#adffbf" stroke="black" cx="364.84" cy="-450" rx="61.99" ry="18"/>
<text text-anchor="middle" x="364.84" y="-446.3" font-family="Times,serif" font-size="14.00">COND_TYPE</text>
</g>
<!-- el0x5626b432a060&#45;&gt;el0x5626b432a280 -->
<g id="edge9" class="edge">
<title>el0x5626b432a060&#45;&gt;el0x5626b432a280</title>
<path fill="none" stroke="black" d="M417.49,-504.41C408.73,-495.52 397.78,-484.41 388.14,-474.63"/>
<polygon fill="black" stroke="black" points="390.59,-472.13 381.08,-467.47 385.61,-477.05 390.59,-472.13"/>
</g>
<!-- el0x5626b432a2e0 -->
<g id="node16" class="node">
<title>el0x5626b432a2e0</title>
<ellipse fill="#adffbf" stroke="black" cx="506.84" cy="-450" rx="57.69" ry="18"/>
<text text-anchor="middle" x="506.84" y="-446.3" font-family="Times,serif" font-size="14.00">STAT_TYPE</text>
</g>
<!-- el0x5626b432a060&#45;&gt;el0x5626b432a2e0 -->
<g id="edge19" class="edge">
<title>el0x5626b432a060&#45;&gt;el0x5626b432a2e0</title>
<path fill="none" stroke="black" d="M450.78,-504.76C460.2,-495.73 472.09,-484.33 482.5,-474.35"/>
<polygon fill="black" stroke="black" points="484.96,-476.84 489.75,-467.39 480.11,-471.78 484.96,-476.84"/>
</g>
<!-- el0x5626b432a160 -->
<g id="node8" class="node">
<title>el0x5626b432a160</title>
<ellipse fill="#adffbf" stroke="black" cx="208.84" cy="-378" rx="79.89" ry="18"/>
<text text-anchor="middle" x="208.84" y="-374.3" font-family="Times,serif" font-size="14.00">MATH_TYPE | &lt;=</text>
</g>
<!-- el0x5626b432a280&#45;&gt;el0x5626b432a160 -->
<g id="edge3" class="edge">
<title>el0x5626b432a280&#45;&gt;el0x5626b432a160</title>
<path fill="none" stroke="black" d="M332.52,-434.5C309.33,-424.09 277.83,-409.96 252.43,-398.56"/>
<polygon fill="black" stroke="black" points="253.57,-395.23 243.02,-394.33 250.71,-401.62 253.57,-395.23"/>
</g>
<!-- el0x5626b432a2b0 -->
<g id="node11" class="node">
<title>el0x5626b432a2b0</title>
<ellipse fill="#adffbf" stroke="black" cx="364.84" cy="-378" rx="55.79" ry="18"/>
<text text-anchor="middle" x="364.84" y="-374.3" font-family="Times,serif" font-size="14.00">IFEL_TYPE</text>
</g>
<!-- el0x5626b432a280&#45;&gt;el0x5626b432a2b0 -->
<g id="edge8" class="edge">
<title>el0x5626b432a280&#45;&gt;el0x5626b432a2b0</title>
<path fill="none" stroke="black" d="M364.84,-431.7C364.84,-423.98 364.84,-414.71 364.84,-406.11"/>
<polygon fill="black" stroke="black" points="368.34,-406.1 364.84,-396.1 361.34,-406.1 368.34,-406.1"/>
</g>
<!-- el0x5626b432a130 -->
<g id="node9" class="node">
<title>el0x5626b432a130</title>
<ellipse fill="#adffbf" stroke="black" cx="57.84" cy="-306" rx="57.69" ry="18"/>
<text text-anchor="middle" x="57.84" y="-302.3" font-family="Times,serif" font-size="14.00">ID_TYPE | n</text>
</g>
<!-- el0x5626b432a160&#45;&gt;el0x5626b432a130 -->
<g id="edge1" class="edge">
<title>el0x5626b432a160&#45;&gt;el0x5626b432a130</title>
<path fill="none" stroke="black" d="M175.33,-361.46C152.48,-350.87 122.09,-336.78 97.94,-325.59"/>
<polygon fill="black" stroke="black" points="99.24,-322.33 88.69,-321.3 96.29,-328.68 99.24,-322.33"/>
</g>
<!-- el0x5626b432a190 -->
<g id="node10" class="node">
<title>el0x5626b432a190</title>
<ellipse fill="#adffbf" stroke="black" cx="208.84" cy="-306" rx="75.29" ry="18"/>
<text text-anchor="middle" x="208.84" y="-302.3" font-family="Times,serif" font-size="14.00">NUMB_TYPE | 1</text>
</g>
<!-- el0x5626b432a160&#45;&gt;el0x5626b432a190 -->
<g id="edge2" class="edge">
<title>el0x5626b432a160&#45;&gt;el0x5626b432a190</title>
<path fill="none" stroke="black" d="M208.84,-359.7C208.84,-351.98 208.84,-342.71 208.84,-334.11"/>
<polygon fill="black" stroke="black" points="212.34,-334.1 208.84,-324.1 205.34,-334.1 212.34,-334.1"/>
</g>
<!-- el0x5626b432a1c0 -->
<g id="node12" class="node">
<title>el0x5626b432a1c0</title>
<ellipse fill="#adffbf" stroke="black" cx="364.84" cy="-306" rx="62.29" ry="18"/>
<text text-anchor="middle" x="364.84" y="-302.3" font-family="Times,serif" font-size="14.00">COMP_TYPE</text>
</g>
<!-- el0x5626b432a2b0&#45;&gt;el0x5626b432a1c0 -->
<g id="edge7" class="edge">
<title>el0x5626b432a2b0&#45;&gt;el0x5626b432a1c0</title>
<path fill="none" stroke="black" d="M364.84,-359.7C364.84,-351.98 364.84,-342.71 364.84,-334.11"/>
<polygon fill="black" stroke="black" points="368.34,-334.1 364.84,-324.1 361.34,-334.1 368.34,-334.1"/>
</g>
<!-- el0x5626b432a1f0 -->
<g id="node13" class="node">
<title>el0x5626b432a1f0</title>
<ellipse fill="#adffbf" stroke="black" cx="364.84" cy="-234" rx="57.69" ry="18"/>
<text text-anchor="middle" x="364.84" y="-230.3" font-family="Times,serif" font-size="14.00">STAT_TYPE</text>
</g>
<!-- el0x5626b432a1c0&#45;&gt;el0x5626b432a1f0 -->
<g id="edge6" class="edge">
<title>el0x5626b432a1c0&#45;&gt;el0x5626b432a1f0</title>
<path fill="none" stroke="black" d="M364.84,-287.7C364.84,-279.98 364.84,-270.71 364.84,-262.11"/>
<polygon fill="black" stroke="black" points="368.34,-262.1 364.84,-252.1 361.34,-262.1 368.34,-262.1"/>
</g>
<!-- el0x5626b432a250 -->
<g id="node14" class="node">
<title>el0x5626b432a250</title>
<ellipse fill="#adffbf" stroke="black" cx="364.84" cy="-162" rx="59.59" ry="18"/>
<text text-anchor="middle" x="364.84" y="-158.3" font-family="Times,serif" font-size="14.00">JUMP_TYPE</text>
</g>
<!-- el0x5626b432a1f0&#45;&gt;el0x5626b432a250 -->
<g id="edge5" class="edge">
<title>el0x5626b432a1f0&#45;&gt;el0x5626b432a250</title>
<path fill="none" stroke="black" d="M364.84,-215.7C364.84,-207.98 364.84,-198.71 364.84,-190.11"/>
<polygon fill="black" stroke="black" points="368.34,-190.1 364.84,-180.1 361.34,-190.1 368.34,-190.1"/>
</g>
<!-- el0x5626b432a220 -->
<g id="node15" class="node">
<title>el0x5626b432a220</title>
<ellipse fill="#adffbf" stroke="black" cx="364.84" cy="-90" rx="75.29" ry="18"/>
<text text-anchor="middle" x="364.84" y="-86.3" font-family="Times,serif" font-size="14.00">NUMB_TYPE | 1</text>
</g>
<!-- el0x5626b432a250&#45;&gt;el0x5626b432a220 -->
<g id="edge4" class="edge">
<title>el0x5626b432a250&#45;&gt;el0x5626b432a220</title>
<path fill="none" stroke="black" d="M364.84,-143.7C364.84,-135.98 364.84,-126.71 364.84,-118.11"/>
<polygon fill="black" stroke="black" points="368.34,-118.1 364.84,-108.1 361.34,-118.1 368.34,-118.1"/>
</g>
<!-- el0x5626b432a5f0 -->
<g id="node17" class="node">
<title>el0x5626b432a5f0</title>
<ellipse fill="#adffbf" stroke="black" cx="510.84" cy="-378" rx="59.59" ry="18"/>
<text text-anchor="middle" x="510.84" y="-374.3" font-family="Times,serif" font-size="14.00">JUMP_TYPE</text>
</g>
<!-- el0x5626b432a2e0&#45;&gt;el0x5626b432a5f0 -->
<g id="edge18" class="edge">
<title>el0x5626b432a2e0&#45;&gt;el0x5626b432a5f0</title>
<path fill="none" stroke="black" d="M507.83,-431.7C508.27,-423.98 508.8,-414.71 509.3,-406.11"/>
<polygon fill="black" stroke="black" points="512.79,-406.29 509.87,-396.1 505.8,-405.89 512.79,-406.29"/>
</g>
<!-- el0x5626b432a3e0 -->
<g id="node18" class="node">
<title>el0x5626b432a3e0</title>
<ellipse fill="#adffbf" stroke="black" cx="518.84" cy="-306" rx="73.39" ry="18"/>
<text text-anchor="middle" x="518.84" y="-302.3" font-family="Times,serif" font-size="14.00">MATH_TYPE | *</text>
</g>
<!-- el0x5626b432a5f0&#45;&gt;el0x5626b432a3e0 -->
<g id="edge17" class="edge">
<title>el0x5626b432a5f0&#45;&gt;el0x5626b432a3e0</title>
<path fill="none" stroke="black" d="M512.82,-359.7C513.7,-351.98 514.76,-342.71 515.75,-334.11"/>
<polygon fill="black" stroke="black" points="519.23,-334.44 516.89,-324.1 512.28,-333.64 519.23,-334.44"/>
</g>
<!-- el0x5626b432a3b0 -->
<g id="node19" class="node">
<title>el0x5626b432a3b0</title>
<ellipse fill="#adffbf" stroke="black" cx="508.84" cy="-234" rx="57.69" ry="18"/>
<text text-anchor="middle" x="508.84" y="-230.3" font-family="Times,serif" font-size="14.00">ID_TYPE | n</text>
</g>
<!-- el0x5626b432a3e0&#45;&gt;el0x5626b432a3b0 -->
<g id="edge10" class="edge">
<title>el0x5626b432a3e0&#45;&gt;el0x5626b432a3b0</title>
<path fill="none" stroke="black" d="M516.37,-287.7C515.27,-279.98 513.95,-270.71 512.72,-262.11"/>
<polygon fill="black" stroke="black" points="516.17,-261.51 511.29,-252.1 509.24,-262.5 516.17,-261.51"/>
</g>
<!-- el0x5626b432a430 -->
<g id="node20" class="node">
<title>el0x5626b432a430</title>
<ellipse fill="#adffbf" stroke="black" cx="644.84" cy="-234" rx="59.59" ry="18"/>
<text text-anchor="middle" x="644.84" y="-230.3" font-family="Times,serif" font-size="14.00">CALL_TYPE</text>
</g>
<!-- el0x5626b432a3e0&#45;&gt;el0x5626b432a430 -->
<g id="edge16" class="edge">
<title>el0x5626b432a3e0&#45;&gt;el0x5626b432a430</title>
<path fill="none" stroke="black" d="M547.12,-289.29C565.29,-279.2 589.05,-266 608.6,-255.14"/>
<polygon fill="black" stroke="black" points="610.49,-258.09 617.53,-250.18 607.09,-251.97 610.49,-258.09"/>
</g>
<!-- el0x5626b432a460 -->
<g id="node21" class="node">
<title>el0x5626b432a460</title>
<ellipse fill="#adffbf" stroke="black" cx="584.84" cy="-162" rx="82.59" ry="18"/>
<text text-anchor="middle" x="584.84" y="-158.3" font-family="Times,serif" font-size="14.00">ID_TYPE | factorial</text>
</g>
<!-- el0x5626b432a430&#45;&gt;el0x5626b432a460 -->
<g id="edge11" class="edge">
<title>el0x5626b432a430&#45;&gt;el0x5626b432a460</title>
<path fill="none" stroke="black" d="M630.63,-216.41C623.26,-207.82 614.12,-197.16 605.95,-187.63"/>
<polygon fill="black" stroke="black" points="608.54,-185.27 599.38,-179.96 603.23,-189.83 608.54,-185.27"/>
</g>
<!-- el0x5626b432a5c0 -->
<g id="node22" class="node">
<title>el0x5626b432a5c0</title>
<ellipse fill="#adffbf" stroke="black" cx="740.84" cy="-162" rx="55.79" ry="18"/>
<text text-anchor="middle" x="740.84" y="-158.3" font-family="Times,serif" font-size="14.00">ARG_TYPE</text>
</g>
<!-- el0x5626b432a430&#45;&gt;el0x5626b432a5c0 -->
<g id="edge15" class="edge">
<title>el0x5626b432a430&#45;&gt;el0x5626b432a5c0</title>
<path fill="none" stroke="black" d="M666.63,-217.12C679.76,-207.54 696.67,-195.21 711.03,-184.74"/>
<polygon fill="black" stroke="black" points="713.13,-187.54 719.15,-178.82 709,-181.88 713.13,-187.54"/>
</g>
<!-- el0x5626b432a560 -->
<g id="node23" class="node">
<title>el0x5626b432a560</title>
<ellipse fill="#adffbf" stroke="black" cx="740.84" cy="-90" rx="72.29" ry="18"/>
<text text-anchor="middle" x="740.84" y="-86.3" font-family="Times,serif" font-size="14.00">MATH_TYPE | &#45;</text>
</g>
<!-- el0x5626b432a5c0&#45;&gt;el0x5626b432a560 -->
<g id="edge14" class="edge">
<title>el0x5626b432a5c0&#45;&gt;el0x5626b432a560</title>
<path fill="none" stroke="black" d="M740.84,-143.7C740.84,-135.98 740.84,-126.71 740.84,-118.11"/>
<polygon fill="black" stroke="black" points="744.34,-118.1 740.84,-108.1 737.34,-118.1 744.34,-118.1"/>
</g>
<!-- el0x5626b432a530 -->
<g id="node24" class="node">
<title>el0x5626b432a530</title>
<ellipse fill="#adffbf" stroke="black" cx="665.84" cy="-18" rx="57.69" ry="18"/>
<text text-anchor="middle" x="665.84" y="-14.3" font-family="Times,serif" font-size="14.00">ID_TYPE | n</text>
</g>
<!-- el0x5626b432a560&#45;&gt;el0x5626b432a530 -->
<g id="edge12" class="edge">
<title>el0x5626b432a560&#45;&gt;el0x5626b432a530</title>
<path fill="none" stroke="black" d="M723.07,-72.41C713.38,-63.37 701.23,-52.03 690.63,-42.13"/>
<polygon fill="black" stroke="black" points="692.93,-39.49 683.23,-35.23 688.15,-44.61 692.93,-39.49"/>
</g>
<!-- el0x5626b432a590 -->
<g id="node25" class="node">
<title>el0x5626b432a590</title>
<ellipse fill="#adffbf" stroke="black" cx="816.84" cy="-18" rx="75.29" ry="18"/>
<text text-anchor="middle" x="816.84" y="-14.3" font-family="Times,serif" font-size="14.00">NUMB_TYPE | 1</text>
</g>
<!-- el0x5626b432a560&#45;&gt;el0x5626b432a590 -->
<g id="edge13" class="edge">
<title>el0x5626b432a560&#45;&gt;el0x5626b432a590</title>
<path fill="none" stroke="black" d="M758.86,-72.41C768.53,-63.5 780.63,-52.36 791.27,-42.56"/>
<polygon fill="black" stroke="black" points="793.72,-45.06 798.7,-35.71 788.97,-39.91 793.72,-45.06"/>
</g>
<!-- el0x5626b432a720 -->
<g id="node28" class="node">
<title>el0x5626b432a720</title>
<ellipse fill="#adffbf" stroke="black" cx="786.84" cy="-666" rx="59.59" ry="18"/>
<text text-anchor="middle" x="786.84" y="-662.3" font-family="Times,serif" font-size="14.00">DECL_TYPE</text>
</g>
<!-- el0x5626b432a650&#45;&gt;el0x5626b432a720 -->
<g id="edge28" class="edge">
<title>el0x5626b432a650&#45;&gt;el0x5626b432a720</title>
<path fill="none" stroke="black" d="M786.84,-719.7C786.84,-711.98 786.84,-702.71 786.84,-694.11"/>
<polygon fill="black" stroke="black" points="790.34,-694.1 786.84,-684.1 783.34,-694.1 790.34,-694.1"/>
</g>
<!-- el0x5626b432a780 -->
<g id="node32" class="node">
<title>el0x5626b432a780</title>
<ellipse fill="#adffbf" stroke="black" cx="950.84" cy="-666" rx="57.69" ry="18"/>
<text text-anchor="middle" x="950.84" y="-662.3" font-family="Times,serif" font-size="14.00">STAT_TYPE</text>
</g>
<!-- el0x5626b432a650&#45;&gt;el0x5626b432a780 -->
<g id="edge36" class="edge">
<title>el0x5626b432a650&#45;&gt;el0x5626b432a780</title>
<path fill="none" stroke="black" d="M819.64,-723C845.23,-712.08 880.96,-696.83 908.67,-685"/>
<polygon fill="black" stroke="black" points="910.28,-688.12 918.11,-680.97 907.54,-681.68 910.28,-688.12"/>
</g>
<!-- el0x5626b432a750 -->
<g id="node29" class="node">
<title>el0x5626b432a750</title>
<ellipse fill="#adffbf" stroke="black" cx="705.84" cy="-594" rx="57.69" ry="18"/>
<text text-anchor="middle" x="705.84" y="-590.3" font-family="Times,serif" font-size="14.00">ID_TYPE | n</text>
</g>
<!-- el0x5626b432a720&#45;&gt;el0x5626b432a750 -->
<g id="edge25" class="edge">
<title>el0x5626b432a720&#45;&gt;el0x5626b432a750</title>
<path fill="none" stroke="black" d="M768.06,-648.76C757.43,-639.58 743.96,-627.94 732.28,-617.84"/>
<polygon fill="black" stroke="black" points="734.38,-615.04 724.53,-611.15 729.81,-620.33 734.38,-615.04"/>
</g>
<!-- el0x5626b432a6c0 -->
<g id="node30" class="node">
<title>el0x5626b432a6c0</title>
<ellipse fill="#adffbf" stroke="black" cx="841.84" cy="-594" rx="59.59" ry="18"/>
<text text-anchor="middle" x="841.84" y="-590.3" font-family="Times,serif" font-size="14.00">CALL_TYPE</text>
</g>
<!-- el0x5626b432a720&#45;&gt;el0x5626b432a6c0 -->
<g id="edge27" class="edge">
<title>el0x5626b432a720&#45;&gt;el0x5626b432a6c0</title>
<path fill="none" stroke="black" d="M799.88,-648.41C806.56,-639.91 814.84,-629.37 822.27,-619.91"/>
<polygon fill="black" stroke="black" points="825.1,-621.98 828.52,-611.96 819.59,-617.66 825.1,-621.98"/>
</g>
<!-- el0x5626b432a6f0 -->
<g id="node31" class="node">
<title>el0x5626b432a6f0</title>
<ellipse fill="#adffbf" stroke="black" cx="830.84" cy="-522" rx="71.49" ry="18"/>
<text text-anchor="middle" x="830.84" y="-518.3" font-family="Times,serif" font-size="14.00">ID_TYPE | input</text>
</g>
<!-- el0x5626b432a6c0&#45;&gt;el0x5626b432a6f0 -->
<g id="edge26" class="edge">
<title>el0x5626b432a6c0&#45;&gt;el0x5626b432a6f0</title>
<path fill="none" stroke="black" d="M839.13,-575.7C837.91,-567.98 836.46,-558.71 835.11,-550.11"/>
<polygon fill="black" stroke="black" points="838.54,-549.44 833.53,-540.1 831.63,-550.53 838.54,-549.44"/>
</g>
<!-- el0x5626b432a7f0 -->
<g id="node33" class="node">
<title>el0x5626b432a7f0</title>
<ellipse fill="#adffbf" stroke="black" cx="989.84" cy="-594" rx="59.59" ry="18"/>
<text text-anchor="middle" x="989.84" y="-590.3" font-family="Times,serif" font-size="14.00">CALL_TYPE</text>
</g>
<!-- el0x5626b432a780&#45;&gt;el0x5626b432a7f0 -->
<g id="edge35" class="edge">
<title>el0x5626b432a780&#45;&gt;el0x5626b432a7f0</title>
<path fill="none" stroke="black" d="M960.29,-648.05C964.88,-639.8 970.51,-629.7 975.62,-620.54"/>
<polygon fill="black" stroke="black" points="978.68,-622.23 980.49,-611.79 972.57,-618.82 978.68,-622.23"/>
</g>
<!-- el0x5626b432a820 -->
<g id="node34" class="node">
<title>el0x5626b432a820</title>
<ellipse fill="#adffbf" stroke="black" cx="989.84" cy="-522" rx="69.59" ry="18"/>
<text text-anchor="middle" x="989.84" y="-518.3" font-family="Times,serif" font-size="14.00">ID_TYPE | print</text>
</g>
<!-- el0x5626b432a7f0&#45;&gt;el0x5626b432a820 -->
<g id="edge29" class="edge">
<title>el0x5626b432a7f0&#45;&gt;el0x5626b432a820</title>
<path fill="none" stroke="black" d="M989.84,-575.7C989.84,-567.98 989.84,-558.71 989.84,-550.11"/>
<polygon fill="black" stroke="black" points="993.34,-550.1 989.84,-540.1 986.34,-550.1 993.34,-550.1"/>
</g>
<!-- el0x5626b432a9d0 -->
<g id="node35" class="node">
<title>el0x5626b432a9d0</title>
<ellipse fill="#adffbf" stroke="black" cx="1132.84" cy="-522" rx="55.79" ry="18"/>
<text text-anchor="middle" x="1132.84" y="-518.3" font-family="Times,serif" font-size="14.00">ARG_TYPE</text>
</g>
<!-- el0x5626b432a7f0&#45;&gt;el0x5626b432a9d0 -->
<g id="edge34" class="edge">
<title>el0x5626b432a7f0&#45;&gt;el0x5626b432a9d0</title>
<path fill="none" stroke="black" d="M1019.82,-578.33C1041.42,-567.76 1070.74,-553.4 1094.11,-541.96"/>
<polygon fill="black" stroke="black" points="1095.95,-544.96 1103.4,-537.42 1092.88,-538.67 1095.95,-544.96"/>
</g>
<!-- el0x5626b432a870 -->
<g id="node36" class="node">
<title>el0x5626b432a870</title>
<ellipse fill="#adffbf" stroke="black" cx="1132.84" cy="-450" rx="59.59" ry="18"/>
<text text-anchor="middle" x="1132.84" y="-446.3" font-family="Times,serif" font-size="14.00">CALL_TYPE</text>
</g>
<!-- el0x5626b432a9d0&#45;&gt;el0x5626b432a870 -->
<g id="edge33" class="edge">
<title>el0x5626b432a9d0&#45;&gt;el0x5626b432a870</title>
<path fill="none" stroke="black" d="M1132.84,-503.7C1132.84,-495.98 1132.84,-486.71 1132.84,-478.11"/>
<polygon fill="black" stroke="black" points="1136.34,-478.1 1132.84,-468.1 1129.34,-478.1 1136.34,-478.1"/>
</g>
<!-- el0x5626b432a8a0 -->
<g id="node37" class="node">
<title>el0x5626b432a8a0</title>
<ellipse fill="#adffbf" stroke="black" cx="1054.84" cy="-378" rx="82.59" ry="18"/>
<text text-anchor="middle" x="1054.84" y="-374.3" font-family="Times,serif" font-size="14.00">ID_TYPE | factorial</text>
</g>
<!-- el0x5626b432a870&#45;&gt;el0x5626b432a8a0 -->
<g id="edge30" class="edge">
<title>el0x5626b432a870&#45;&gt;el0x5626b432a8a0</title>
<path fill="none" stroke="black" d="M1114.75,-432.76C1104.76,-423.79 1092.16,-412.49 1081.1,-402.56"/>
<polygon fill="black" stroke="black" points="1083.16,-399.71 1073.38,-395.63 1078.48,-404.92 1083.16,-399.71"/>
</g>
<!-- el0x5626b432a9a0 -->
<g id="node38" class="node">
<title>el0x5626b432a9a0</title>
<ellipse fill="#adffbf" stroke="black" cx="1210.84" cy="-378" rx="55.79" ry="18"/>
<text text-anchor="middle" x="1210.84" y="-374.3" font-family="Times,serif" font-size="14.00">ARG_TYPE</text>
</g>
<!-- el0x5626b432a870&#45;&gt;el0x5626b432a9a0 -->
<g id="edge32" class="edge">
<title>el0x5626b432a870&#45;&gt;el0x5626b432a9a0</title>
<path fill="none" stroke="black" d="M1150.94,-432.76C1161.17,-423.58 1174.14,-411.94 1185.39,-401.84"/>
<polygon fill="black" stroke="black" points="1187.75,-404.43 1192.85,-395.15 1183.07,-399.22 1187.75,-404.43"/>
</g>
<!-- el0x5626b432a970 -->
<g id="node39" class="node">
<title>el0x5626b432a970</title>
<ellipse fill="#adffbf" stroke="black" cx="1210.84" cy="-306" rx="57.69" ry="18"/>
<text text-anchor="middle" x="1210.84" y="-302.3" font-family="Times,serif" font-size="14.00">ID_TYPE | n</text>
</g>
<!-- el0x5626b432a9a0&#45;&gt;el0x5626b432a970 -->
<g id="edge31" class="edge">
<title>el0x5626b432a9a0&#45;&gt;el0x5626b432a970</title>
<path fill="none" stroke="black" d="M1210.84,-359.7C1210.84,-351.98 1210.84,-342.71 1210.84,-334.11"/>
<polygon fill="black" stroke="black" points="1214.34,-334.1 1210.84,-324.1 1207.34,-334.1 1214.34,-334.1"/>
</g>
</g>
</svg>
