<?xml version="1.0" encoding="UTF-8" standalone="no"?>
<!DOCTYPE svg PUBLIC "-//W3C//DTD SVG 1.1//EN"
 "http://www.w3.org/Graphics/SVG/1.1/DTD/svg11.dtd">
<!-- Generated by graphviz version 2.46.1 (0)
 -->
<!-- Title: structs Pages: 1 -->
<svg width="1405pt" height="764pt"
 viewBox="0.00 0.00 1405.04 764.00" xmlns="http://www.w3.org/2000/svg" xmlns:xlink="http://www.w3.org/1999/xlink">
<g id="graph0" class="graph" transform="scale(1 1) rotate(0) translate(4 760)">
<title>structs</title>
<polygon fill="white" stroke="transparent" points="-4,4 -4,-760 1401.04,-760 1401.04,4 -4,4"/>
<!-- el0x55a92694da00 -->
<g id="node1" class="node">
<title>el0x55a92694da00</title>
<ellipse fill="#adffbf" stroke="black" cx="517.19" cy="-738" rx="62.29" ry="18"/>
<text text-anchor="middle" x="517.19" y="-734.3" font-family="Times,serif" font-size="14.00">COMP_TYPE</text>
</g>
<!-- el0x55a92694da30 -->
<g id="node2" class="node">
<title>el0x55a92694da30</title>
<ellipse fill="#adffbf" stroke="black" cx="517.19" cy="-666" rx="57.69" ry="18"/>
<text text-anchor="middle" x="517.19" y="-662.3" font-family="Times,serif" font-size="14.00">STAT_TYPE</text>
</g>
<!-- el0x55a92694da00&#45;&gt;el0x55a92694da30 -->
<g id="edge35" class="edge">
<title>el0x55a92694da00&#45;&gt;el0x55a92694da30</title>
<path fill="none" stroke="black" d="M517.19,-719.7C517.19,-711.98 517.19,-702.71 517.19,-694.11"/>
<polygon fill="black" stroke="black" points="520.7,-694.1 517.19,-684.1 513.7,-694.1 520.7,-694.1"/>
</g>
<!-- el0x55a92694da80 -->
<g id="node3" class="node">
<title>el0x55a92694da80</title>
<ellipse fill="#adffbf" stroke="black" cx="458.19" cy="-594" rx="43.59" ry="18"/>
<text text-anchor="middle" x="458.19" y="-590.3" font-family="Times,serif" font-size="14.00">D_TYPE</text>
</g>
<!-- el0x55a92694da30&#45;&gt;el0x55a92694da80 -->
<g id="edge14" class="edge">
<title>el0x55a92694da30&#45;&gt;el0x55a92694da80</title>
<path fill="none" stroke="black" d="M503.21,-648.41C495.87,-639.69 486.72,-628.85 478.6,-619.21"/>
<polygon fill="black" stroke="black" points="481.2,-616.86 472.08,-611.47 475.85,-621.37 481.2,-616.86"/>
</g>
<!-- el0x55a92694e440 -->
<g id="node17" class="node">
<title>el0x55a92694e440</title>
<ellipse fill="#adffbf" stroke="black" cx="651.19" cy="-594" rx="57.69" ry="18"/>
<text text-anchor="middle" x="651.19" y="-590.3" font-family="Times,serif" font-size="14.00">STAT_TYPE</text>
</g>
<!-- el0x55a92694da30&#45;&gt;el0x55a92694e440 -->
<g id="edge34" class="edge">
<title>el0x55a92694da30&#45;&gt;el0x55a92694e440</title>
<path fill="none" stroke="black" d="M545.61,-650.15C565.51,-639.76 592.3,-625.77 613.91,-614.48"/>
<polygon fill="black" stroke="black" points="615.58,-617.56 622.82,-609.82 612.33,-611.35 615.58,-617.56"/>
</g>
<!-- el0x55a92694dab0 -->
<g id="node4" class="node">
<title>el0x55a92694dab0</title>
<ellipse fill="#adffbf" stroke="black" cx="421.19" cy="-522" rx="68.49" ry="18"/>
<text text-anchor="middle" x="421.19" y="-518.3" font-family="Times,serif" font-size="14.00">ID_TYPE | sum</text>
</g>
<!-- el0x55a92694da80&#45;&gt;el0x55a92694dab0 -->
<g id="edge13" class="edge">
<title>el0x55a92694da80&#45;&gt;el0x55a92694dab0</title>
<path fill="none" stroke="black" d="M449.24,-576.05C444.98,-568.01 439.8,-558.2 435.06,-549.23"/>
<polygon fill="black" stroke="black" points="438.09,-547.48 430.33,-540.28 431.9,-550.75 438.09,-547.48"/>
</g>
<!-- el0x55a92694e060 -->
<g id="node5" class="node">
<title>el0x55a92694e060</title>
<ellipse fill="#adffbf" stroke="black" cx="283.19" cy="-450" rx="62.29" ry="18"/>
<text text-anchor="middle" x="283.19" y="-446.3" font-family="Times,serif" font-size="14.00">COMP_TYPE</text>
</g>
<!-- el0x55a92694dab0&#45;&gt;el0x55a92694e060 -->
<g id="edge10" class="edge">
<title>el0x55a92694dab0&#45;&gt;el0x55a92694e060</title>
<path fill="none" stroke="black" d="M391.25,-505.81C370.86,-495.47 343.68,-481.68 321.68,-470.52"/>
<polygon fill="black" stroke="black" points="323.11,-467.32 312.61,-465.92 319.94,-473.56 323.11,-467.32"/>
</g>
<!-- el0x55a92694dfe0 -->
<g id="node15" class="node">
<title>el0x55a92694dfe0</title>
<ellipse fill="#adffbf" stroke="black" cx="421.19" cy="-450" rx="57.39" ry="18"/>
<text text-anchor="middle" x="421.19" y="-446.3" font-family="Times,serif" font-size="14.00">ID_TYPE | a</text>
</g>
<!-- el0x55a92694dab0&#45;&gt;el0x55a92694dfe0 -->
<g id="edge12" class="edge">
<title>el0x55a92694dab0&#45;&gt;el0x55a92694dfe0</title>
<path fill="none" stroke="black" d="M421.19,-503.7C421.19,-495.98 421.19,-486.71 421.19,-478.11"/>
<polygon fill="black" stroke="black" points="424.7,-478.1 421.19,-468.1 417.7,-478.1 424.7,-478.1"/>
</g>
<!-- el0x55a92694e090 -->
<g id="node6" class="node">
<title>el0x55a92694e090</title>
<ellipse fill="#adffbf" stroke="black" cx="283.19" cy="-378" rx="57.69" ry="18"/>
<text text-anchor="middle" x="283.19" y="-374.3" font-family="Times,serif" font-size="14.00">STAT_TYPE</text>
</g>
<!-- el0x55a92694e060&#45;&gt;el0x55a92694e090 -->
<g id="edge9" class="edge">
<title>el0x55a92694e060&#45;&gt;el0x55a92694e090</title>
<path fill="none" stroke="black" d="M283.19,-431.7C283.19,-423.98 283.19,-414.71 283.19,-406.11"/>
<polygon fill="black" stroke="black" points="286.7,-406.1 283.19,-396.1 279.7,-406.1 286.7,-406.1"/>
</g>
<!-- el0x55a92694e2b0 -->
<g id="node7" class="node">
<title>el0x55a92694e2b0</title>
<ellipse fill="#adffbf" stroke="black" cx="207.19" cy="-306" rx="59.59" ry="18"/>
<text text-anchor="middle" x="207.19" y="-302.3" font-family="Times,serif" font-size="14.00">DECL_TYPE</text>
</g>
<!-- el0x55a92694e090&#45;&gt;el0x55a92694e2b0 -->
<g id="edge5" class="edge">
<title>el0x55a92694e090&#45;&gt;el0x55a92694e2b0</title>
<path fill="none" stroke="black" d="M265.57,-360.76C255.76,-351.73 243.38,-340.33 232.54,-330.35"/>
<polygon fill="black" stroke="black" points="234.72,-327.59 224.99,-323.39 229.97,-332.74 234.72,-327.59"/>
</g>
<!-- el0x55a92694e310 -->
<g id="node12" class="node">
<title>el0x55a92694e310</title>
<ellipse fill="#adffbf" stroke="black" cx="352.19" cy="-306" rx="57.69" ry="18"/>
<text text-anchor="middle" x="352.19" y="-302.3" font-family="Times,serif" font-size="14.00">STAT_TYPE</text>
</g>
<!-- el0x55a92694e090&#45;&gt;el0x55a92694e310 -->
<g id="edge8" class="edge">
<title>el0x55a92694e090&#45;&gt;el0x55a92694e310</title>
<path fill="none" stroke="black" d="M299.55,-360.41C308.31,-351.52 319.26,-340.41 328.9,-330.63"/>
<polygon fill="black" stroke="black" points="331.43,-333.05 335.96,-323.47 326.45,-328.13 331.43,-333.05"/>
</g>
<!-- el0x55a92694e2e0 -->
<g id="node8" class="node">
<title>el0x55a92694e2e0</title>
<ellipse fill="#adffbf" stroke="black" cx="57.19" cy="-234" rx="57.39" ry="18"/>
<text text-anchor="middle" x="57.19" y="-230.3" font-family="Times,serif" font-size="14.00">ID_TYPE | c</text>
</g>
<!-- el0x55a92694e2b0&#45;&gt;el0x55a92694e2e0 -->
<g id="edge1" class="edge">
<title>el0x55a92694e2b0&#45;&gt;el0x55a92694e2e0</title>
<path fill="none" stroke="black" d="M176.11,-290.5C153.14,-279.77 121.66,-265.08 96.87,-253.51"/>
<polygon fill="black" stroke="black" points="98.26,-250.3 87.72,-249.25 95.3,-256.65 98.26,-250.3"/>
</g>
<!-- el0x55a92694e1b0 -->
<g id="node9" class="node">
<title>el0x55a92694e1b0</title>
<ellipse fill="#adffbf" stroke="black" cx="207.19" cy="-234" rx="74.99" ry="18"/>
<text text-anchor="middle" x="207.19" y="-230.3" font-family="Times,serif" font-size="14.00">MATH_TYPE | +</text>
</g>
<!-- el0x55a92694e2b0&#45;&gt;el0x55a92694e1b0 -->
<g id="edge4" class="edge">
<title>el0x55a92694e2b0&#45;&gt;el0x55a92694e1b0</title>
<path fill="none" stroke="black" d="M207.19,-287.7C207.19,-279.98 207.19,-270.71 207.19,-262.11"/>
<polygon fill="black" stroke="black" points="210.7,-262.1 207.19,-252.1 203.7,-262.1 210.7,-262.1"/>
</g>
<!-- el0x55a92694e180 -->
<g id="node10" class="node">
<title>el0x55a92694e180</title>
<ellipse fill="#adffbf" stroke="black" cx="84.19" cy="-162" rx="57.39" ry="18"/>
<text text-anchor="middle" x="84.19" y="-158.3" font-family="Times,serif" font-size="14.00">ID_TYPE | a</text>
</g>
<!-- el0x55a92694e1b0&#45;&gt;el0x55a92694e180 -->
<g id="edge2" class="edge">
<title>el0x55a92694e1b0&#45;&gt;el0x55a92694e180</title>
<path fill="none" stroke="black" d="M179.28,-217.12C161.62,-207.06 138.62,-193.97 119.67,-183.19"/>
<polygon fill="black" stroke="black" points="121.15,-180.01 110.73,-178.1 117.69,-186.09 121.15,-180.01"/>
</g>
<!-- el0x55a92694e280 -->
<g id="node11" class="node">
<title>el0x55a92694e280</title>
<ellipse fill="#adffbf" stroke="black" cx="217.19" cy="-162" rx="57.69" ry="18"/>
<text text-anchor="middle" x="217.19" y="-158.3" font-family="Times,serif" font-size="14.00">ID_TYPE | b</text>
</g>
<!-- el0x55a92694e1b0&#45;&gt;el0x55a92694e280 -->
<g id="edge3" class="edge">
<title>el0x55a92694e1b0&#45;&gt;el0x55a92694e280</title>
<path fill="none" stroke="black" d="M209.67,-215.7C210.77,-207.98 212.09,-198.71 213.32,-190.11"/>
<polygon fill="black" stroke="black" points="216.8,-190.5 214.75,-180.1 209.87,-189.51 216.8,-190.5"/>
</g>
<!-- el0x55a92694e410 -->
<g id="node13" class="node">
<title>el0x55a92694e410</title>
<ellipse fill="#adffbf" stroke="black" cx="360.19" cy="-234" rx="59.59" ry="18"/>
<text text-anchor="middle" x="360.19" y="-230.3" font-family="Times,serif" font-size="14.00">JUMP_TYPE</text>
</g>
<!-- el0x55a92694e310&#45;&gt;el0x55a92694e410 -->
<g id="edge7" class="edge">
<title>el0x55a92694e310&#45;&gt;el0x55a92694e410</title>
<path fill="none" stroke="black" d="M354.17,-287.7C355.05,-279.98 356.11,-270.71 357.1,-262.11"/>
<polygon fill="black" stroke="black" points="360.58,-262.44 358.24,-252.1 353.63,-261.64 360.58,-262.44"/>
</g>
<!-- el0x55a92694e3e0 -->
<g id="node14" class="node">
<title>el0x55a92694e3e0</title>
<ellipse fill="#adffbf" stroke="black" cx="360.19" cy="-162" rx="57.39" ry="18"/>
<text text-anchor="middle" x="360.19" y="-158.3" font-family="Times,serif" font-size="14.00">ID_TYPE | c</text>
</g>
<!-- el0x55a92694e410&#45;&gt;el0x55a92694e3e0 -->
<g id="edge6" class="edge">
<title>el0x55a92694e410&#45;&gt;el0x55a92694e3e0</title>
<path fill="none" stroke="black" d="M360.19,-215.7C360.19,-207.98 360.19,-198.71 360.19,-190.11"/>
<polygon fill="black" stroke="black" points="363.7,-190.1 360.19,-180.1 356.7,-190.1 363.7,-190.1"/>
</g>
<!-- el0x55a92694e030 -->
<g id="node16" class="node">
<title>el0x55a92694e030</title>
<ellipse fill="#adffbf" stroke="black" cx="421.19" cy="-378" rx="57.69" ry="18"/>
<text text-anchor="middle" x="421.19" y="-374.3" font-family="Times,serif" font-size="14.00">ID_TYPE | b</text>
</g>
<!-- el0x55a92694dfe0&#45;&gt;el0x55a92694e030 -->
<g id="edge11" class="edge">
<title>el0x55a92694dfe0&#45;&gt;el0x55a92694e030</title>
<path fill="none" stroke="black" d="M421.19,-431.7C421.19,-423.98 421.19,-414.71 421.19,-406.11"/>
<polygon fill="black" stroke="black" points="424.7,-406.1 421.19,-396.1 417.7,-406.1 424.7,-406.1"/>
</g>
<!-- el0x55a92694e510 -->
<g id="node18" class="node">
<title>el0x55a92694e510</title>
<ellipse fill="#adffbf" stroke="black" cx="651.19" cy="-522" rx="59.59" ry="18"/>
<text text-anchor="middle" x="651.19" y="-518.3" font-family="Times,serif" font-size="14.00">DECL_TYPE</text>
</g>
<!-- el0x55a92694e440&#45;&gt;el0x55a92694e510 -->
<g id="edge18" class="edge">
<title>el0x55a92694e440&#45;&gt;el0x55a92694e510</title>
<path fill="none" stroke="black" d="M651.19,-575.7C651.19,-567.98 651.19,-558.71 651.19,-550.11"/>
<polygon fill="black" stroke="black" points="654.7,-550.1 651.19,-540.1 647.7,-550.1 654.7,-550.1"/>
</g>
<!-- el0x55a92694e570 -->
<g id="node22" class="node">
<title>el0x55a92694e570</title>
<ellipse fill="#adffbf" stroke="black" cx="838.19" cy="-522" rx="57.69" ry="18"/>
<text text-anchor="middle" x="838.19" y="-518.3" font-family="Times,serif" font-size="14.00">STAT_TYPE</text>
</g>
<!-- el0x55a92694e440&#45;&gt;el0x55a92694e570 -->
<g id="edge33" class="edge">
<title>el0x55a92694e440&#45;&gt;el0x55a92694e570</title>
<path fill="none" stroke="black" d="M686.81,-579.67C716.96,-568.38 760.36,-552.14 792.97,-539.93"/>
<polygon fill="black" stroke="black" points="794.58,-543.07 802.71,-536.28 792.12,-536.51 794.58,-543.07"/>
</g>
<!-- el0x55a92694e540 -->
<g id="node19" class="node">
<title>el0x55a92694e540</title>
<ellipse fill="#adffbf" stroke="black" cx="553.19" cy="-450" rx="57.39" ry="18"/>
<text text-anchor="middle" x="553.19" y="-446.3" font-family="Times,serif" font-size="14.00">ID_TYPE | a</text>
</g>
<!-- el0x55a92694e510&#45;&gt;el0x55a92694e540 -->
<g id="edge15" class="edge">
<title>el0x55a92694e510&#45;&gt;el0x55a92694e540</title>
<path fill="none" stroke="black" d="M628.96,-505.12C615.55,-495.54 598.29,-483.21 583.63,-472.74"/>
<polygon fill="black" stroke="black" points="585.52,-469.79 575.34,-466.82 581.45,-475.48 585.52,-469.79"/>
</g>
<!-- el0x55a92694e4b0 -->
<g id="node20" class="node">
<title>el0x55a92694e4b0</title>
<ellipse fill="#adffbf" stroke="black" cx="688.19" cy="-450" rx="59.59" ry="18"/>
<text text-anchor="middle" x="688.19" y="-446.3" font-family="Times,serif" font-size="14.00">CALL_TYPE</text>
</g>
<!-- el0x55a92694e510&#45;&gt;el0x55a92694e4b0 -->
<g id="edge17" class="edge">
<title>el0x55a92694e510&#45;&gt;el0x55a92694e4b0</title>
<path fill="none" stroke="black" d="M660.15,-504.05C664.41,-496.01 669.59,-486.2 674.33,-477.23"/>
<polygon fill="black" stroke="black" points="677.48,-478.75 679.06,-468.28 671.3,-475.48 677.48,-478.75"/>
</g>
<!-- el0x55a92694e4e0 -->
<g id="node21" class="node">
<title>el0x55a92694e4e0</title>
<ellipse fill="#adffbf" stroke="black" cx="628.19" cy="-378" rx="71.49" ry="18"/>
<text text-anchor="middle" x="628.19" y="-374.3" font-family="Times,serif" font-size="14.00">ID_TYPE | input</text>
</g>
<!-- el0x55a92694e4b0&#45;&gt;el0x55a92694e4e0 -->
<g id="edge16" class="edge">
<title>el0x55a92694e4b0&#45;&gt;el0x55a92694e4e0</title>
<path fill="none" stroke="black" d="M673.98,-432.41C666.61,-423.82 657.47,-413.16 649.3,-403.63"/>
<polygon fill="black" stroke="black" points="651.89,-401.27 642.73,-395.96 646.58,-405.83 651.89,-401.27"/>
</g>
<!-- el0x55a92694e640 -->
<g id="node23" class="node">
<title>el0x55a92694e640</title>
<ellipse fill="#adffbf" stroke="black" cx="838.19" cy="-450" rx="59.59" ry="18"/>
<text text-anchor="middle" x="838.19" y="-446.3" font-family="Times,serif" font-size="14.00">DECL_TYPE</text>
</g>
<!-- el0x55a92694e570&#45;&gt;el0x55a92694e640 -->
<g id="edge22" class="edge">
<title>el0x55a92694e570&#45;&gt;el0x55a92694e640</title>
<path fill="none" stroke="black" d="M838.19,-503.7C838.19,-495.98 838.19,-486.71 838.19,-478.11"/>
<polygon fill="black" stroke="black" points="841.7,-478.1 838.19,-468.1 834.7,-478.1 841.7,-478.1"/>
</g>
<!-- el0x55a92694e6a0 -->
<g id="node27" class="node">
<title>el0x55a92694e6a0</title>
<ellipse fill="#adffbf" stroke="black" cx="981.19" cy="-450" rx="57.69" ry="18"/>
<text text-anchor="middle" x="981.19" y="-446.3" font-family="Times,serif" font-size="14.00">STAT_TYPE</text>
</g>
<!-- el0x55a92694e570&#45;&gt;el0x55a92694e6a0 -->
<g id="edge32" class="edge">
<title>el0x55a92694e570&#45;&gt;el0x55a92694e6a0</title>
<path fill="none" stroke="black" d="M867.82,-506.5C889.49,-495.89 919.08,-481.41 942.59,-469.9"/>
<polygon fill="black" stroke="black" points="944.16,-473.03 951.6,-465.49 941.08,-466.74 944.16,-473.03"/>
</g>
<!-- el0x55a92694e670 -->
<g id="node24" class="node">
<title>el0x55a92694e670</title>
<ellipse fill="#adffbf" stroke="black" cx="775.19" cy="-378" rx="57.69" ry="18"/>
<text text-anchor="middle" x="775.19" y="-374.3" font-family="Times,serif" font-size="14.00">ID_TYPE | b</text>
</g>
<!-- el0x55a92694e640&#45;&gt;el0x55a92694e670 -->
<g id="edge19" class="edge">
<title>el0x55a92694e640&#45;&gt;el0x55a92694e670</title>
<path fill="none" stroke="black" d="M823.26,-432.41C815.34,-423.61 805.46,-412.63 796.72,-402.92"/>
<polygon fill="black" stroke="black" points="799.31,-400.56 790.02,-395.47 794.11,-405.24 799.31,-400.56"/>
</g>
<!-- el0x55a92694e5e0 -->
<g id="node25" class="node">
<title>el0x55a92694e5e0</title>
<ellipse fill="#adffbf" stroke="black" cx="911.19" cy="-378" rx="59.59" ry="18"/>
<text text-anchor="middle" x="911.19" y="-374.3" font-family="Times,serif" font-size="14.00">CALL_TYPE</text>
</g>
<!-- el0x55a92694e640&#45;&gt;el0x55a92694e5e0 -->
<g id="edge21" class="edge">
<title>el0x55a92694e640&#45;&gt;el0x55a92694e5e0</title>
<path fill="none" stroke="black" d="M855.49,-432.41C864.77,-423.52 876.35,-412.41 886.55,-402.63"/>
<polygon fill="black" stroke="black" points="889.22,-404.92 894.02,-395.47 884.38,-399.86 889.22,-404.92"/>
</g>
<!-- el0x55a92694e610 -->
<g id="node26" class="node">
<title>el0x55a92694e610</title>
<ellipse fill="#adffbf" stroke="black" cx="900.19" cy="-306" rx="71.49" ry="18"/>
<text text-anchor="middle" x="900.19" y="-302.3" font-family="Times,serif" font-size="14.00">ID_TYPE | input</text>
</g>
<!-- el0x55a92694e5e0&#45;&gt;el0x55a92694e610 -->
<g id="edge20" class="edge">
<title>el0x55a92694e5e0&#45;&gt;el0x55a92694e610</title>
<path fill="none" stroke="black" d="M908.48,-359.7C907.26,-351.98 905.81,-342.71 904.46,-334.11"/>
<polygon fill="black" stroke="black" points="907.89,-333.44 902.88,-324.1 900.98,-334.53 907.89,-333.44"/>
</g>
<!-- el0x55a92694e710 -->
<g id="node28" class="node">
<title>el0x55a92694e710</title>
<ellipse fill="#adffbf" stroke="black" cx="1059.19" cy="-378" rx="59.59" ry="18"/>
<text text-anchor="middle" x="1059.19" y="-374.3" font-family="Times,serif" font-size="14.00">CALL_TYPE</text>
</g>
<!-- el0x55a92694e6a0&#45;&gt;el0x55a92694e710 -->
<g id="edge31" class="edge">
<title>el0x55a92694e6a0&#45;&gt;el0x55a92694e710</title>
<path fill="none" stroke="black" d="M999.29,-432.76C1009.35,-423.73 1022.06,-412.33 1033.18,-402.35"/>
<polygon fill="black" stroke="black" points="1035.83,-404.67 1040.93,-395.39 1031.15,-399.46 1035.83,-404.67"/>
</g>
<!-- el0x55a92694e740 -->
<g id="node29" class="node">
<title>el0x55a92694e740</title>
<ellipse fill="#adffbf" stroke="black" cx="1059.19" cy="-306" rx="69.59" ry="18"/>
<text text-anchor="middle" x="1059.19" y="-302.3" font-family="Times,serif" font-size="14.00">ID_TYPE | print</text>
</g>
<!-- el0x55a92694e710&#45;&gt;el0x55a92694e740 -->
<g id="edge23" class="edge">
<title>el0x55a92694e710&#45;&gt;el0x55a92694e740</title>
<path fill="none" stroke="black" d="M1059.19,-359.7C1059.19,-351.98 1059.19,-342.71 1059.19,-334.11"/>
<polygon fill="black" stroke="black" points="1062.7,-334.1 1059.19,-324.1 1055.7,-334.1 1062.7,-334.1"/>
</g>
<!-- el0x55a92694e9f0 -->
<g id="node30" class="node">
<title>el0x55a92694e9f0</title>
<ellipse fill="#adffbf" stroke="black" cx="1202.19" cy="-306" rx="55.79" ry="18"/>
<text text-anchor="middle" x="1202.19" y="-302.3" font-family="Times,serif" font-size="14.00">ARG_TYPE</text>
</g>
<!-- el0x55a92694e710&#45;&gt;el0x55a92694e9f0 -->
<g id="edge30" class="edge">
<title>el0x55a92694e710&#45;&gt;el0x55a92694e9f0</title>
<path fill="none" stroke="black" d="M1089.17,-362.33C1110.77,-351.76 1140.09,-337.4 1163.46,-325.96"/>
<polygon fill="black" stroke="black" points="1165.3,-328.96 1172.75,-321.42 1162.23,-322.67 1165.3,-328.96"/>
</g>
<!-- el0x55a92694e790 -->
<g id="node31" class="node">
<title>el0x55a92694e790</title>
<ellipse fill="#adffbf" stroke="black" cx="1202.19" cy="-234" rx="59.59" ry="18"/>
<text text-anchor="middle" x="1202.19" y="-230.3" font-family="Times,serif" font-size="14.00">CALL_TYPE</text>
</g>
<!-- el0x55a92694e9f0&#45;&gt;el0x55a92694e790 -->
<g id="edge29" class="edge">
<title>el0x55a92694e9f0&#45;&gt;el0x55a92694e790</title>
<path fill="none" stroke="black" d="M1202.19,-287.7C1202.19,-279.98 1202.19,-270.71 1202.19,-262.11"/>
<polygon fill="black" stroke="black" points="1205.7,-262.1 1202.19,-252.1 1198.7,-262.1 1205.7,-262.1"/>
</g>
<!-- el0x55a92694e7c0 -->
<g id="node32" class="node">
<title>el0x55a92694e7c0</title>
<ellipse fill="#adffbf" stroke="black" cx="1131.19" cy="-162" rx="68.49" ry="18"/>
<text text-anchor="middle" x="1131.19" y="-158.3" font-family="Times,serif" font-size="14.00">ID_TYPE | sum</text>
</g>
<!-- el0x55a92694e790&#45;&gt;el0x55a92694e7c0 -->
<g id="edge24" class="edge">
<title>el0x55a92694e790&#45;&gt;el0x55a92694e7c0</title>
<path fill="none" stroke="black" d="M1185.37,-216.41C1176.35,-207.52 1165.08,-196.41 1155.16,-186.63"/>
<polygon fill="black" stroke="black" points="1157.48,-184 1147.9,-179.47 1152.56,-188.98 1157.48,-184"/>
</g>
<!-- el0x55a92694e8c0 -->
<g id="node33" class="node">
<title>el0x55a92694e8c0</title>
<ellipse fill="#adffbf" stroke="black" cx="1273.19" cy="-162" rx="55.79" ry="18"/>
<text text-anchor="middle" x="1273.19" y="-158.3" font-family="Times,serif" font-size="14.00">ARG_TYPE</text>
</g>
<!-- el0x55a92694e790&#45;&gt;el0x55a92694e8c0 -->
<g id="edge28" class="edge">
<title>el0x55a92694e790&#45;&gt;el0x55a92694e8c0</title>
<path fill="none" stroke="black" d="M1219.02,-216.41C1228.04,-207.52 1239.31,-196.41 1249.23,-186.63"/>
<polygon fill="black" stroke="black" points="1251.83,-188.98 1256.49,-179.47 1246.91,-184 1251.83,-188.98"/>
</g>
<!-- el0x55a92694e890 -->
<g id="node34" class="node">
<title>el0x55a92694e890</title>
<ellipse fill="#adffbf" stroke="black" cx="1208.19" cy="-90" rx="57.39" ry="18"/>
<text text-anchor="middle" x="1208.19" y="-86.3" font-family="Times,serif" font-size="14.00">ID_TYPE | a</text>
</g>
<!-- el0x55a92694e8c0&#45;&gt;el0x55a92694e890 -->
<g id="edge25" class="edge">
<title>el0x55a92694e8c0&#45;&gt;el0x55a92694e890</title>
<path fill="none" stroke="black" d="M1257.79,-144.41C1249.61,-135.61 1239.42,-124.63 1230.41,-114.92"/>
<polygon fill="black" stroke="black" points="1232.86,-112.42 1223.49,-107.47 1227.73,-117.18 1232.86,-112.42"/>
</g>
<!-- el0x55a92694e9c0 -->
<g id="node35" class="node">
<title>el0x55a92694e9c0</title>
<ellipse fill="#adffbf" stroke="black" cx="1339.19" cy="-90" rx="55.79" ry="18"/>
<text text-anchor="middle" x="1339.19" y="-86.3" font-family="Times,serif" font-size="14.00">ARG_TYPE</text>
</g>
<!-- el0x55a92694e8c0&#45;&gt;el0x55a92694e9c0 -->
<g id="edge27" class="edge">
<title>el0x55a92694e8c0&#45;&gt;el0x55a92694e9c0</title>
<path fill="none" stroke="black" d="M1288.84,-144.41C1297.14,-135.61 1307.49,-124.63 1316.64,-114.92"/>
<polygon fill="black" stroke="black" points="1319.35,-117.15 1323.67,-107.47 1314.26,-112.34 1319.35,-117.15"/>
</g>
<!-- el0x55a92694e990 -->
<g id="node36" class="node">
<title>el0x55a92694e990</title>
<ellipse fill="#adffbf" stroke="black" cx="1339.19" cy="-18" rx="57.69" ry="18"/>
<text text-anchor="middle" x="1339.19" y="-14.3" font-family="Times,serif" font-size="14.00">ID_TYPE | b</text>
</g>
<!-- el0x55a92694e9c0&#45;&gt;el0x55a92694e990 -->
<g id="edge26" class="edge">
<title>el0x55a92694e9c0&#45;&gt;el0x55a92694e990</title>
<path fill="none" stroke="black" d="M1339.19,-71.7C1339.19,-63.98 1339.19,-54.71 1339.19,-46.11"/>
<polygon fill="black" stroke="black" points="1342.7,-46.1 1339.19,-36.1 1335.7,-46.1 1342.7,-46.1"/>
</g>
</g>
</svg>
