<?xml version="1.0" encoding="UTF-8" standalone="no"?>
<!DOCTYPE svg PUBLIC "-//W3C//DTD SVG 1.1//EN"
 "http://www.w3.org/Graphics/SVG/1.1/DTD/svg11.dtd">
<!-- Generated by graphviz version 2.46.1 (0)
 -->
<!-- Title: structs Pages: 1 -->
<svg width="1277pt" height="908pt"
 viewBox="0.00 0.00 1276.69 908.00" xmlns="http://www.w3.org/2000/svg" xmlns:xlink="http://www.w3.org/1999/xlink">
<g id="graph0" class="graph" transform="scale(1 1) rotate(0) translate(4 904)">
<title>structs</title>
<polygon fill="white" stroke="transparent" points="-4,4 -4,-904 1272.69,-904 1272.69,4 -4,4"/>
<!-- el0x56551bc55300 -->
<g id="node1" class="node">
<title>el0x56551bc55300</title>
<ellipse fill="#adffbf" stroke="black" cx="706.84" cy="-882" rx="62.29" ry="18"/>
<text text-anchor="middle" x="706.84" y="-878.3" font-family="Times,serif" font-size="14.00">COMP_TYPE</text>
</g>
<!-- el0x56551bc55330 -->
<g id="node2" class="node">
<title>el0x56551bc55330</title>
<ellipse fill="#adffbf" stroke="black" cx="706.84" cy="-810" rx="57.69" ry="18"/>
<text text-anchor="middle" x="706.84" y="-806.3" font-family="Times,serif" font-size="14.00">STAT_TYPE</text>
</g>
<!-- el0x56551bc55300&#45;&gt;el0x56551bc55330 -->
<g id="edge43" class="edge">
<title>el0x56551bc55300&#45;&gt;el0x56551bc55330</title>
<path fill="none" stroke="black" d="M706.84,-863.7C706.84,-855.98 706.84,-846.71 706.84,-838.11"/>
<polygon fill="black" stroke="black" points="710.34,-838.1 706.84,-828.1 703.34,-838.1 710.34,-838.1"/>
</g>
<!-- el0x56551bc55380 -->
<g id="node3" class="node">
<title>el0x56551bc55380</title>
<ellipse fill="#adffbf" stroke="black" cx="647.84" cy="-738" rx="43.59" ry="18"/>
<text text-anchor="middle" x="647.84" y="-734.3" font-family="Times,serif" font-size="14.00">D_TYPE</text>
</g>
<!-- el0x56551bc55330&#45;&gt;el0x56551bc55380 -->
<g id="edge29" class="edge">
<title>el0x56551bc55330&#45;&gt;el0x56551bc55380</title>
<path fill="none" stroke="black" d="M692.86,-792.41C685.51,-783.69 676.37,-772.85 668.25,-763.21"/>
<polygon fill="black" stroke="black" points="670.85,-760.86 661.73,-755.47 665.5,-765.37 670.85,-760.86"/>
</g>
<!-- el0x56551bc56130 -->
<g id="node32" class="node">
<title>el0x56551bc56130</title>
<ellipse fill="#adffbf" stroke="black" cx="786.84" cy="-738" rx="57.69" ry="18"/>
<text text-anchor="middle" x="786.84" y="-734.3" font-family="Times,serif" font-size="14.00">STAT_TYPE</text>
</g>
<!-- el0x56551bc55330&#45;&gt;el0x56551bc56130 -->
<g id="edge42" class="edge">
<title>el0x56551bc55330&#45;&gt;el0x56551bc56130</title>
<path fill="none" stroke="black" d="M725.4,-792.76C735.9,-783.58 749.2,-771.94 760.74,-761.84"/>
<polygon fill="black" stroke="black" points="763.17,-764.37 768.39,-755.15 758.56,-759.1 763.17,-764.37"/>
</g>
<!-- el0x56551bc553b0 -->
<g id="node4" class="node">
<title>el0x56551bc553b0</title>
<ellipse fill="#adffbf" stroke="black" cx="571.84" cy="-666" rx="82.59" ry="18"/>
<text text-anchor="middle" x="571.84" y="-662.3" font-family="Times,serif" font-size="14.00">ID_TYPE | factorial</text>
</g>
<!-- el0x56551bc55380&#45;&gt;el0x56551bc553b0 -->
<g id="edge28" class="edge">
<title>el0x56551bc55380&#45;&gt;el0x56551bc553b0</title>
<path fill="none" stroke="black" d="M630.6,-721.12C620.87,-712.16 608.53,-700.79 597.67,-690.79"/>
<polygon fill="black" stroke="black" points="599.81,-688 590.08,-683.8 595.07,-693.15 599.81,-688"/>
</g>
<!-- el0x56551bc555f0 -->
<g id="node5" class="node">
<title>el0x56551bc555f0</title>
<ellipse fill="#adffbf" stroke="black" cx="433.84" cy="-594" rx="62.29" ry="18"/>
<text text-anchor="middle" x="433.84" y="-590.3" font-family="Times,serif" font-size="14.00">COMP_TYPE</text>
</g>
<!-- el0x56551bc553b0&#45;&gt;el0x56551bc555f0 -->
<g id="edge26" class="edge">
<title>el0x56551bc553b0&#45;&gt;el0x56551bc555f0</title>
<path fill="none" stroke="black" d="M540.87,-649.29C520.57,-638.99 493.88,-625.45 472.23,-614.47"/>
<polygon fill="black" stroke="black" points="473.79,-611.34 463.29,-609.94 470.63,-617.58 473.79,-611.34"/>
</g>
<!-- el0x56551bc555c0 -->
<g id="node31" class="node">
<title>el0x56551bc555c0</title>
<ellipse fill="#adffbf" stroke="black" cx="571.84" cy="-594" rx="57.69" ry="18"/>
<text text-anchor="middle" x="571.84" y="-590.3" font-family="Times,serif" font-size="14.00">ID_TYPE | n</text>
</g>
<!-- el0x56551bc553b0&#45;&gt;el0x56551bc555c0 -->
<g id="edge27" class="edge">
<title>el0x56551bc553b0&#45;&gt;el0x56551bc555c0</title>
<path fill="none" stroke="black" d="M571.84,-647.7C571.84,-639.98 571.84,-630.71 571.84,-622.11"/>
<polygon fill="black" stroke="black" points="575.34,-622.1 571.84,-612.1 568.34,-622.1 575.34,-622.1"/>
</g>
<!-- el0x56551bc55620 -->
<g id="node6" class="node">
<title>el0x56551bc55620</title>
<ellipse fill="#adffbf" stroke="black" cx="433.84" cy="-522" rx="57.69" ry="18"/>
<text text-anchor="middle" x="433.84" y="-518.3" font-family="Times,serif" font-size="14.00">STAT_TYPE</text>
</g>
<!-- el0x56551bc555f0&#45;&gt;el0x56551bc55620 -->
<g id="edge25" class="edge">
<title>el0x56551bc555f0&#45;&gt;el0x56551bc55620</title>
<path fill="none" stroke="black" d="M433.84,-575.7C433.84,-567.98 433.84,-558.71 433.84,-550.11"/>
<polygon fill="black" stroke="black" points="437.34,-550.1 433.84,-540.1 430.34,-550.1 437.34,-550.1"/>
</g>
<!-- el0x56551bc55c50 -->
<g id="node7" class="node">
<title>el0x56551bc55c50</title>
<ellipse fill="#adffbf" stroke="black" cx="364.84" cy="-450" rx="61.99" ry="18"/>
<text text-anchor="middle" x="364.84" y="-446.3" font-family="Times,serif" font-size="14.00">COND_TYPE</text>
</g>
<!-- el0x56551bc55620&#45;&gt;el0x56551bc55c50 -->
<g id="edge9" class="edge">
<title>el0x56551bc55620&#45;&gt;el0x56551bc55c50</title>
<path fill="none" stroke="black" d="M417.49,-504.41C408.73,-495.52 397.78,-484.41 388.14,-474.63"/>
<polygon fill="black" stroke="black" points="390.59,-472.13 381.08,-467.47 385.61,-477.05 390.59,-472.13"/>
</g>
<!-- el0x56551bc55cb0 -->
<g id="node16" class="node">
<title>el0x56551bc55cb0</title>
<ellipse fill="#adffbf" stroke="black" cx="552.84" cy="-450" rx="57.69" ry="18"/>
<text text-anchor="middle" x="552.84" y="-446.3" font-family="Times,serif" font-size="14.00">STAT_TYPE</text>
</g>
<!-- el0x56551bc55620&#45;&gt;el0x56551bc55cb0 -->
<g id="edge24" class="edge">
<title>el0x56551bc55620&#45;&gt;el0x56551bc55cb0</title>
<path fill="none" stroke="black" d="M459.67,-505.81C476.82,-495.72 499.54,-482.36 518.25,-471.35"/>
<polygon fill="black" stroke="black" points="520.23,-474.25 527.07,-466.16 516.68,-468.21 520.23,-474.25"/>
</g>
<!-- el0x56551bc55b30 -->
<g id="node8" class="node">
<title>el0x56551bc55b30</title>
<ellipse fill="#adffbf" stroke="black" cx="208.84" cy="-378" rx="79.89" ry="18"/>
<text text-anchor="middle" x="208.84" y="-374.3" font-family="Times,serif" font-size="14.00">MATH_TYPE | &lt;=</text>
</g>
<!-- el0x56551bc55c50&#45;&gt;el0x56551bc55b30 -->
<g id="edge3" class="edge">
<title>el0x56551bc55c50&#45;&gt;el0x56551bc55b30</title>
<path fill="none" stroke="black" d="M332.52,-434.5C309.33,-424.09 277.83,-409.96 252.43,-398.56"/>
<polygon fill="black" stroke="black" points="253.57,-395.23 243.02,-394.33 250.71,-401.62 253.57,-395.23"/>
</g>
<!-- el0x56551bc55c80 -->
<g id="node11" class="node">
<title>el0x56551bc55c80</title>
<ellipse fill="#adffbf" stroke="black" cx="364.84" cy="-378" rx="55.79" ry="18"/>
<text text-anchor="middle" x="364.84" y="-374.3" font-family="Times,serif" font-size="14.00">IFEL_TYPE</text>
</g>
<!-- el0x56551bc55c50&#45;&gt;el0x56551bc55c80 -->
<g id="edge8" class="edge">
<title>el0x56551bc55c50&#45;&gt;el0x56551bc55c80</title>
<path fill="none" stroke="black" d="M364.84,-431.7C364.84,-423.98 364.84,-414.71 364.84,-406.11"/>
<polygon fill="black" stroke="black" points="368.34,-406.1 364.84,-396.1 361.34,-406.1 368.34,-406.1"/>
</g>
<!-- el0x56551bc55b00 -->
<g id="node9" class="node">
<title>el0x56551bc55b00</title>
<ellipse fill="#adffbf" stroke="black" cx="57.84" cy="-306" rx="57.69" ry="18"/>
<text text-anchor="middle" x="57.84" y="-302.3" font-family="Times,serif" font-size="14.00">ID_TYPE | n</text>
</g>
<!-- el0x56551bc55b30&#45;&gt;el0x56551bc55b00 -->
<g id="edge1" class="edge">
<title>el0x56551bc55b30&#45;&gt;el0x56551bc55b00</title>
<path fill="none" stroke="black" d="M175.33,-361.46C152.48,-350.87 122.09,-336.78 97.94,-325.59"/>
<polygon fill="black" stroke="black" points="99.24,-322.33 88.69,-321.3 96.29,-328.68 99.24,-322.33"/>
</g>
<!-- el0x56551bc55b60 -->
<g id="node10" class="node">
<title>el0x56551bc55b60</title>
<ellipse fill="#adffbf" stroke="black" cx="208.84" cy="-306" rx="75.29" ry="18"/>
<text text-anchor="middle" x="208.84" y="-302.3" font-family="Times,serif" font-size="14.00">NUMB_TYPE | 2</text>
</g>
<!-- el0x56551bc55b30&#45;&gt;el0x56551bc55b60 -->
<g id="edge2" class="edge">
<title>el0x56551bc55b30&#45;&gt;el0x56551bc55b60</title>
<path fill="none" stroke="black" d="M208.84,-359.7C208.84,-351.98 208.84,-342.71 208.84,-334.11"/>
<polygon fill="black" stroke="black" points="212.34,-334.1 208.84,-324.1 205.34,-334.1 212.34,-334.1"/>
</g>
<!-- el0x56551bc55b90 -->
<g id="node12" class="node">
<title>el0x56551bc55b90</title>
<ellipse fill="#adffbf" stroke="black" cx="364.84" cy="-306" rx="62.29" ry="18"/>
<text text-anchor="middle" x="364.84" y="-302.3" font-family="Times,serif" font-size="14.00">COMP_TYPE</text>
</g>
<!-- el0x56551bc55c80&#45;&gt;el0x56551bc55b90 -->
<g id="edge7" class="edge">
<title>el0x56551bc55c80&#45;&gt;el0x56551bc55b90</title>
<path fill="none" stroke="black" d="M364.84,-359.7C364.84,-351.98 364.84,-342.71 364.84,-334.11"/>
<polygon fill="black" stroke="black" points="368.34,-334.1 364.84,-324.1 361.34,-334.1 368.34,-334.1"/>
</g>
<!-- el0x56551bc55bc0 -->
<g id="node13" class="node">
<title>el0x56551bc55bc0</title>
<ellipse fill="#adffbf" stroke="black" cx="339.84" cy="-234" rx="57.69" ry="18"/>
<text text-anchor="middle" x="339.84" y="-230.3" font-family="Times,serif" font-size="14.00">STAT_TYPE</text>
</g>
<!-- el0x56551bc55b90&#45;&gt;el0x56551bc55bc0 -->
<g id="edge6" class="edge">
<title>el0x56551bc55b90&#45;&gt;el0x56551bc55bc0</title>
<path fill="none" stroke="black" d="M358.79,-288.05C355.98,-280.18 352.57,-270.62 349.41,-261.79"/>
<polygon fill="black" stroke="black" points="352.67,-260.52 346.01,-252.28 346.08,-262.87 352.67,-260.52"/>
</g>
<!-- el0x56551bc55c20 -->
<g id="node14" class="node">
<title>el0x56551bc55c20</title>
<ellipse fill="#adffbf" stroke="black" cx="327.84" cy="-162" rx="59.59" ry="18"/>
<text text-anchor="middle" x="327.84" y="-158.3" font-family="Times,serif" font-size="14.00">JUMP_TYPE</text>
</g>
<!-- el0x56551bc55bc0&#45;&gt;el0x56551bc55c20 -->
<g id="edge5" class="edge">
<title>el0x56551bc55bc0&#45;&gt;el0x56551bc55c20</title>
<path fill="none" stroke="black" d="M336.88,-215.7C335.56,-207.98 333.97,-198.71 332.49,-190.11"/>
<polygon fill="black" stroke="black" points="335.92,-189.37 330.78,-180.1 329.02,-190.55 335.92,-189.37"/>
</g>
<!-- el0x56551bc55bf0 -->
<g id="node15" class="node">
<title>el0x56551bc55bf0</title>
<ellipse fill="#adffbf" stroke="black" cx="327.84" cy="-90" rx="75.29" ry="18"/>
<text text-anchor="middle" x="327.84" y="-86.3" font-family="Times,serif" font-size="14.00">NUMB_TYPE | 1</text>
</g>
<!-- el0x56551bc55c20&#45;&gt;el0x56551bc55bf0 -->
<g id="edge4" class="edge">
<title>el0x56551bc55c20&#45;&gt;el0x56551bc55bf0</title>
<path fill="none" stroke="black" d="M327.84,-143.7C327.84,-135.98 327.84,-126.71 327.84,-118.11"/>
<polygon fill="black" stroke="black" points="331.34,-118.1 327.84,-108.1 324.34,-118.1 331.34,-118.1"/>
</g>
<!-- el0x56551bc560d0 -->
<g id="node17" class="node">
<title>el0x56551bc560d0</title>
<ellipse fill="#adffbf" stroke="black" cx="559.84" cy="-378" rx="59.59" ry="18"/>
<text text-anchor="middle" x="559.84" y="-374.3" font-family="Times,serif" font-size="14.00">JUMP_TYPE</text>
</g>
<!-- el0x56551bc55cb0&#45;&gt;el0x56551bc560d0 -->
<g id="edge23" class="edge">
<title>el0x56551bc55cb0&#45;&gt;el0x56551bc560d0</title>
<path fill="none" stroke="black" d="M554.58,-431.7C555.35,-423.98 556.27,-414.71 557.13,-406.11"/>
<polygon fill="black" stroke="black" points="560.62,-406.4 558.13,-396.1 553.66,-405.71 560.62,-406.4"/>
</g>
<!-- el0x56551bc55ec0 -->
<g id="node18" class="node">
<title>el0x56551bc55ec0</title>
<ellipse fill="#adffbf" stroke="black" cx="565.84" cy="-306" rx="74.99" ry="18"/>
<text text-anchor="middle" x="565.84" y="-302.3" font-family="Times,serif" font-size="14.00">MATH_TYPE | +</text>
</g>
<!-- el0x56551bc560d0&#45;&gt;el0x56551bc55ec0 -->
<g id="edge22" class="edge">
<title>el0x56551bc560d0&#45;&gt;el0x56551bc55ec0</title>
<path fill="none" stroke="black" d="M561.33,-359.7C561.99,-351.98 562.78,-342.71 563.52,-334.11"/>
<polygon fill="black" stroke="black" points="567.01,-334.37 564.38,-324.1 560.04,-333.77 567.01,-334.37"/>
</g>
<!-- el0x56551bc55d00 -->
<g id="node19" class="node">
<title>el0x56551bc55d00</title>
<ellipse fill="#adffbf" stroke="black" cx="565.84" cy="-234" rx="59.59" ry="18"/>
<text text-anchor="middle" x="565.84" y="-230.3" font-family="Times,serif" font-size="14.00">CALL_TYPE</text>
</g>
<!-- el0x56551bc55ec0&#45;&gt;el0x56551bc55d00 -->
<g id="edge15" class="edge">
<title>el0x56551bc55ec0&#45;&gt;el0x56551bc55d00</title>
<path fill="none" stroke="black" d="M565.84,-287.7C565.84,-279.98 565.84,-270.71 565.84,-262.11"/>
<polygon fill="black" stroke="black" points="569.34,-262.1 565.84,-252.1 562.34,-262.1 569.34,-262.1"/>
</g>
<!-- el0x56551bc55f10 -->
<g id="node25" class="node">
<title>el0x56551bc55f10</title>
<ellipse fill="#adffbf" stroke="black" cx="799.84" cy="-234" rx="59.59" ry="18"/>
<text text-anchor="middle" x="799.84" y="-230.3" font-family="Times,serif" font-size="14.00">CALL_TYPE</text>
</g>
<!-- el0x56551bc55ec0&#45;&gt;el0x56551bc55f10 -->
<g id="edge21" class="edge">
<title>el0x56551bc55ec0&#45;&gt;el0x56551bc55f10</title>
<path fill="none" stroke="black" d="M610.69,-291.59C650.37,-279.72 708.22,-262.41 749.48,-250.07"/>
<polygon fill="black" stroke="black" points="750.49,-253.42 759.07,-247.2 748.49,-246.71 750.49,-253.42"/>
</g>
<!-- el0x56551bc55d30 -->
<g id="node20" class="node">
<title>el0x56551bc55d30</title>
<ellipse fill="#adffbf" stroke="black" cx="487.84" cy="-162" rx="82.59" ry="18"/>
<text text-anchor="middle" x="487.84" y="-158.3" font-family="Times,serif" font-size="14.00">ID_TYPE | factorial</text>
</g>
<!-- el0x56551bc55d00&#45;&gt;el0x56551bc55d30 -->
<g id="edge10" class="edge">
<title>el0x56551bc55d00&#45;&gt;el0x56551bc55d30</title>
<path fill="none" stroke="black" d="M547.75,-216.76C537.76,-207.79 525.16,-196.49 514.1,-186.56"/>
<polygon fill="black" stroke="black" points="516.16,-183.71 506.38,-179.63 511.48,-188.92 516.16,-183.71"/>
</g>
<!-- el0x56551bc55e90 -->
<g id="node21" class="node">
<title>el0x56551bc55e90</title>
<ellipse fill="#adffbf" stroke="black" cx="643.84" cy="-162" rx="55.79" ry="18"/>
<text text-anchor="middle" x="643.84" y="-158.3" font-family="Times,serif" font-size="14.00">ARG_TYPE</text>
</g>
<!-- el0x56551bc55d00&#45;&gt;el0x56551bc55e90 -->
<g id="edge14" class="edge">
<title>el0x56551bc55d00&#45;&gt;el0x56551bc55e90</title>
<path fill="none" stroke="black" d="M583.94,-216.76C594.17,-207.58 607.14,-195.94 618.39,-185.84"/>
<polygon fill="black" stroke="black" points="620.75,-188.43 625.85,-179.15 616.07,-183.22 620.75,-188.43"/>
</g>
<!-- el0x56551bc55e30 -->
<g id="node22" class="node">
<title>el0x56551bc55e30</title>
<ellipse fill="#adffbf" stroke="black" cx="643.84" cy="-90" rx="72.29" ry="18"/>
<text text-anchor="middle" x="643.84" y="-86.3" font-family="Times,serif" font-size="14.00">MATH_TYPE | &#45;</text>
</g>
<!-- el0x56551bc55e90&#45;&gt;el0x56551bc55e30 -->
<g id="edge13" class="edge">
<title>el0x56551bc55e90&#45;&gt;el0x56551bc55e30</title>
<path fill="none" stroke="black" d="M643.84,-143.7C643.84,-135.98 643.84,-126.71 643.84,-118.11"/>
<polygon fill="black" stroke="black" points="647.34,-118.1 643.84,-108.1 640.34,-118.1 647.34,-118.1"/>
</g>
<!-- el0x56551bc55e00 -->
<g id="node23" class="node">
<title>el0x56551bc55e00</title>
<ellipse fill="#adffbf" stroke="black" cx="568.84" cy="-18" rx="57.69" ry="18"/>
<text text-anchor="middle" x="568.84" y="-14.3" font-family="Times,serif" font-size="14.00">ID_TYPE | n</text>
</g>
<!-- el0x56551bc55e30&#45;&gt;el0x56551bc55e00 -->
<g id="edge11" class="edge">
<title>el0x56551bc55e30&#45;&gt;el0x56551bc55e00</title>
<path fill="none" stroke="black" d="M626.07,-72.41C616.38,-63.37 604.23,-52.03 593.63,-42.13"/>
<polygon fill="black" stroke="black" points="595.93,-39.49 586.23,-35.23 591.15,-44.61 595.93,-39.49"/>
</g>
<!-- el0x56551bc55e60 -->
<g id="node24" class="node">
<title>el0x56551bc55e60</title>
<ellipse fill="#adffbf" stroke="black" cx="719.84" cy="-18" rx="75.29" ry="18"/>
<text text-anchor="middle" x="719.84" y="-14.3" font-family="Times,serif" font-size="14.00">NUMB_TYPE | 1</text>
</g>
<!-- el0x56551bc55e30&#45;&gt;el0x56551bc55e60 -->
<g id="edge12" class="edge">
<title>el0x56551bc55e30&#45;&gt;el0x56551bc55e60</title>
<path fill="none" stroke="black" d="M661.86,-72.41C671.53,-63.5 683.63,-52.36 694.27,-42.56"/>
<polygon fill="black" stroke="black" points="696.72,-45.06 701.7,-35.71 691.97,-39.91 696.72,-45.06"/>
</g>
<!-- el0x56551bc55f40 -->
<g id="node26" class="node">
<title>el0x56551bc55f40</title>
<ellipse fill="#adffbf" stroke="black" cx="799.84" cy="-162" rx="82.59" ry="18"/>
<text text-anchor="middle" x="799.84" y="-158.3" font-family="Times,serif" font-size="14.00">ID_TYPE | factorial</text>
</g>
<!-- el0x56551bc55f10&#45;&gt;el0x56551bc55f40 -->
<g id="edge16" class="edge">
<title>el0x56551bc55f10&#45;&gt;el0x56551bc55f40</title>
<path fill="none" stroke="black" d="M799.84,-215.7C799.84,-207.98 799.84,-198.71 799.84,-190.11"/>
<polygon fill="black" stroke="black" points="803.34,-190.1 799.84,-180.1 796.34,-190.1 803.34,-190.1"/>
</g>
<!-- el0x56551bc560a0 -->
<g id="node27" class="node">
<title>el0x56551bc560a0</title>
<ellipse fill="#adffbf" stroke="black" cx="955.84" cy="-162" rx="55.79" ry="18"/>
<text text-anchor="middle" x="955.84" y="-158.3" font-family="Times,serif" font-size="14.00">ARG_TYPE</text>
</g>
<!-- el0x56551bc55f10&#45;&gt;el0x56551bc560a0 -->
<g id="edge20" class="edge">
<title>el0x56551bc55f10&#45;&gt;el0x56551bc560a0</title>
<path fill="none" stroke="black" d="M831.79,-218.67C856,-207.8 889.44,-192.8 915.5,-181.1"/>
<polygon fill="black" stroke="black" points="917.05,-184.24 924.74,-176.96 914.18,-177.86 917.05,-184.24"/>
</g>
<!-- el0x56551bc56040 -->
<g id="node28" class="node">
<title>el0x56551bc56040</title>
<ellipse fill="#adffbf" stroke="black" cx="955.84" cy="-90" rx="72.29" ry="18"/>
<text text-anchor="middle" x="955.84" y="-86.3" font-family="Times,serif" font-size="14.00">MATH_TYPE | &#45;</text>
</g>
<!-- el0x56551bc560a0&#45;&gt;el0x56551bc56040 -->
<g id="edge19" class="edge">
<title>el0x56551bc560a0&#45;&gt;el0x56551bc56040</title>
<path fill="none" stroke="black" d="M955.84,-143.7C955.84,-135.98 955.84,-126.71 955.84,-118.11"/>
<polygon fill="black" stroke="black" points="959.34,-118.1 955.84,-108.1 952.34,-118.1 959.34,-118.1"/>
</g>
<!-- el0x56551bc56010 -->
<g id="node29" class="node">
<title>el0x56551bc56010</title>
<ellipse fill="#adffbf" stroke="black" cx="913.84" cy="-18" rx="57.69" ry="18"/>
<text text-anchor="middle" x="913.84" y="-14.3" font-family="Times,serif" font-size="14.00">ID_TYPE | n</text>
</g>
<!-- el0x56551bc56040&#45;&gt;el0x56551bc56010 -->
<g id="edge17" class="edge">
<title>el0x56551bc56040&#45;&gt;el0x56551bc56010</title>
<path fill="none" stroke="black" d="M945.68,-72.05C940.73,-63.8 934.67,-53.7 929.17,-44.54"/>
<polygon fill="black" stroke="black" points="932.06,-42.56 923.92,-35.79 926.06,-46.16 932.06,-42.56"/>
</g>
<!-- el0x56551bc56070 -->
<g id="node30" class="node">
<title>el0x56551bc56070</title>
<ellipse fill="#adffbf" stroke="black" cx="1064.84" cy="-18" rx="75.29" ry="18"/>
<text text-anchor="middle" x="1064.84" y="-14.3" font-family="Times,serif" font-size="14.00">NUMB_TYPE | 2</text>
</g>
<!-- el0x56551bc56040&#45;&gt;el0x56551bc56070 -->
<g id="edge18" class="edge">
<title>el0x56551bc56040&#45;&gt;el0x56551bc56070</title>
<path fill="none" stroke="black" d="M980.85,-72.94C995.7,-63.4 1014.73,-51.18 1030.92,-40.79"/>
<polygon fill="black" stroke="black" points="1033.05,-43.58 1039.58,-35.23 1029.27,-37.69 1033.05,-43.58"/>
</g>
<!-- el0x56551bc56200 -->
<g id="node33" class="node">
<title>el0x56551bc56200</title>
<ellipse fill="#adffbf" stroke="black" cx="786.84" cy="-666" rx="59.59" ry="18"/>
<text text-anchor="middle" x="786.84" y="-662.3" font-family="Times,serif" font-size="14.00">DECL_TYPE</text>
</g>
<!-- el0x56551bc56130&#45;&gt;el0x56551bc56200 -->
<g id="edge33" class="edge">
<title>el0x56551bc56130&#45;&gt;el0x56551bc56200</title>
<path fill="none" stroke="black" d="M786.84,-719.7C786.84,-711.98 786.84,-702.71 786.84,-694.11"/>
<polygon fill="black" stroke="black" points="790.34,-694.1 786.84,-684.1 783.34,-694.1 790.34,-694.1"/>
</g>
<!-- el0x56551bc56260 -->
<g id="node37" class="node">
<title>el0x56551bc56260</title>
<ellipse fill="#adffbf" stroke="black" cx="950.84" cy="-666" rx="57.69" ry="18"/>
<text text-anchor="middle" x="950.84" y="-662.3" font-family="Times,serif" font-size="14.00">STAT_TYPE</text>
</g>
<!-- el0x56551bc56130&#45;&gt;el0x56551bc56260 -->
<g id="edge41" class="edge">
<title>el0x56551bc56130&#45;&gt;el0x56551bc56260</title>
<path fill="none" stroke="black" d="M819.64,-723C845.23,-712.08 880.96,-696.83 908.67,-685"/>
<polygon fill="black" stroke="black" points="910.28,-688.12 918.11,-680.97 907.54,-681.68 910.28,-688.12"/>
</g>
<!-- el0x56551bc56230 -->
<g id="node34" class="node">
<title>el0x56551bc56230</title>
<ellipse fill="#adffbf" stroke="black" cx="705.84" cy="-594" rx="57.69" ry="18"/>
<text text-anchor="middle" x="705.84" y="-590.3" font-family="Times,serif" font-size="14.00">ID_TYPE | n</text>
</g>
<!-- el0x56551bc56200&#45;&gt;el0x56551bc56230 -->
<g id="edge30" class="edge">
<title>el0x56551bc56200&#45;&gt;el0x56551bc56230</title>
<path fill="none" stroke="black" d="M768.06,-648.76C757.43,-639.58 743.96,-627.94 732.28,-617.84"/>
<polygon fill="black" stroke="black" points="734.38,-615.04 724.53,-611.15 729.81,-620.33 734.38,-615.04"/>
</g>
<!-- el0x56551bc561a0 -->
<g id="node35" class="node">
<title>el0x56551bc561a0</title>
<ellipse fill="#adffbf" stroke="black" cx="841.84" cy="-594" rx="59.59" ry="18"/>
<text text-anchor="middle" x="841.84" y="-590.3" font-family="Times,serif" font-size="14.00">CALL_TYPE</text>
</g>
<!-- el0x56551bc56200&#45;&gt;el0x56551bc561a0 -->
<g id="edge32" class="edge">
<title>el0x56551bc56200&#45;&gt;el0x56551bc561a0</title>
<path fill="none" stroke="black" d="M799.88,-648.41C806.56,-639.91 814.84,-629.37 822.27,-619.91"/>
<polygon fill="black" stroke="black" points="825.1,-621.98 828.52,-611.96 819.59,-617.66 825.1,-621.98"/>
</g>
<!-- el0x56551bc561d0 -->
<g id="node36" class="node">
<title>el0x56551bc561d0</title>
<ellipse fill="#adffbf" stroke="black" cx="830.84" cy="-522" rx="71.49" ry="18"/>
<text text-anchor="middle" x="830.84" y="-518.3" font-family="Times,serif" font-size="14.00">ID_TYPE | input</text>
</g>
<!-- el0x56551bc561a0&#45;&gt;el0x56551bc561d0 -->
<g id="edge31" class="edge">
<title>el0x56551bc561a0&#45;&gt;el0x56551bc561d0</title>
<path fill="none" stroke="black" d="M839.13,-575.7C837.91,-567.98 836.46,-558.71 835.11,-550.11"/>
<polygon fill="black" stroke="black" points="838.54,-549.44 833.53,-540.1 831.63,-550.53 838.54,-549.44"/>
</g>
<!-- el0x56551bc562d0 -->
<g id="node38" class="node">
<title>el0x56551bc562d0</title>
<ellipse fill="#adffbf" stroke="black" cx="989.84" cy="-594" rx="59.59" ry="18"/>
<text text-anchor="middle" x="989.84" y="-590.3" font-family="Times,serif" font-size="14.00">CALL_TYPE</text>
</g>
<!-- el0x56551bc56260&#45;&gt;el0x56551bc562d0 -->
<g id="edge40" class="edge">
<title>el0x56551bc56260&#45;&gt;el0x56551bc562d0</title>
<path fill="none" stroke="black" d="M960.29,-648.05C964.88,-639.8 970.51,-629.7 975.62,-620.54"/>
<polygon fill="black" stroke="black" points="978.68,-622.23 980.49,-611.79 972.57,-618.82 978.68,-622.23"/>
</g>
<!-- el0x56551bc56300 -->
<g id="node39" class="node">
<title>el0x56551bc56300</title>
<ellipse fill="#adffbf" stroke="black" cx="989.84" cy="-522" rx="69.59" ry="18"/>
<text text-anchor="middle" x="989.84" y="-518.3" font-family="Times,serif" font-size="14.00">ID_TYPE | print</text>
</g>
<!-- el0x56551bc562d0&#45;&gt;el0x56551bc56300 -->
<g id="edge34" class="edge">
<title>el0x56551bc562d0&#45;&gt;el0x56551bc56300</title>
<path fill="none" stroke="black" d="M989.84,-575.7C989.84,-567.98 989.84,-558.71 989.84,-550.11"/>
<polygon fill="black" stroke="black" points="993.34,-550.1 989.84,-540.1 986.34,-550.1 993.34,-550.1"/>
</g>
<!-- el0x56551bc564b0 -->
<g id="node40" class="node">
<title>el0x56551bc564b0</title>
<ellipse fill="#adffbf" stroke="black" cx="1132.84" cy="-522" rx="55.79" ry="18"/>
<text text-anchor="middle" x="1132.84" y="-518.3" font-family="Times,serif" font-size="14.00">ARG_TYPE</text>
</g>
<!-- el0x56551bc562d0&#45;&gt;el0x56551bc564b0 -->
<g id="edge39" class="edge">
<title>el0x56551bc562d0&#45;&gt;el0x56551bc564b0</title>
<path fill="none" stroke="black" d="M1019.82,-578.33C1041.42,-567.76 1070.74,-553.4 1094.11,-541.96"/>
<polygon fill="black" stroke="black" points="1095.95,-544.96 1103.4,-537.42 1092.88,-538.67 1095.95,-544.96"/>
</g>
<!-- el0x56551bc56350 -->
<g id="node41" class="node">
<title>el0x56551bc56350</title>
<ellipse fill="#adffbf" stroke="black" cx="1132.84" cy="-450" rx="59.59" ry="18"/>
<text text-anchor="middle" x="1132.84" y="-446.3" font-family="Times,serif" font-size="14.00">CALL_TYPE</text>
</g>
<!-- el0x56551bc564b0&#45;&gt;el0x56551bc56350 -->
<g id="edge38" class="edge">
<title>el0x56551bc564b0&#45;&gt;el0x56551bc56350</title>
<path fill="none" stroke="black" d="M1132.84,-503.7C1132.84,-495.98 1132.84,-486.71 1132.84,-478.11"/>
<polygon fill="black" stroke="black" points="1136.34,-478.1 1132.84,-468.1 1129.34,-478.1 1136.34,-478.1"/>
</g>
<!-- el0x56551bc56380 -->
<g id="node42" class="node">
<title>el0x56551bc56380</title>
<ellipse fill="#adffbf" stroke="black" cx="1054.84" cy="-378" rx="82.59" ry="18"/>
<text text-anchor="middle" x="1054.84" y="-374.3" font-family="Times,serif" font-size="14.00">ID_TYPE | factorial</text>
</g>
<!-- el0x56551bc56350&#45;&gt;el0x56551bc56380 -->
<g id="edge35" class="edge">
<title>el0x56551bc56350&#45;&gt;el0x56551bc56380</title>
<path fill="none" stroke="black" d="M1114.75,-432.76C1104.76,-423.79 1092.16,-412.49 1081.1,-402.56"/>
<polygon fill="black" stroke="black" points="1083.16,-399.71 1073.38,-395.63 1078.48,-404.92 1083.16,-399.71"/>
</g>
<!-- el0x56551bc56480 -->
<g id="node43" class="node">
<title>el0x56551bc56480</title>
<ellipse fill="#adffbf" stroke="black" cx="1210.84" cy="-378" rx="55.79" ry="18"/>
<text text-anchor="middle" x="1210.84" y="-374.3" font-family="Times,serif" font-size="14.00">ARG_TYPE</text>
</g>
<!-- el0x56551bc56350&#45;&gt;el0x56551bc56480 -->
<g id="edge37" class="edge">
<title>el0x56551bc56350&#45;&gt;el0x56551bc56480</title>
<path fill="none" stroke="black" d="M1150.94,-432.76C1161.17,-423.58 1174.14,-411.94 1185.39,-401.84"/>
<polygon fill="black" stroke="black" points="1187.75,-404.43 1192.85,-395.15 1183.07,-399.22 1187.75,-404.43"/>
</g>
<!-- el0x56551bc56450 -->
<g id="node44" class="node">
<title>el0x56551bc56450</title>
<ellipse fill="#adffbf" stroke="black" cx="1210.84" cy="-306" rx="57.69" ry="18"/>
<text text-anchor="middle" x="1210.84" y="-302.3" font-family="Times,serif" font-size="14.00">ID_TYPE | n</text>
</g>
<!-- el0x56551bc56480&#45;&gt;el0x56551bc56450 -->
<g id="edge36" class="edge">
<title>el0x56551bc56480&#45;&gt;el0x56551bc56450</title>
<path fill="none" stroke="black" d="M1210.84,-359.7C1210.84,-351.98 1210.84,-342.71 1210.84,-334.11"/>
<polygon fill="black" stroke="black" points="1214.34,-334.1 1210.84,-324.1 1207.34,-334.1 1214.34,-334.1"/>
</g>
</g>
</svg>
