<?xml version="1.0" encoding="UTF-8" standalone="no"?>
<!DOCTYPE svg PUBLIC "-//W3C//DTD SVG 1.1//EN"
 "http://www.w3.org/Graphics/SVG/1.1/DTD/svg11.dtd">
<!-- Generated by graphviz version 2.46.1 (0)
 -->
<!-- Title: structs Pages: 1 -->
<svg width="855pt" height="548pt"
 viewBox="0.00 0.00 855.04 548.00" xmlns="http://www.w3.org/2000/svg" xmlns:xlink="http://www.w3.org/1999/xlink">
<g id="graph0" class="graph" transform="scale(1 1) rotate(0) translate(4 544)">
<title>structs</title>
<polygon fill="white" stroke="transparent" points="-4,4 -4,-544 851.04,-544 851.04,4 -4,4"/>
<!-- el0x55c6ebad92a0 -->
<g id="node1" class="node">
<title>el0x55c6ebad92a0</title>
<ellipse fill="#adffbf" stroke="black" cx="261.19" cy="-522" rx="62.29" ry="18"/>
<text text-anchor="middle" x="261.19" y="-518.3" font-family="Times,serif" font-size="14.00">COMP_TYPE</text>
</g>
<!-- el0x55c6ebad92d0 -->
<g id="node2" class="node">
<title>el0x55c6ebad92d0</title>
<ellipse fill="#adffbf" stroke="black" cx="261.19" cy="-450" rx="57.69" ry="18"/>
<text text-anchor="middle" x="261.19" y="-446.3" font-family="Times,serif" font-size="14.00">STAT_TYPE</text>
</g>
<!-- el0x55c6ebad92a0&#45;&gt;el0x55c6ebad92d0 -->
<g id="edge17" class="edge">
<title>el0x55c6ebad92a0&#45;&gt;el0x55c6ebad92d0</title>
<path fill="none" stroke="black" d="M261.19,-503.7C261.19,-495.98 261.19,-486.71 261.19,-478.11"/>
<polygon fill="black" stroke="black" points="264.7,-478.1 261.19,-468.1 257.7,-478.1 264.7,-478.1"/>
</g>
<!-- el0x55c6ebad97b0 -->
<g id="node3" class="node">
<title>el0x55c6ebad97b0</title>
<ellipse fill="#adffbf" stroke="black" cx="192.19" cy="-378" rx="59.59" ry="18"/>
<text text-anchor="middle" x="192.19" y="-374.3" font-family="Times,serif" font-size="14.00">DECL_TYPE</text>
</g>
<!-- el0x55c6ebad92d0&#45;&gt;el0x55c6ebad97b0 -->
<g id="edge4" class="edge">
<title>el0x55c6ebad92d0&#45;&gt;el0x55c6ebad97b0</title>
<path fill="none" stroke="black" d="M244.84,-432.41C236.08,-423.52 225.13,-412.41 215.49,-402.63"/>
<polygon fill="black" stroke="black" points="217.94,-400.13 208.43,-395.47 212.96,-405.05 217.94,-400.13"/>
</g>
<!-- el0x55c6ebad9810 -->
<g id="node7" class="node">
<title>el0x55c6ebad9810</title>
<ellipse fill="#adffbf" stroke="black" cx="334.19" cy="-378" rx="57.69" ry="18"/>
<text text-anchor="middle" x="334.19" y="-374.3" font-family="Times,serif" font-size="14.00">STAT_TYPE</text>
</g>
<!-- el0x55c6ebad92d0&#45;&gt;el0x55c6ebad9810 -->
<g id="edge16" class="edge">
<title>el0x55c6ebad92d0&#45;&gt;el0x55c6ebad9810</title>
<path fill="none" stroke="black" d="M278.13,-432.76C287.55,-423.73 299.44,-412.33 309.85,-402.35"/>
<polygon fill="black" stroke="black" points="312.31,-404.84 317.1,-395.39 307.46,-399.78 312.31,-404.84"/>
</g>
<!-- el0x55c6ebad97e0 -->
<g id="node4" class="node">
<title>el0x55c6ebad97e0</title>
<ellipse fill="#adffbf" stroke="black" cx="57.19" cy="-306" rx="57.39" ry="18"/>
<text text-anchor="middle" x="57.19" y="-302.3" font-family="Times,serif" font-size="14.00">ID_TYPE | a</text>
</g>
<!-- el0x55c6ebad97b0&#45;&gt;el0x55c6ebad97e0 -->
<g id="edge1" class="edge">
<title>el0x55c6ebad97b0&#45;&gt;el0x55c6ebad97e0</title>
<path fill="none" stroke="black" d="M163.56,-362.15C143.52,-351.76 116.53,-337.77 94.76,-326.48"/>
<polygon fill="black" stroke="black" points="96.27,-323.32 85.78,-321.82 93.05,-329.53 96.27,-323.32"/>
</g>
<!-- el0x55c6ebad9750 -->
<g id="node5" class="node">
<title>el0x55c6ebad9750</title>
<ellipse fill="#adffbf" stroke="black" cx="192.19" cy="-306" rx="59.59" ry="18"/>
<text text-anchor="middle" x="192.19" y="-302.3" font-family="Times,serif" font-size="14.00">CALL_TYPE</text>
</g>
<!-- el0x55c6ebad97b0&#45;&gt;el0x55c6ebad9750 -->
<g id="edge3" class="edge">
<title>el0x55c6ebad97b0&#45;&gt;el0x55c6ebad9750</title>
<path fill="none" stroke="black" d="M192.19,-359.7C192.19,-351.98 192.19,-342.71 192.19,-334.11"/>
<polygon fill="black" stroke="black" points="195.7,-334.1 192.19,-324.1 188.7,-334.1 195.7,-334.1"/>
</g>
<!-- el0x55c6ebad9780 -->
<g id="node6" class="node">
<title>el0x55c6ebad9780</title>
<ellipse fill="#adffbf" stroke="black" cx="147.19" cy="-234" rx="71.49" ry="18"/>
<text text-anchor="middle" x="147.19" y="-230.3" font-family="Times,serif" font-size="14.00">ID_TYPE | input</text>
</g>
<!-- el0x55c6ebad9750&#45;&gt;el0x55c6ebad9780 -->
<g id="edge2" class="edge">
<title>el0x55c6ebad9750&#45;&gt;el0x55c6ebad9780</title>
<path fill="none" stroke="black" d="M181.3,-288.05C176.07,-279.92 169.69,-270 163.87,-260.94"/>
<polygon fill="black" stroke="black" points="166.65,-258.79 158.3,-252.28 160.76,-262.58 166.65,-258.79"/>
</g>
<!-- el0x55c6ebad98e0 -->
<g id="node8" class="node">
<title>el0x55c6ebad98e0</title>
<ellipse fill="#adffbf" stroke="black" cx="334.19" cy="-306" rx="59.59" ry="18"/>
<text text-anchor="middle" x="334.19" y="-302.3" font-family="Times,serif" font-size="14.00">DECL_TYPE</text>
</g>
<!-- el0x55c6ebad9810&#45;&gt;el0x55c6ebad98e0 -->
<g id="edge8" class="edge">
<title>el0x55c6ebad9810&#45;&gt;el0x55c6ebad98e0</title>
<path fill="none" stroke="black" d="M334.19,-359.7C334.19,-351.98 334.19,-342.71 334.19,-334.11"/>
<polygon fill="black" stroke="black" points="337.7,-334.1 334.19,-324.1 330.7,-334.1 337.7,-334.1"/>
</g>
<!-- el0x55c6ebad9940 -->
<g id="node12" class="node">
<title>el0x55c6ebad9940</title>
<ellipse fill="#adffbf" stroke="black" cx="549.19" cy="-306" rx="57.69" ry="18"/>
<text text-anchor="middle" x="549.19" y="-302.3" font-family="Times,serif" font-size="14.00">STAT_TYPE</text>
</g>
<!-- el0x55c6ebad9810&#45;&gt;el0x55c6ebad9940 -->
<g id="edge15" class="edge">
<title>el0x55c6ebad9810&#45;&gt;el0x55c6ebad9940</title>
<path fill="none" stroke="black" d="M372.63,-364.49C408.6,-352.78 462.45,-335.24 501.22,-322.62"/>
<polygon fill="black" stroke="black" points="502.3,-325.95 510.73,-319.52 500.14,-319.29 502.3,-325.95"/>
</g>
<!-- el0x55c6ebad9910 -->
<g id="node9" class="node">
<title>el0x55c6ebad9910</title>
<ellipse fill="#adffbf" stroke="black" cx="294.19" cy="-234" rx="57.69" ry="18"/>
<text text-anchor="middle" x="294.19" y="-230.3" font-family="Times,serif" font-size="14.00">ID_TYPE | b</text>
</g>
<!-- el0x55c6ebad98e0&#45;&gt;el0x55c6ebad9910 -->
<g id="edge5" class="edge">
<title>el0x55c6ebad98e0&#45;&gt;el0x55c6ebad9910</title>
<path fill="none" stroke="black" d="M324.51,-288.05C319.8,-279.8 314.02,-269.7 308.79,-260.54"/>
<polygon fill="black" stroke="black" points="311.79,-258.73 303.79,-251.79 305.71,-262.21 311.79,-258.73"/>
</g>
<!-- el0x55c6ebad9880 -->
<g id="node10" class="node">
<title>el0x55c6ebad9880</title>
<ellipse fill="#adffbf" stroke="black" cx="430.19" cy="-234" rx="59.59" ry="18"/>
<text text-anchor="middle" x="430.19" y="-230.3" font-family="Times,serif" font-size="14.00">CALL_TYPE</text>
</g>
<!-- el0x55c6ebad98e0&#45;&gt;el0x55c6ebad9880 -->
<g id="edge7" class="edge">
<title>el0x55c6ebad98e0&#45;&gt;el0x55c6ebad9880</title>
<path fill="none" stroke="black" d="M355.98,-289.12C369.11,-279.54 386.02,-267.21 400.38,-256.74"/>
<polygon fill="black" stroke="black" points="402.48,-259.54 408.5,-250.82 398.36,-253.88 402.48,-259.54"/>
</g>
<!-- el0x55c6ebad98b0 -->
<g id="node11" class="node">
<title>el0x55c6ebad98b0</title>
<ellipse fill="#adffbf" stroke="black" cx="420.19" cy="-162" rx="71.49" ry="18"/>
<text text-anchor="middle" x="420.19" y="-158.3" font-family="Times,serif" font-size="14.00">ID_TYPE | input</text>
</g>
<!-- el0x55c6ebad9880&#45;&gt;el0x55c6ebad98b0 -->
<g id="edge6" class="edge">
<title>el0x55c6ebad9880&#45;&gt;el0x55c6ebad98b0</title>
<path fill="none" stroke="black" d="M427.72,-215.7C426.62,-207.98 425.3,-198.71 424.07,-190.11"/>
<polygon fill="black" stroke="black" points="427.52,-189.51 422.64,-180.1 420.59,-190.5 427.52,-189.51"/>
</g>
<!-- el0x55c6ebad99b0 -->
<g id="node13" class="node">
<title>el0x55c6ebad99b0</title>
<ellipse fill="#adffbf" stroke="black" cx="579.19" cy="-234" rx="59.59" ry="18"/>
<text text-anchor="middle" x="579.19" y="-230.3" font-family="Times,serif" font-size="14.00">CALL_TYPE</text>
</g>
<!-- el0x55c6ebad9940&#45;&gt;el0x55c6ebad99b0 -->
<g id="edge14" class="edge">
<title>el0x55c6ebad9940&#45;&gt;el0x55c6ebad99b0</title>
<path fill="none" stroke="black" d="M556.46,-288.05C559.87,-280.09 564.02,-270.41 567.83,-261.51"/>
<polygon fill="black" stroke="black" points="571.07,-262.85 571.79,-252.28 564.63,-260.09 571.07,-262.85"/>
</g>
<!-- el0x55c6ebad99e0 -->
<g id="node14" class="node">
<title>el0x55c6ebad99e0</title>
<ellipse fill="#adffbf" stroke="black" cx="579.19" cy="-162" rx="69.59" ry="18"/>
<text text-anchor="middle" x="579.19" y="-158.3" font-family="Times,serif" font-size="14.00">ID_TYPE | print</text>
</g>
<!-- el0x55c6ebad99b0&#45;&gt;el0x55c6ebad99e0 -->
<g id="edge9" class="edge">
<title>el0x55c6ebad99b0&#45;&gt;el0x55c6ebad99e0</title>
<path fill="none" stroke="black" d="M579.19,-215.7C579.19,-207.98 579.19,-198.71 579.19,-190.11"/>
<polygon fill="black" stroke="black" points="582.7,-190.1 579.19,-180.1 575.7,-190.1 582.7,-190.1"/>
</g>
<!-- el0x55c6ebad9be0 -->
<g id="node15" class="node">
<title>el0x55c6ebad9be0</title>
<ellipse fill="#adffbf" stroke="black" cx="722.19" cy="-162" rx="55.79" ry="18"/>
<text text-anchor="middle" x="722.19" y="-158.3" font-family="Times,serif" font-size="14.00">ARG_TYPE</text>
</g>
<!-- el0x55c6ebad99b0&#45;&gt;el0x55c6ebad9be0 -->
<g id="edge13" class="edge">
<title>el0x55c6ebad99b0&#45;&gt;el0x55c6ebad9be0</title>
<path fill="none" stroke="black" d="M609.17,-218.33C630.77,-207.76 660.09,-193.4 683.46,-181.96"/>
<polygon fill="black" stroke="black" points="685.3,-184.96 692.75,-177.42 682.23,-178.67 685.3,-184.96"/>
</g>
<!-- el0x55c6ebad9ae0 -->
<g id="node16" class="node">
<title>el0x55c6ebad9ae0</title>
<ellipse fill="#adffbf" stroke="black" cx="722.19" cy="-90" rx="74.99" ry="18"/>
<text text-anchor="middle" x="722.19" y="-86.3" font-family="Times,serif" font-size="14.00">MATH_TYPE | +</text>
</g>
<!-- el0x55c6ebad9be0&#45;&gt;el0x55c6ebad9ae0 -->
<g id="edge12" class="edge">
<title>el0x55c6ebad9be0&#45;&gt;el0x55c6ebad9ae0</title>
<path fill="none" stroke="black" d="M722.19,-143.7C722.19,-135.98 722.19,-126.71 722.19,-118.11"/>
<polygon fill="black" stroke="black" points="725.7,-118.1 722.19,-108.1 718.7,-118.1 725.7,-118.1"/>
</g>
<!-- el0x55c6ebad9ab0 -->
<g id="node17" class="node">
<title>el0x55c6ebad9ab0</title>
<ellipse fill="#adffbf" stroke="black" cx="656.19" cy="-18" rx="57.39" ry="18"/>
<text text-anchor="middle" x="656.19" y="-14.3" font-family="Times,serif" font-size="14.00">ID_TYPE | a</text>
</g>
<!-- el0x55c6ebad9ae0&#45;&gt;el0x55c6ebad9ab0 -->
<g id="edge10" class="edge">
<title>el0x55c6ebad9ae0&#45;&gt;el0x55c6ebad9ab0</title>
<path fill="none" stroke="black" d="M706.22,-72.05C698.03,-63.37 687.92,-52.64 678.93,-43.11"/>
<polygon fill="black" stroke="black" points="681.43,-40.66 672.02,-35.79 676.34,-45.47 681.43,-40.66"/>
</g>
<!-- el0x55c6ebad9bb0 -->
<g id="node18" class="node">
<title>el0x55c6ebad9bb0</title>
<ellipse fill="#adffbf" stroke="black" cx="789.19" cy="-18" rx="57.69" ry="18"/>
<text text-anchor="middle" x="789.19" y="-14.3" font-family="Times,serif" font-size="14.00">ID_TYPE | b</text>
</g>
<!-- el0x55c6ebad9ae0&#45;&gt;el0x55c6ebad9bb0 -->
<g id="edge11" class="edge">
<title>el0x55c6ebad9ae0&#45;&gt;el0x55c6ebad9bb0</title>
<path fill="none" stroke="black" d="M738.41,-72.05C746.73,-63.37 756.99,-52.64 766.11,-43.11"/>
<polygon fill="black" stroke="black" points="768.74,-45.43 773.13,-35.79 763.68,-40.59 768.74,-45.43"/>
</g>
</g>
</svg>
