<?xml version="1.0" encoding="UTF-8" standalone="no"?>
<!DOCTYPE svg PUBLIC "-//W3C//DTD SVG 1.1//EN"
 "http://www.w3.org/Graphics/SVG/1.1/DTD/svg11.dtd">
<!-- Generated by graphviz version 2.46.1 (0)
 -->
<!-- Title: structs Pages: 1 -->
<svg width="1701pt" height="980pt"
 viewBox="0.00 0.00 1701.24 980.00" xmlns="http://www.w3.org/2000/svg" xmlns:xlink="http://www.w3.org/1999/xlink">
<g id="graph0" class="graph" transform="scale(1 1) rotate(0) translate(4 976)">
<title>structs</title>
<polygon fill="white" stroke="transparent" points="-4,4 -4,-976 1697.24,-976 1697.24,4 -4,4"/>
<!-- el0x5607b9d13a50 -->
<g id="node1" class="node">
<title>el0x5607b9d13a50</title>
<ellipse fill="#adffbf" stroke="black" cx="857.84" cy="-954" rx="62.29" ry="18"/>
<text text-anchor="middle" x="857.84" y="-950.3" font-family="Times,serif" font-size="14.00">COMP_TYPE</text>
</g>
<!-- el0x5607b9d13a80 -->
<g id="node2" class="node">
<title>el0x5607b9d13a80</title>
<ellipse fill="#adffbf" stroke="black" cx="857.84" cy="-882" rx="57.69" ry="18"/>
<text text-anchor="middle" x="857.84" y="-878.3" font-family="Times,serif" font-size="14.00">STAT_TYPE</text>
</g>
<!-- el0x5607b9d13a50&#45;&gt;el0x5607b9d13a80 -->
<g id="edge56" class="edge">
<title>el0x5607b9d13a50&#45;&gt;el0x5607b9d13a80</title>
<path fill="none" stroke="black" d="M857.84,-935.7C857.84,-927.98 857.84,-918.71 857.84,-910.11"/>
<polygon fill="black" stroke="black" points="861.34,-910.1 857.84,-900.1 854.34,-910.1 861.34,-910.1"/>
</g>
<!-- el0x5607b9d13ad0 -->
<g id="node3" class="node">
<title>el0x5607b9d13ad0</title>
<ellipse fill="#adffbf" stroke="black" cx="798.84" cy="-810" rx="43.59" ry="18"/>
<text text-anchor="middle" x="798.84" y="-806.3" font-family="Times,serif" font-size="14.00">D_TYPE</text>
</g>
<!-- el0x5607b9d13a80&#45;&gt;el0x5607b9d13ad0 -->
<g id="edge32" class="edge">
<title>el0x5607b9d13a80&#45;&gt;el0x5607b9d13ad0</title>
<path fill="none" stroke="black" d="M843.86,-864.41C836.51,-855.69 827.37,-844.85 819.25,-835.21"/>
<polygon fill="black" stroke="black" points="821.85,-832.86 812.73,-827.47 816.5,-837.37 821.85,-832.86"/>
</g>
<!-- el0x5607b9d14980 -->
<g id="node35" class="node">
<title>el0x5607b9d14980</title>
<ellipse fill="#adffbf" stroke="black" cx="937.84" cy="-810" rx="57.69" ry="18"/>
<text text-anchor="middle" x="937.84" y="-806.3" font-family="Times,serif" font-size="14.00">STAT_TYPE</text>
</g>
<!-- el0x5607b9d13a80&#45;&gt;el0x5607b9d14980 -->
<g id="edge55" class="edge">
<title>el0x5607b9d13a80&#45;&gt;el0x5607b9d14980</title>
<path fill="none" stroke="black" d="M876.4,-864.76C886.9,-855.58 900.2,-843.94 911.74,-833.84"/>
<polygon fill="black" stroke="black" points="914.17,-836.37 919.39,-827.15 909.56,-831.1 914.17,-836.37"/>
</g>
<!-- el0x5607b9d13b00 -->
<g id="node4" class="node">
<title>el0x5607b9d13b00</title>
<ellipse fill="#adffbf" stroke="black" cx="704.84" cy="-738" rx="82.59" ry="18"/>
<text text-anchor="middle" x="704.84" y="-734.3" font-family="Times,serif" font-size="14.00">ID_TYPE | factorial</text>
</g>
<!-- el0x5607b9d13ad0&#45;&gt;el0x5607b9d13b00 -->
<g id="edge31" class="edge">
<title>el0x5607b9d13ad0&#45;&gt;el0x5607b9d13b00</title>
<path fill="none" stroke="black" d="M778.45,-793.81C765.72,-784.33 749.11,-771.96 734.89,-761.37"/>
<polygon fill="black" stroke="black" points="736.95,-758.55 726.84,-755.38 732.77,-764.16 736.95,-758.55"/>
</g>
<!-- el0x5607b9d14060 -->
<g id="node5" class="node">
<title>el0x5607b9d14060</title>
<ellipse fill="#adffbf" stroke="black" cx="566.84" cy="-666" rx="62.29" ry="18"/>
<text text-anchor="middle" x="566.84" y="-662.3" font-family="Times,serif" font-size="14.00">COMP_TYPE</text>
</g>
<!-- el0x5607b9d13b00&#45;&gt;el0x5607b9d14060 -->
<g id="edge29" class="edge">
<title>el0x5607b9d13b00&#45;&gt;el0x5607b9d14060</title>
<path fill="none" stroke="black" d="M673.87,-721.29C653.57,-710.99 626.88,-697.45 605.23,-686.47"/>
<polygon fill="black" stroke="black" points="606.79,-683.34 596.29,-681.94 603.63,-689.58 606.79,-683.34"/>
</g>
<!-- el0x5607b9d14030 -->
<g id="node34" class="node">
<title>el0x5607b9d14030</title>
<ellipse fill="#adffbf" stroke="black" cx="704.84" cy="-666" rx="57.69" ry="18"/>
<text text-anchor="middle" x="704.84" y="-662.3" font-family="Times,serif" font-size="14.00">ID_TYPE | n</text>
</g>
<!-- el0x5607b9d13b00&#45;&gt;el0x5607b9d14030 -->
<g id="edge30" class="edge">
<title>el0x5607b9d13b00&#45;&gt;el0x5607b9d14030</title>
<path fill="none" stroke="black" d="M704.84,-719.7C704.84,-711.98 704.84,-702.71 704.84,-694.11"/>
<polygon fill="black" stroke="black" points="708.34,-694.1 704.84,-684.1 701.34,-694.1 708.34,-694.1"/>
</g>
<!-- el0x5607b9d14090 -->
<g id="node6" class="node">
<title>el0x5607b9d14090</title>
<ellipse fill="#adffbf" stroke="black" cx="566.84" cy="-594" rx="57.69" ry="18"/>
<text text-anchor="middle" x="566.84" y="-590.3" font-family="Times,serif" font-size="14.00">STAT_TYPE</text>
</g>
<!-- el0x5607b9d14060&#45;&gt;el0x5607b9d14090 -->
<g id="edge28" class="edge">
<title>el0x5607b9d14060&#45;&gt;el0x5607b9d14090</title>
<path fill="none" stroke="black" d="M566.84,-647.7C566.84,-639.98 566.84,-630.71 566.84,-622.11"/>
<polygon fill="black" stroke="black" points="570.34,-622.1 566.84,-612.1 563.34,-622.1 570.34,-622.1"/>
</g>
<!-- el0x5607b9d142b0 -->
<g id="node7" class="node">
<title>el0x5607b9d142b0</title>
<ellipse fill="#adffbf" stroke="black" cx="364.84" cy="-522" rx="61.99" ry="18"/>
<text text-anchor="middle" x="364.84" y="-518.3" font-family="Times,serif" font-size="14.00">COND_TYPE</text>
</g>
<!-- el0x5607b9d14090&#45;&gt;el0x5607b9d142b0 -->
<g id="edge9" class="edge">
<title>el0x5607b9d14090&#45;&gt;el0x5607b9d142b0</title>
<path fill="none" stroke="black" d="M529.79,-580.16C496.9,-568.76 448.62,-552.03 412.79,-539.61"/>
<polygon fill="black" stroke="black" points="413.63,-536.2 403.03,-536.23 411.34,-542.81 413.63,-536.2"/>
</g>
<!-- el0x5607b9d14310 -->
<g id="node16" class="node">
<title>el0x5607b9d14310</title>
<ellipse fill="#adffbf" stroke="black" cx="600.84" cy="-522" rx="57.69" ry="18"/>
<text text-anchor="middle" x="600.84" y="-518.3" font-family="Times,serif" font-size="14.00">STAT_TYPE</text>
</g>
<!-- el0x5607b9d14090&#45;&gt;el0x5607b9d14310 -->
<g id="edge27" class="edge">
<title>el0x5607b9d14090&#45;&gt;el0x5607b9d14310</title>
<path fill="none" stroke="black" d="M575.08,-576.05C578.94,-568.09 583.65,-558.41 587.97,-549.51"/>
<polygon fill="black" stroke="black" points="591.23,-550.8 592.45,-540.28 584.94,-547.74 591.23,-550.8"/>
</g>
<!-- el0x5607b9d14190 -->
<g id="node8" class="node">
<title>el0x5607b9d14190</title>
<ellipse fill="#adffbf" stroke="black" cx="208.84" cy="-450" rx="79.89" ry="18"/>
<text text-anchor="middle" x="208.84" y="-446.3" font-family="Times,serif" font-size="14.00">MATH_TYPE | &lt;=</text>
</g>
<!-- el0x5607b9d142b0&#45;&gt;el0x5607b9d14190 -->
<g id="edge3" class="edge">
<title>el0x5607b9d142b0&#45;&gt;el0x5607b9d14190</title>
<path fill="none" stroke="black" d="M332.52,-506.5C309.33,-496.09 277.83,-481.96 252.43,-470.56"/>
<polygon fill="black" stroke="black" points="253.57,-467.23 243.02,-466.33 250.71,-473.62 253.57,-467.23"/>
</g>
<!-- el0x5607b9d142e0 -->
<g id="node11" class="node">
<title>el0x5607b9d142e0</title>
<ellipse fill="#adffbf" stroke="black" cx="364.84" cy="-450" rx="55.79" ry="18"/>
<text text-anchor="middle" x="364.84" y="-446.3" font-family="Times,serif" font-size="14.00">IFEL_TYPE</text>
</g>
<!-- el0x5607b9d142b0&#45;&gt;el0x5607b9d142e0 -->
<g id="edge8" class="edge">
<title>el0x5607b9d142b0&#45;&gt;el0x5607b9d142e0</title>
<path fill="none" stroke="black" d="M364.84,-503.7C364.84,-495.98 364.84,-486.71 364.84,-478.11"/>
<polygon fill="black" stroke="black" points="368.34,-478.1 364.84,-468.1 361.34,-478.1 368.34,-478.1"/>
</g>
<!-- el0x5607b9d14160 -->
<g id="node9" class="node">
<title>el0x5607b9d14160</title>
<ellipse fill="#adffbf" stroke="black" cx="57.84" cy="-378" rx="57.69" ry="18"/>
<text text-anchor="middle" x="57.84" y="-374.3" font-family="Times,serif" font-size="14.00">ID_TYPE | n</text>
</g>
<!-- el0x5607b9d14190&#45;&gt;el0x5607b9d14160 -->
<g id="edge1" class="edge">
<title>el0x5607b9d14190&#45;&gt;el0x5607b9d14160</title>
<path fill="none" stroke="black" d="M175.33,-433.46C152.48,-422.87 122.09,-408.78 97.94,-397.59"/>
<polygon fill="black" stroke="black" points="99.24,-394.33 88.69,-393.3 96.29,-400.68 99.24,-394.33"/>
</g>
<!-- el0x5607b9d141c0 -->
<g id="node10" class="node">
<title>el0x5607b9d141c0</title>
<ellipse fill="#adffbf" stroke="black" cx="208.84" cy="-378" rx="75.29" ry="18"/>
<text text-anchor="middle" x="208.84" y="-374.3" font-family="Times,serif" font-size="14.00">NUMB_TYPE | 1</text>
</g>
<!-- el0x5607b9d14190&#45;&gt;el0x5607b9d141c0 -->
<g id="edge2" class="edge">
<title>el0x5607b9d14190&#45;&gt;el0x5607b9d141c0</title>
<path fill="none" stroke="black" d="M208.84,-431.7C208.84,-423.98 208.84,-414.71 208.84,-406.11"/>
<polygon fill="black" stroke="black" points="212.34,-406.1 208.84,-396.1 205.34,-406.1 212.34,-406.1"/>
</g>
<!-- el0x5607b9d141f0 -->
<g id="node12" class="node">
<title>el0x5607b9d141f0</title>
<ellipse fill="#adffbf" stroke="black" cx="364.84" cy="-378" rx="62.29" ry="18"/>
<text text-anchor="middle" x="364.84" y="-374.3" font-family="Times,serif" font-size="14.00">COMP_TYPE</text>
</g>
<!-- el0x5607b9d142e0&#45;&gt;el0x5607b9d141f0 -->
<g id="edge7" class="edge">
<title>el0x5607b9d142e0&#45;&gt;el0x5607b9d141f0</title>
<path fill="none" stroke="black" d="M364.84,-431.7C364.84,-423.98 364.84,-414.71 364.84,-406.11"/>
<polygon fill="black" stroke="black" points="368.34,-406.1 364.84,-396.1 361.34,-406.1 368.34,-406.1"/>
</g>
<!-- el0x5607b9d14220 -->
<g id="node13" class="node">
<title>el0x5607b9d14220</title>
<ellipse fill="#adffbf" stroke="black" cx="364.84" cy="-306" rx="57.69" ry="18"/>
<text text-anchor="middle" x="364.84" y="-302.3" font-family="Times,serif" font-size="14.00">STAT_TYPE</text>
</g>
<!-- el0x5607b9d141f0&#45;&gt;el0x5607b9d14220 -->
<g id="edge6" class="edge">
<title>el0x5607b9d141f0&#45;&gt;el0x5607b9d14220</title>
<path fill="none" stroke="black" d="M364.84,-359.7C364.84,-351.98 364.84,-342.71 364.84,-334.11"/>
<polygon fill="black" stroke="black" points="368.34,-334.1 364.84,-324.1 361.34,-334.1 368.34,-334.1"/>
</g>
<!-- el0x5607b9d14280 -->
<g id="node14" class="node">
<title>el0x5607b9d14280</title>
<ellipse fill="#adffbf" stroke="black" cx="364.84" cy="-234" rx="59.59" ry="18"/>
<text text-anchor="middle" x="364.84" y="-230.3" font-family="Times,serif" font-size="14.00">JUMP_TYPE</text>
</g>
<!-- el0x5607b9d14220&#45;&gt;el0x5607b9d14280 -->
<g id="edge5" class="edge">
<title>el0x5607b9d14220&#45;&gt;el0x5607b9d14280</title>
<path fill="none" stroke="black" d="M364.84,-287.7C364.84,-279.98 364.84,-270.71 364.84,-262.11"/>
<polygon fill="black" stroke="black" points="368.34,-262.1 364.84,-252.1 361.34,-262.1 368.34,-262.1"/>
</g>
<!-- el0x5607b9d14250 -->
<g id="node15" class="node">
<title>el0x5607b9d14250</title>
<ellipse fill="#adffbf" stroke="black" cx="364.84" cy="-162" rx="75.29" ry="18"/>
<text text-anchor="middle" x="364.84" y="-158.3" font-family="Times,serif" font-size="14.00">NUMB_TYPE | 1</text>
</g>
<!-- el0x5607b9d14280&#45;&gt;el0x5607b9d14250 -->
<g id="edge4" class="edge">
<title>el0x5607b9d14280&#45;&gt;el0x5607b9d14250</title>
<path fill="none" stroke="black" d="M364.84,-215.7C364.84,-207.98 364.84,-198.71 364.84,-190.11"/>
<polygon fill="black" stroke="black" points="368.34,-190.1 364.84,-180.1 361.34,-190.1 368.34,-190.1"/>
</g>
<!-- el0x5607b9d14430 -->
<g id="node17" class="node">
<title>el0x5607b9d14430</title>
<ellipse fill="#adffbf" stroke="black" cx="600.84" cy="-450" rx="59.59" ry="18"/>
<text text-anchor="middle" x="600.84" y="-446.3" font-family="Times,serif" font-size="14.00">DECL_TYPE</text>
</g>
<!-- el0x5607b9d14310&#45;&gt;el0x5607b9d14430 -->
<g id="edge12" class="edge">
<title>el0x5607b9d14310&#45;&gt;el0x5607b9d14430</title>
<path fill="none" stroke="black" d="M600.84,-503.7C600.84,-495.98 600.84,-486.71 600.84,-478.11"/>
<polygon fill="black" stroke="black" points="604.34,-478.1 600.84,-468.1 597.34,-478.1 604.34,-478.1"/>
</g>
<!-- el0x5607b9d14490 -->
<g id="node20" class="node">
<title>el0x5607b9d14490</title>
<ellipse fill="#adffbf" stroke="black" cx="772.84" cy="-450" rx="57.69" ry="18"/>
<text text-anchor="middle" x="772.84" y="-446.3" font-family="Times,serif" font-size="14.00">STAT_TYPE</text>
</g>
<!-- el0x5607b9d14310&#45;&gt;el0x5607b9d14490 -->
<g id="edge26" class="edge">
<title>el0x5607b9d14310&#45;&gt;el0x5607b9d14490</title>
<path fill="none" stroke="black" d="M634.42,-507.34C661.56,-496.29 699.96,-480.66 729.44,-468.66"/>
<polygon fill="black" stroke="black" points="731.12,-471.76 739.06,-464.75 728.48,-465.28 731.12,-471.76"/>
</g>
<!-- el0x5607b9d14460 -->
<g id="node18" class="node">
<title>el0x5607b9d14460</title>
<ellipse fill="#adffbf" stroke="black" cx="502.84" cy="-378" rx="57.69" ry="18"/>
<text text-anchor="middle" x="502.84" y="-374.3" font-family="Times,serif" font-size="14.00">ID_TYPE | b</text>
</g>
<!-- el0x5607b9d14430&#45;&gt;el0x5607b9d14460 -->
<g id="edge10" class="edge">
<title>el0x5607b9d14430&#45;&gt;el0x5607b9d14460</title>
<path fill="none" stroke="black" d="M578.61,-433.12C565.2,-423.54 547.94,-411.21 533.28,-400.74"/>
<polygon fill="black" stroke="black" points="535.17,-397.79 524.99,-394.82 531.1,-403.48 535.17,-397.79"/>
</g>
<!-- el0x5607b9d14400 -->
<g id="node19" class="node">
<title>el0x5607b9d14400</title>
<ellipse fill="#adffbf" stroke="black" cx="636.84" cy="-378" rx="57.69" ry="18"/>
<text text-anchor="middle" x="636.84" y="-374.3" font-family="Times,serif" font-size="14.00">ID_TYPE | n</text>
</g>
<!-- el0x5607b9d14430&#45;&gt;el0x5607b9d14400 -->
<g id="edge11" class="edge">
<title>el0x5607b9d14430&#45;&gt;el0x5607b9d14400</title>
<path fill="none" stroke="black" d="M609.56,-432.05C613.7,-424.01 618.74,-414.2 623.36,-405.23"/>
<polygon fill="black" stroke="black" points="626.5,-406.77 627.96,-396.28 620.27,-403.57 626.5,-406.77"/>
</g>
<!-- el0x5607b9d147c0 -->
<g id="node21" class="node">
<title>el0x5607b9d147c0</title>
<ellipse fill="#adffbf" stroke="black" cx="772.84" cy="-378" rx="59.59" ry="18"/>
<text text-anchor="middle" x="772.84" y="-374.3" font-family="Times,serif" font-size="14.00">ASSG_TYPE</text>
</g>
<!-- el0x5607b9d14490&#45;&gt;el0x5607b9d147c0 -->
<g id="edge22" class="edge">
<title>el0x5607b9d14490&#45;&gt;el0x5607b9d147c0</title>
<path fill="none" stroke="black" d="M772.84,-431.7C772.84,-423.98 772.84,-414.71 772.84,-406.11"/>
<polygon fill="black" stroke="black" points="776.34,-406.1 772.84,-396.1 769.34,-406.1 776.34,-406.1"/>
</g>
<!-- el0x5607b9d14820 -->
<g id="node31" class="node">
<title>el0x5607b9d14820</title>
<ellipse fill="#adffbf" stroke="black" cx="916.84" cy="-378" rx="57.69" ry="18"/>
<text text-anchor="middle" x="916.84" y="-374.3" font-family="Times,serif" font-size="14.00">STAT_TYPE</text>
</g>
<!-- el0x5607b9d14490&#45;&gt;el0x5607b9d14820 -->
<g id="edge25" class="edge">
<title>el0x5607b9d14490&#45;&gt;el0x5607b9d14820</title>
<path fill="none" stroke="black" d="M802.68,-434.5C824.5,-423.89 854.29,-409.41 877.97,-397.9"/>
<polygon fill="black" stroke="black" points="879.58,-401.01 887.05,-393.49 876.52,-394.71 879.58,-401.01"/>
</g>
<!-- el0x5607b9d147f0 -->
<g id="node22" class="node">
<title>el0x5607b9d147f0</title>
<ellipse fill="#adffbf" stroke="black" cx="623.84" cy="-306" rx="57.69" ry="18"/>
<text text-anchor="middle" x="623.84" y="-302.3" font-family="Times,serif" font-size="14.00">ID_TYPE | b</text>
</g>
<!-- el0x5607b9d147c0&#45;&gt;el0x5607b9d147f0 -->
<g id="edge13" class="edge">
<title>el0x5607b9d147c0&#45;&gt;el0x5607b9d147f0</title>
<path fill="none" stroke="black" d="M741.97,-362.5C719.22,-351.81 688.09,-337.18 663.5,-325.63"/>
<polygon fill="black" stroke="black" points="664.96,-322.45 654.42,-321.37 661.99,-328.79 664.96,-322.45"/>
</g>
<!-- el0x5607b9d145b0 -->
<g id="node23" class="node">
<title>el0x5607b9d145b0</title>
<ellipse fill="#adffbf" stroke="black" cx="772.84" cy="-306" rx="73.39" ry="18"/>
<text text-anchor="middle" x="772.84" y="-302.3" font-family="Times,serif" font-size="14.00">MATH_TYPE | *</text>
</g>
<!-- el0x5607b9d147c0&#45;&gt;el0x5607b9d145b0 -->
<g id="edge21" class="edge">
<title>el0x5607b9d147c0&#45;&gt;el0x5607b9d145b0</title>
<path fill="none" stroke="black" d="M772.84,-359.7C772.84,-351.98 772.84,-342.71 772.84,-334.11"/>
<polygon fill="black" stroke="black" points="776.34,-334.1 772.84,-324.1 769.34,-334.1 776.34,-334.1"/>
</g>
<!-- el0x5607b9d14580 -->
<g id="node24" class="node">
<title>el0x5607b9d14580</title>
<ellipse fill="#adffbf" stroke="black" cx="643.84" cy="-234" rx="57.69" ry="18"/>
<text text-anchor="middle" x="643.84" y="-230.3" font-family="Times,serif" font-size="14.00">ID_TYPE | b</text>
</g>
<!-- el0x5607b9d145b0&#45;&gt;el0x5607b9d14580 -->
<g id="edge14" class="edge">
<title>el0x5607b9d145b0&#45;&gt;el0x5607b9d14580</title>
<path fill="none" stroke="black" d="M743.89,-289.29C725.08,-279.08 700.41,-265.69 680.27,-254.77"/>
<polygon fill="black" stroke="black" points="681.83,-251.63 671.37,-249.94 678.49,-257.78 681.83,-251.63"/>
</g>
<!-- el0x5607b9d14600 -->
<g id="node25" class="node">
<title>el0x5607b9d14600</title>
<ellipse fill="#adffbf" stroke="black" cx="779.84" cy="-234" rx="59.59" ry="18"/>
<text text-anchor="middle" x="779.84" y="-230.3" font-family="Times,serif" font-size="14.00">CALL_TYPE</text>
</g>
<!-- el0x5607b9d145b0&#45;&gt;el0x5607b9d14600 -->
<g id="edge20" class="edge">
<title>el0x5607b9d145b0&#45;&gt;el0x5607b9d14600</title>
<path fill="none" stroke="black" d="M774.58,-287.7C775.35,-279.98 776.27,-270.71 777.13,-262.11"/>
<polygon fill="black" stroke="black" points="780.62,-262.4 778.13,-252.1 773.66,-261.71 780.62,-262.4"/>
</g>
<!-- el0x5607b9d14630 -->
<g id="node26" class="node">
<title>el0x5607b9d14630</title>
<ellipse fill="#adffbf" stroke="black" cx="701.84" cy="-162" rx="82.59" ry="18"/>
<text text-anchor="middle" x="701.84" y="-158.3" font-family="Times,serif" font-size="14.00">ID_TYPE | factorial</text>
</g>
<!-- el0x5607b9d14600&#45;&gt;el0x5607b9d14630 -->
<g id="edge15" class="edge">
<title>el0x5607b9d14600&#45;&gt;el0x5607b9d14630</title>
<path fill="none" stroke="black" d="M761.75,-216.76C751.76,-207.79 739.16,-196.49 728.1,-186.56"/>
<polygon fill="black" stroke="black" points="730.16,-183.71 720.38,-179.63 725.48,-188.92 730.16,-183.71"/>
</g>
<!-- el0x5607b9d14790 -->
<g id="node27" class="node">
<title>el0x5607b9d14790</title>
<ellipse fill="#adffbf" stroke="black" cx="857.84" cy="-162" rx="55.79" ry="18"/>
<text text-anchor="middle" x="857.84" y="-158.3" font-family="Times,serif" font-size="14.00">ARG_TYPE</text>
</g>
<!-- el0x5607b9d14600&#45;&gt;el0x5607b9d14790 -->
<g id="edge19" class="edge">
<title>el0x5607b9d14600&#45;&gt;el0x5607b9d14790</title>
<path fill="none" stroke="black" d="M797.94,-216.76C808.17,-207.58 821.14,-195.94 832.39,-185.84"/>
<polygon fill="black" stroke="black" points="834.75,-188.43 839.85,-179.15 830.07,-183.22 834.75,-188.43"/>
</g>
<!-- el0x5607b9d14730 -->
<g id="node28" class="node">
<title>el0x5607b9d14730</title>
<ellipse fill="#adffbf" stroke="black" cx="857.84" cy="-90" rx="72.29" ry="18"/>
<text text-anchor="middle" x="857.84" y="-86.3" font-family="Times,serif" font-size="14.00">MATH_TYPE | &#45;</text>
</g>
<!-- el0x5607b9d14790&#45;&gt;el0x5607b9d14730 -->
<g id="edge18" class="edge">
<title>el0x5607b9d14790&#45;&gt;el0x5607b9d14730</title>
<path fill="none" stroke="black" d="M857.84,-143.7C857.84,-135.98 857.84,-126.71 857.84,-118.11"/>
<polygon fill="black" stroke="black" points="861.34,-118.1 857.84,-108.1 854.34,-118.1 861.34,-118.1"/>
</g>
<!-- el0x5607b9d14700 -->
<g id="node29" class="node">
<title>el0x5607b9d14700</title>
<ellipse fill="#adffbf" stroke="black" cx="782.84" cy="-18" rx="57.69" ry="18"/>
<text text-anchor="middle" x="782.84" y="-14.3" font-family="Times,serif" font-size="14.00">ID_TYPE | n</text>
</g>
<!-- el0x5607b9d14730&#45;&gt;el0x5607b9d14700 -->
<g id="edge16" class="edge">
<title>el0x5607b9d14730&#45;&gt;el0x5607b9d14700</title>
<path fill="none" stroke="black" d="M840.07,-72.41C830.38,-63.37 818.23,-52.03 807.63,-42.13"/>
<polygon fill="black" stroke="black" points="809.93,-39.49 800.23,-35.23 805.15,-44.61 809.93,-39.49"/>
</g>
<!-- el0x5607b9d14760 -->
<g id="node30" class="node">
<title>el0x5607b9d14760</title>
<ellipse fill="#adffbf" stroke="black" cx="933.84" cy="-18" rx="75.29" ry="18"/>
<text text-anchor="middle" x="933.84" y="-14.3" font-family="Times,serif" font-size="14.00">NUMB_TYPE | 1</text>
</g>
<!-- el0x5607b9d14730&#45;&gt;el0x5607b9d14760 -->
<g id="edge17" class="edge">
<title>el0x5607b9d14730&#45;&gt;el0x5607b9d14760</title>
<path fill="none" stroke="black" d="M875.86,-72.41C885.53,-63.5 897.63,-52.36 908.27,-42.56"/>
<polygon fill="black" stroke="black" points="910.72,-45.06 915.7,-35.71 905.97,-39.91 910.72,-45.06"/>
</g>
<!-- el0x5607b9d14920 -->
<g id="node32" class="node">
<title>el0x5607b9d14920</title>
<ellipse fill="#adffbf" stroke="black" cx="923.84" cy="-306" rx="59.59" ry="18"/>
<text text-anchor="middle" x="923.84" y="-302.3" font-family="Times,serif" font-size="14.00">JUMP_TYPE</text>
</g>
<!-- el0x5607b9d14820&#45;&gt;el0x5607b9d14920 -->
<g id="edge24" class="edge">
<title>el0x5607b9d14820&#45;&gt;el0x5607b9d14920</title>
<path fill="none" stroke="black" d="M918.58,-359.7C919.35,-351.98 920.27,-342.71 921.13,-334.11"/>
<polygon fill="black" stroke="black" points="924.62,-334.4 922.13,-324.1 917.66,-333.71 924.62,-334.4"/>
</g>
<!-- el0x5607b9d148f0 -->
<g id="node33" class="node">
<title>el0x5607b9d148f0</title>
<ellipse fill="#adffbf" stroke="black" cx="923.84" cy="-234" rx="57.69" ry="18"/>
<text text-anchor="middle" x="923.84" y="-230.3" font-family="Times,serif" font-size="14.00">ID_TYPE | b</text>
</g>
<!-- el0x5607b9d14920&#45;&gt;el0x5607b9d148f0 -->
<g id="edge23" class="edge">
<title>el0x5607b9d14920&#45;&gt;el0x5607b9d148f0</title>
<path fill="none" stroke="black" d="M923.84,-287.7C923.84,-279.98 923.84,-270.71 923.84,-262.11"/>
<polygon fill="black" stroke="black" points="927.34,-262.1 923.84,-252.1 920.34,-262.1 927.34,-262.1"/>
</g>
<!-- el0x5607b9d14a00 -->
<g id="node36" class="node">
<title>el0x5607b9d14a00</title>
<ellipse fill="#adffbf" stroke="black" cx="937.84" cy="-738" rx="59.59" ry="18"/>
<text text-anchor="middle" x="937.84" y="-734.3" font-family="Times,serif" font-size="14.00">DECL_TYPE</text>
</g>
<!-- el0x5607b9d14980&#45;&gt;el0x5607b9d14a00 -->
<g id="edge35" class="edge">
<title>el0x5607b9d14980&#45;&gt;el0x5607b9d14a00</title>
<path fill="none" stroke="black" d="M937.84,-791.7C937.84,-783.98 937.84,-774.71 937.84,-766.11"/>
<polygon fill="black" stroke="black" points="941.34,-766.1 937.84,-756.1 934.34,-766.1 941.34,-766.1"/>
</g>
<!-- el0x5607b9d14a60 -->
<g id="node39" class="node">
<title>el0x5607b9d14a60</title>
<ellipse fill="#adffbf" stroke="black" cx="1129.84" cy="-738" rx="57.69" ry="18"/>
<text text-anchor="middle" x="1129.84" y="-734.3" font-family="Times,serif" font-size="14.00">STAT_TYPE</text>
</g>
<!-- el0x5607b9d14980&#45;&gt;el0x5607b9d14a60 -->
<g id="edge54" class="edge">
<title>el0x5607b9d14980&#45;&gt;el0x5607b9d14a60</title>
<path fill="none" stroke="black" d="M973.96,-795.83C1005.2,-784.44 1050.53,-767.92 1084.27,-755.62"/>
<polygon fill="black" stroke="black" points="1085.7,-758.82 1093.89,-752.11 1083.3,-752.24 1085.7,-758.82"/>
</g>
<!-- el0x5607b9d14a30 -->
<g id="node37" class="node">
<title>el0x5607b9d14a30</title>
<ellipse fill="#adffbf" stroke="black" cx="838.84" cy="-666" rx="57.69" ry="18"/>
<text text-anchor="middle" x="838.84" y="-662.3" font-family="Times,serif" font-size="14.00">ID_TYPE | k</text>
</g>
<!-- el0x5607b9d14a00&#45;&gt;el0x5607b9d14a30 -->
<g id="edge33" class="edge">
<title>el0x5607b9d14a00&#45;&gt;el0x5607b9d14a30</title>
<path fill="none" stroke="black" d="M915.38,-721.12C901.84,-711.54 884.4,-699.21 869.59,-688.74"/>
<polygon fill="black" stroke="black" points="871.41,-685.74 861.22,-682.82 867.37,-691.45 871.41,-685.74"/>
</g>
<!-- el0x5607b9d149d0 -->
<g id="node38" class="node">
<title>el0x5607b9d149d0</title>
<ellipse fill="#adffbf" stroke="black" cx="1011.84" cy="-666" rx="96.68" ry="18"/>
<text text-anchor="middle" x="1011.84" y="-662.3" font-family="Times,serif" font-size="14.00">NUMB_TYPE | 100000</text>
</g>
<!-- el0x5607b9d14a00&#45;&gt;el0x5607b9d149d0 -->
<g id="edge34" class="edge">
<title>el0x5607b9d14a00&#45;&gt;el0x5607b9d149d0</title>
<path fill="none" stroke="black" d="M955.38,-720.41C964.71,-711.58 976.35,-700.57 986.64,-690.84"/>
<polygon fill="black" stroke="black" points="989.32,-693.13 994.18,-683.71 984.51,-688.04 989.32,-693.13"/>
</g>
<!-- el0x5607b9d14f60 -->
<g id="node40" class="node">
<title>el0x5607b9d14f60</title>
<ellipse fill="#adffbf" stroke="black" cx="1186.84" cy="-666" rx="59.59" ry="18"/>
<text text-anchor="middle" x="1186.84" y="-662.3" font-family="Times,serif" font-size="14.00">LOOP_TYPE</text>
</g>
<!-- el0x5607b9d14a60&#45;&gt;el0x5607b9d14f60 -->
<g id="edge53" class="edge">
<title>el0x5607b9d14a60&#45;&gt;el0x5607b9d14f60</title>
<path fill="none" stroke="black" d="M1143.35,-720.41C1150.28,-711.91 1158.86,-701.37 1166.56,-691.91"/>
<polygon fill="black" stroke="black" points="1169.44,-693.92 1173.04,-683.96 1164.01,-689.5 1169.44,-693.92"/>
</g>
<!-- el0x5607b9d14b60 -->
<g id="node41" class="node">
<title>el0x5607b9d14b60</title>
<ellipse fill="#adffbf" stroke="black" cx="1095.84" cy="-594" rx="74.99" ry="18"/>
<text text-anchor="middle" x="1095.84" y="-590.3" font-family="Times,serif" font-size="14.00">MATH_TYPE | &gt;</text>
</g>
<!-- el0x5607b9d14f60&#45;&gt;el0x5607b9d14b60 -->
<g id="edge38" class="edge">
<title>el0x5607b9d14f60&#45;&gt;el0x5607b9d14b60</title>
<path fill="none" stroke="black" d="M1165.74,-648.76C1153.77,-639.55 1138.59,-627.88 1125.44,-617.77"/>
<polygon fill="black" stroke="black" points="1127.21,-614.71 1117.15,-611.39 1122.94,-620.26 1127.21,-614.71"/>
</g>
<!-- el0x5607b9d14bc0 -->
<g id="node44" class="node">
<title>el0x5607b9d14bc0</title>
<ellipse fill="#adffbf" stroke="black" cx="1250.84" cy="-594" rx="62.29" ry="18"/>
<text text-anchor="middle" x="1250.84" y="-590.3" font-family="Times,serif" font-size="14.00">COMP_TYPE</text>
</g>
<!-- el0x5607b9d14f60&#45;&gt;el0x5607b9d14bc0 -->
<g id="edge52" class="edge">
<title>el0x5607b9d14f60&#45;&gt;el0x5607b9d14bc0</title>
<path fill="none" stroke="black" d="M1202.01,-648.41C1210.06,-639.61 1220.1,-628.63 1228.98,-618.92"/>
<polygon fill="black" stroke="black" points="1231.62,-621.21 1235.79,-611.47 1226.46,-616.49 1231.62,-621.21"/>
</g>
<!-- el0x5607b9d14b30 -->
<g id="node42" class="node">
<title>el0x5607b9d14b30</title>
<ellipse fill="#adffbf" stroke="black" cx="946.84" cy="-522" rx="57.69" ry="18"/>
<text text-anchor="middle" x="946.84" y="-518.3" font-family="Times,serif" font-size="14.00">ID_TYPE | k</text>
</g>
<!-- el0x5607b9d14b60&#45;&gt;el0x5607b9d14b30 -->
<g id="edge36" class="edge">
<title>el0x5607b9d14b60&#45;&gt;el0x5607b9d14b30</title>
<path fill="none" stroke="black" d="M1063.15,-577.64C1040.61,-567.05 1010.53,-552.92 986.6,-541.68"/>
<polygon fill="black" stroke="black" points="987.97,-538.46 977.43,-537.37 985,-544.79 987.97,-538.46"/>
</g>
<!-- el0x5607b9d14b90 -->
<g id="node43" class="node">
<title>el0x5607b9d14b90</title>
<ellipse fill="#adffbf" stroke="black" cx="1097.84" cy="-522" rx="75.29" ry="18"/>
<text text-anchor="middle" x="1097.84" y="-518.3" font-family="Times,serif" font-size="14.00">NUMB_TYPE | 0</text>
</g>
<!-- el0x5607b9d14b60&#45;&gt;el0x5607b9d14b90 -->
<g id="edge37" class="edge">
<title>el0x5607b9d14b60&#45;&gt;el0x5607b9d14b90</title>
<path fill="none" stroke="black" d="M1096.34,-575.7C1096.56,-567.98 1096.82,-558.71 1097.07,-550.11"/>
<polygon fill="black" stroke="black" points="1100.57,-550.2 1097.36,-540.1 1093.57,-550 1100.57,-550.2"/>
</g>
<!-- el0x5607b9d14bf0 -->
<g id="node45" class="node">
<title>el0x5607b9d14bf0</title>
<ellipse fill="#adffbf" stroke="black" cx="1250.84" cy="-522" rx="57.69" ry="18"/>
<text text-anchor="middle" x="1250.84" y="-518.3" font-family="Times,serif" font-size="14.00">STAT_TYPE</text>
</g>
<!-- el0x5607b9d14bc0&#45;&gt;el0x5607b9d14bf0 -->
<g id="edge51" class="edge">
<title>el0x5607b9d14bc0&#45;&gt;el0x5607b9d14bf0</title>
<path fill="none" stroke="black" d="M1250.84,-575.7C1250.84,-567.98 1250.84,-558.71 1250.84,-550.11"/>
<polygon fill="black" stroke="black" points="1254.34,-550.1 1250.84,-540.1 1247.34,-550.1 1254.34,-550.1"/>
</g>
<!-- el0x5607b9d14d20 -->
<g id="node46" class="node">
<title>el0x5607b9d14d20</title>
<ellipse fill="#adffbf" stroke="black" cx="1246.84" cy="-450" rx="59.59" ry="18"/>
<text text-anchor="middle" x="1246.84" y="-446.3" font-family="Times,serif" font-size="14.00">DECL_TYPE</text>
</g>
<!-- el0x5607b9d14bf0&#45;&gt;el0x5607b9d14d20 -->
<g id="edge44" class="edge">
<title>el0x5607b9d14bf0&#45;&gt;el0x5607b9d14d20</title>
<path fill="none" stroke="black" d="M1249.86,-503.7C1249.42,-495.98 1248.89,-486.71 1248.39,-478.11"/>
<polygon fill="black" stroke="black" points="1251.89,-477.89 1247.82,-468.1 1244.9,-478.29 1251.89,-477.89"/>
</g>
<!-- el0x5607b9d14d80 -->
<g id="node52" class="node">
<title>el0x5607b9d14d80</title>
<ellipse fill="#adffbf" stroke="black" cx="1383.84" cy="-450" rx="57.69" ry="18"/>
<text text-anchor="middle" x="1383.84" y="-446.3" font-family="Times,serif" font-size="14.00">STAT_TYPE</text>
</g>
<!-- el0x5607b9d14bf0&#45;&gt;el0x5607b9d14d80 -->
<g id="edge50" class="edge">
<title>el0x5607b9d14bf0&#45;&gt;el0x5607b9d14d80</title>
<path fill="none" stroke="black" d="M1279.05,-506.15C1298.71,-495.81 1325.15,-481.89 1346.55,-470.63"/>
<polygon fill="black" stroke="black" points="1348.46,-473.58 1355.68,-465.82 1345.2,-467.38 1348.46,-473.58"/>
</g>
<!-- el0x5607b9d14d50 -->
<g id="node47" class="node">
<title>el0x5607b9d14d50</title>
<ellipse fill="#adffbf" stroke="black" cx="1111.84" cy="-378" rx="57.39" ry="18"/>
<text text-anchor="middle" x="1111.84" y="-374.3" font-family="Times,serif" font-size="14.00">ID_TYPE | a</text>
</g>
<!-- el0x5607b9d14d20&#45;&gt;el0x5607b9d14d50 -->
<g id="edge39" class="edge">
<title>el0x5607b9d14d20&#45;&gt;el0x5607b9d14d50</title>
<path fill="none" stroke="black" d="M1218.21,-434.15C1198.17,-423.76 1171.18,-409.77 1149.41,-398.48"/>
<polygon fill="black" stroke="black" points="1150.92,-395.32 1140.43,-393.82 1147.7,-401.53 1150.92,-395.32"/>
</g>
<!-- el0x5607b9d14c60 -->
<g id="node48" class="node">
<title>el0x5607b9d14c60</title>
<ellipse fill="#adffbf" stroke="black" cx="1246.84" cy="-378" rx="59.59" ry="18"/>
<text text-anchor="middle" x="1246.84" y="-374.3" font-family="Times,serif" font-size="14.00">CALL_TYPE</text>
</g>
<!-- el0x5607b9d14d20&#45;&gt;el0x5607b9d14c60 -->
<g id="edge43" class="edge">
<title>el0x5607b9d14d20&#45;&gt;el0x5607b9d14c60</title>
<path fill="none" stroke="black" d="M1246.84,-431.7C1246.84,-423.98 1246.84,-414.71 1246.84,-406.11"/>
<polygon fill="black" stroke="black" points="1250.34,-406.1 1246.84,-396.1 1243.34,-406.1 1250.34,-406.1"/>
</g>
<!-- el0x5607b9d14c90 -->
<g id="node49" class="node">
<title>el0x5607b9d14c90</title>
<ellipse fill="#adffbf" stroke="black" cx="1091.84" cy="-306" rx="82.59" ry="18"/>
<text text-anchor="middle" x="1091.84" y="-302.3" font-family="Times,serif" font-size="14.00">ID_TYPE | factorial</text>
</g>
<!-- el0x5607b9d14c60&#45;&gt;el0x5607b9d14c90 -->
<g id="edge40" class="edge">
<title>el0x5607b9d14c60&#45;&gt;el0x5607b9d14c90</title>
<path fill="none" stroke="black" d="M1215.1,-362.67C1192.09,-352.27 1160.7,-338.09 1135.35,-326.65"/>
<polygon fill="black" stroke="black" points="1136.52,-323.33 1125.96,-322.41 1133.64,-329.71 1136.52,-323.33"/>
</g>
<!-- el0x5607b9d14cf0 -->
<g id="node50" class="node">
<title>el0x5607b9d14cf0</title>
<ellipse fill="#adffbf" stroke="black" cx="1247.84" cy="-306" rx="55.79" ry="18"/>
<text text-anchor="middle" x="1247.84" y="-302.3" font-family="Times,serif" font-size="14.00">ARG_TYPE</text>
</g>
<!-- el0x5607b9d14c60&#45;&gt;el0x5607b9d14cf0 -->
<g id="edge42" class="edge">
<title>el0x5607b9d14c60&#45;&gt;el0x5607b9d14cf0</title>
<path fill="none" stroke="black" d="M1247.09,-359.7C1247.2,-351.98 1247.33,-342.71 1247.46,-334.11"/>
<polygon fill="black" stroke="black" points="1250.96,-334.15 1247.6,-324.1 1243.96,-334.05 1250.96,-334.15"/>
</g>
<!-- el0x5607b9d14cc0 -->
<g id="node51" class="node">
<title>el0x5607b9d14cc0</title>
<ellipse fill="#adffbf" stroke="black" cx="1247.84" cy="-234" rx="79.09" ry="18"/>
<text text-anchor="middle" x="1247.84" y="-230.3" font-family="Times,serif" font-size="14.00">NUMB_TYPE | 20</text>
</g>
<!-- el0x5607b9d14cf0&#45;&gt;el0x5607b9d14cc0 -->
<g id="edge41" class="edge">
<title>el0x5607b9d14cf0&#45;&gt;el0x5607b9d14cc0</title>
<path fill="none" stroke="black" d="M1247.84,-287.7C1247.84,-279.98 1247.84,-270.71 1247.84,-262.11"/>
<polygon fill="black" stroke="black" points="1251.34,-262.1 1247.84,-252.1 1244.34,-262.1 1251.34,-262.1"/>
</g>
<!-- el0x5607b9d14f00 -->
<g id="node53" class="node">
<title>el0x5607b9d14f00</title>
<ellipse fill="#adffbf" stroke="black" cx="1384.84" cy="-378" rx="59.59" ry="18"/>
<text text-anchor="middle" x="1384.84" y="-374.3" font-family="Times,serif" font-size="14.00">ASSG_TYPE</text>
</g>
<!-- el0x5607b9d14d80&#45;&gt;el0x5607b9d14f00 -->
<g id="edge49" class="edge">
<title>el0x5607b9d14d80&#45;&gt;el0x5607b9d14f00</title>
<path fill="none" stroke="black" d="M1384.09,-431.7C1384.2,-423.98 1384.33,-414.71 1384.46,-406.11"/>
<polygon fill="black" stroke="black" points="1387.96,-406.15 1384.6,-396.1 1380.96,-406.05 1387.96,-406.15"/>
</g>
<!-- el0x5607b9d14f30 -->
<g id="node54" class="node">
<title>el0x5607b9d14f30</title>
<ellipse fill="#adffbf" stroke="black" cx="1381.84" cy="-306" rx="57.69" ry="18"/>
<text text-anchor="middle" x="1381.84" y="-302.3" font-family="Times,serif" font-size="14.00">ID_TYPE | k</text>
</g>
<!-- el0x5607b9d14f00&#45;&gt;el0x5607b9d14f30 -->
<g id="edge45" class="edge">
<title>el0x5607b9d14f00&#45;&gt;el0x5607b9d14f30</title>
<path fill="none" stroke="black" d="M1384.1,-359.7C1383.77,-351.98 1383.38,-342.71 1383.01,-334.11"/>
<polygon fill="black" stroke="black" points="1386.5,-333.95 1382.58,-324.1 1379.51,-334.25 1386.5,-333.95"/>
</g>
<!-- el0x5607b9d14ea0 -->
<g id="node55" class="node">
<title>el0x5607b9d14ea0</title>
<ellipse fill="#adffbf" stroke="black" cx="1529.84" cy="-306" rx="72.29" ry="18"/>
<text text-anchor="middle" x="1529.84" y="-302.3" font-family="Times,serif" font-size="14.00">MATH_TYPE | &#45;</text>
</g>
<!-- el0x5607b9d14f00&#45;&gt;el0x5607b9d14ea0 -->
<g id="edge48" class="edge">
<title>el0x5607b9d14f00&#45;&gt;el0x5607b9d14ea0</title>
<path fill="none" stroke="black" d="M1415.24,-362.33C1436.72,-351.96 1465.75,-337.94 1489.21,-326.61"/>
<polygon fill="black" stroke="black" points="1490.75,-329.76 1498.23,-322.26 1487.71,-323.46 1490.75,-329.76"/>
</g>
<!-- el0x5607b9d14e70 -->
<g id="node56" class="node">
<title>el0x5607b9d14e70</title>
<ellipse fill="#adffbf" stroke="black" cx="1466.84" cy="-234" rx="57.69" ry="18"/>
<text text-anchor="middle" x="1466.84" y="-230.3" font-family="Times,serif" font-size="14.00">ID_TYPE | k</text>
</g>
<!-- el0x5607b9d14ea0&#45;&gt;el0x5607b9d14e70 -->
<g id="edge46" class="edge">
<title>el0x5607b9d14ea0&#45;&gt;el0x5607b9d14e70</title>
<path fill="none" stroke="black" d="M1514.59,-288.05C1506.86,-279.46 1497.32,-268.86 1488.8,-259.4"/>
<polygon fill="black" stroke="black" points="1491.25,-256.88 1481.95,-251.79 1486.04,-261.56 1491.25,-256.88"/>
</g>
<!-- el0x5607b9d14ed0 -->
<g id="node57" class="node">
<title>el0x5607b9d14ed0</title>
<ellipse fill="#adffbf" stroke="black" cx="1617.84" cy="-234" rx="75.29" ry="18"/>
<text text-anchor="middle" x="1617.84" y="-230.3" font-family="Times,serif" font-size="14.00">NUMB_TYPE | 1</text>
</g>
<!-- el0x5607b9d14ea0&#45;&gt;el0x5607b9d14ed0 -->
<g id="edge47" class="edge">
<title>el0x5607b9d14ea0&#45;&gt;el0x5607b9d14ed0</title>
<path fill="none" stroke="black" d="M1550.7,-288.41C1562.21,-279.26 1576.67,-267.76 1589.22,-257.77"/>
<polygon fill="black" stroke="black" points="1591.49,-260.43 1597.14,-251.47 1587.13,-254.96 1591.49,-260.43"/>
</g>
</g>
</svg>
