<?xml version="1.0" encoding="UTF-8" standalone="no"?>
<!DOCTYPE svg PUBLIC "-//W3C//DTD SVG 1.1//EN"
 "http://www.w3.org/Graphics/SVG/1.1/DTD/svg11.dtd">
<!-- Generated by graphviz version 2.46.1 (0)
 -->
<!-- Title: structs Pages: 1 -->
<svg width="1710pt" height="980pt"
 viewBox="0.00 0.00 1710.24 980.00" xmlns="http://www.w3.org/2000/svg" xmlns:xlink="http://www.w3.org/1999/xlink">
<g id="graph0" class="graph" transform="scale(1 1) rotate(0) translate(4 976)">
<title>structs</title>
<polygon fill="white" stroke="transparent" points="-4,4 -4,-976 1706.24,-976 1706.24,4 -4,4"/>
<!-- el0x55f3f8ddca60 -->
<g id="node1" class="node">
<title>el0x55f3f8ddca60</title>
<ellipse fill="#adffbf" stroke="black" cx="860.84" cy="-954" rx="62.29" ry="18"/>
<text text-anchor="middle" x="860.84" y="-950.3" font-family="Times,serif" font-size="14.00">COMP_TYPE</text>
</g>
<!-- el0x55f3f8ddca90 -->
<g id="node2" class="node">
<title>el0x55f3f8ddca90</title>
<ellipse fill="#adffbf" stroke="black" cx="860.84" cy="-882" rx="57.69" ry="18"/>
<text text-anchor="middle" x="860.84" y="-878.3" font-family="Times,serif" font-size="14.00">STAT_TYPE</text>
</g>
<!-- el0x55f3f8ddca60&#45;&gt;el0x55f3f8ddca90 -->
<g id="edge56" class="edge">
<title>el0x55f3f8ddca60&#45;&gt;el0x55f3f8ddca90</title>
<path fill="none" stroke="black" d="M860.84,-935.7C860.84,-927.98 860.84,-918.71 860.84,-910.11"/>
<polygon fill="black" stroke="black" points="864.34,-910.1 860.84,-900.1 857.34,-910.1 864.34,-910.1"/>
</g>
<!-- el0x55f3f8ddcae0 -->
<g id="node3" class="node">
<title>el0x55f3f8ddcae0</title>
<ellipse fill="#adffbf" stroke="black" cx="801.84" cy="-810" rx="43.59" ry="18"/>
<text text-anchor="middle" x="801.84" y="-806.3" font-family="Times,serif" font-size="14.00">D_TYPE</text>
</g>
<!-- el0x55f3f8ddca90&#45;&gt;el0x55f3f8ddcae0 -->
<g id="edge32" class="edge">
<title>el0x55f3f8ddca90&#45;&gt;el0x55f3f8ddcae0</title>
<path fill="none" stroke="black" d="M846.86,-864.41C839.51,-855.69 830.37,-844.85 822.25,-835.21"/>
<polygon fill="black" stroke="black" points="824.85,-832.86 815.73,-827.47 819.5,-837.37 824.85,-832.86"/>
</g>
<!-- el0x55f3f8ddd990 -->
<g id="node35" class="node">
<title>el0x55f3f8ddd990</title>
<ellipse fill="#adffbf" stroke="black" cx="940.84" cy="-810" rx="57.69" ry="18"/>
<text text-anchor="middle" x="940.84" y="-806.3" font-family="Times,serif" font-size="14.00">STAT_TYPE</text>
</g>
<!-- el0x55f3f8ddca90&#45;&gt;el0x55f3f8ddd990 -->
<g id="edge55" class="edge">
<title>el0x55f3f8ddca90&#45;&gt;el0x55f3f8ddd990</title>
<path fill="none" stroke="black" d="M879.4,-864.76C889.9,-855.58 903.2,-843.94 914.74,-833.84"/>
<polygon fill="black" stroke="black" points="917.17,-836.37 922.39,-827.15 912.56,-831.1 917.17,-836.37"/>
</g>
<!-- el0x55f3f8ddcb10 -->
<g id="node4" class="node">
<title>el0x55f3f8ddcb10</title>
<ellipse fill="#adffbf" stroke="black" cx="702.84" cy="-738" rx="82.59" ry="18"/>
<text text-anchor="middle" x="702.84" y="-734.3" font-family="Times,serif" font-size="14.00">ID_TYPE | factorial</text>
</g>
<!-- el0x55f3f8ddcae0&#45;&gt;el0x55f3f8ddcb10 -->
<g id="edge31" class="edge">
<title>el0x55f3f8ddcae0&#45;&gt;el0x55f3f8ddcb10</title>
<path fill="none" stroke="black" d="M780.85,-794.15C767.37,-784.63 749.62,-772.08 734.46,-761.36"/>
<polygon fill="black" stroke="black" points="736.07,-758.21 725.88,-755.29 732.03,-763.92 736.07,-758.21"/>
</g>
<!-- el0x55f3f8ddd070 -->
<g id="node5" class="node">
<title>el0x55f3f8ddd070</title>
<ellipse fill="#adffbf" stroke="black" cx="564.84" cy="-666" rx="62.29" ry="18"/>
<text text-anchor="middle" x="564.84" y="-662.3" font-family="Times,serif" font-size="14.00">COMP_TYPE</text>
</g>
<!-- el0x55f3f8ddcb10&#45;&gt;el0x55f3f8ddd070 -->
<g id="edge29" class="edge">
<title>el0x55f3f8ddcb10&#45;&gt;el0x55f3f8ddd070</title>
<path fill="none" stroke="black" d="M671.87,-721.29C651.57,-710.99 624.88,-697.45 603.23,-686.47"/>
<polygon fill="black" stroke="black" points="604.79,-683.34 594.29,-681.94 601.63,-689.58 604.79,-683.34"/>
</g>
<!-- el0x55f3f8ddd040 -->
<g id="node34" class="node">
<title>el0x55f3f8ddd040</title>
<ellipse fill="#adffbf" stroke="black" cx="702.84" cy="-666" rx="57.69" ry="18"/>
<text text-anchor="middle" x="702.84" y="-662.3" font-family="Times,serif" font-size="14.00">ID_TYPE | n</text>
</g>
<!-- el0x55f3f8ddcb10&#45;&gt;el0x55f3f8ddd040 -->
<g id="edge30" class="edge">
<title>el0x55f3f8ddcb10&#45;&gt;el0x55f3f8ddd040</title>
<path fill="none" stroke="black" d="M702.84,-719.7C702.84,-711.98 702.84,-702.71 702.84,-694.11"/>
<polygon fill="black" stroke="black" points="706.34,-694.1 702.84,-684.1 699.34,-694.1 706.34,-694.1"/>
</g>
<!-- el0x55f3f8ddd0a0 -->
<g id="node6" class="node">
<title>el0x55f3f8ddd0a0</title>
<ellipse fill="#adffbf" stroke="black" cx="564.84" cy="-594" rx="57.69" ry="18"/>
<text text-anchor="middle" x="564.84" y="-590.3" font-family="Times,serif" font-size="14.00">STAT_TYPE</text>
</g>
<!-- el0x55f3f8ddd070&#45;&gt;el0x55f3f8ddd0a0 -->
<g id="edge28" class="edge">
<title>el0x55f3f8ddd070&#45;&gt;el0x55f3f8ddd0a0</title>
<path fill="none" stroke="black" d="M564.84,-647.7C564.84,-639.98 564.84,-630.71 564.84,-622.11"/>
<polygon fill="black" stroke="black" points="568.34,-622.1 564.84,-612.1 561.34,-622.1 568.34,-622.1"/>
</g>
<!-- el0x55f3f8ddd2c0 -->
<g id="node7" class="node">
<title>el0x55f3f8ddd2c0</title>
<ellipse fill="#adffbf" stroke="black" cx="364.84" cy="-522" rx="61.99" ry="18"/>
<text text-anchor="middle" x="364.84" y="-518.3" font-family="Times,serif" font-size="14.00">COND_TYPE</text>
</g>
<!-- el0x55f3f8ddd0a0&#45;&gt;el0x55f3f8ddd2c0 -->
<g id="edge9" class="edge">
<title>el0x55f3f8ddd0a0&#45;&gt;el0x55f3f8ddd2c0</title>
<path fill="none" stroke="black" d="M527.7,-580C495.17,-568.61 447.72,-552.01 412.43,-539.65"/>
<polygon fill="black" stroke="black" points="413.41,-536.29 402.82,-536.29 411.1,-542.9 413.41,-536.29"/>
</g>
<!-- el0x55f3f8ddd320 -->
<g id="node16" class="node">
<title>el0x55f3f8ddd320</title>
<ellipse fill="#adffbf" stroke="black" cx="599.84" cy="-522" rx="57.69" ry="18"/>
<text text-anchor="middle" x="599.84" y="-518.3" font-family="Times,serif" font-size="14.00">STAT_TYPE</text>
</g>
<!-- el0x55f3f8ddd0a0&#45;&gt;el0x55f3f8ddd320 -->
<g id="edge27" class="edge">
<title>el0x55f3f8ddd0a0&#45;&gt;el0x55f3f8ddd320</title>
<path fill="none" stroke="black" d="M573.32,-576.05C577.34,-568.01 582.24,-558.2 586.73,-549.23"/>
<polygon fill="black" stroke="black" points="589.87,-550.78 591.21,-540.28 583.6,-547.65 589.87,-550.78"/>
</g>
<!-- el0x55f3f8ddd1a0 -->
<g id="node8" class="node">
<title>el0x55f3f8ddd1a0</title>
<ellipse fill="#adffbf" stroke="black" cx="208.84" cy="-450" rx="79.89" ry="18"/>
<text text-anchor="middle" x="208.84" y="-446.3" font-family="Times,serif" font-size="14.00">MATH_TYPE | &lt;=</text>
</g>
<!-- el0x55f3f8ddd2c0&#45;&gt;el0x55f3f8ddd1a0 -->
<g id="edge3" class="edge">
<title>el0x55f3f8ddd2c0&#45;&gt;el0x55f3f8ddd1a0</title>
<path fill="none" stroke="black" d="M332.52,-506.5C309.33,-496.09 277.83,-481.96 252.43,-470.56"/>
<polygon fill="black" stroke="black" points="253.57,-467.23 243.02,-466.33 250.71,-473.62 253.57,-467.23"/>
</g>
<!-- el0x55f3f8ddd2f0 -->
<g id="node11" class="node">
<title>el0x55f3f8ddd2f0</title>
<ellipse fill="#adffbf" stroke="black" cx="364.84" cy="-450" rx="55.79" ry="18"/>
<text text-anchor="middle" x="364.84" y="-446.3" font-family="Times,serif" font-size="14.00">IFEL_TYPE</text>
</g>
<!-- el0x55f3f8ddd2c0&#45;&gt;el0x55f3f8ddd2f0 -->
<g id="edge8" class="edge">
<title>el0x55f3f8ddd2c0&#45;&gt;el0x55f3f8ddd2f0</title>
<path fill="none" stroke="black" d="M364.84,-503.7C364.84,-495.98 364.84,-486.71 364.84,-478.11"/>
<polygon fill="black" stroke="black" points="368.34,-478.1 364.84,-468.1 361.34,-478.1 368.34,-478.1"/>
</g>
<!-- el0x55f3f8ddd170 -->
<g id="node9" class="node">
<title>el0x55f3f8ddd170</title>
<ellipse fill="#adffbf" stroke="black" cx="57.84" cy="-378" rx="57.69" ry="18"/>
<text text-anchor="middle" x="57.84" y="-374.3" font-family="Times,serif" font-size="14.00">ID_TYPE | n</text>
</g>
<!-- el0x55f3f8ddd1a0&#45;&gt;el0x55f3f8ddd170 -->
<g id="edge1" class="edge">
<title>el0x55f3f8ddd1a0&#45;&gt;el0x55f3f8ddd170</title>
<path fill="none" stroke="black" d="M175.33,-433.46C152.48,-422.87 122.09,-408.78 97.94,-397.59"/>
<polygon fill="black" stroke="black" points="99.24,-394.33 88.69,-393.3 96.29,-400.68 99.24,-394.33"/>
</g>
<!-- el0x55f3f8ddd1d0 -->
<g id="node10" class="node">
<title>el0x55f3f8ddd1d0</title>
<ellipse fill="#adffbf" stroke="black" cx="208.84" cy="-378" rx="75.29" ry="18"/>
<text text-anchor="middle" x="208.84" y="-374.3" font-family="Times,serif" font-size="14.00">NUMB_TYPE | 1</text>
</g>
<!-- el0x55f3f8ddd1a0&#45;&gt;el0x55f3f8ddd1d0 -->
<g id="edge2" class="edge">
<title>el0x55f3f8ddd1a0&#45;&gt;el0x55f3f8ddd1d0</title>
<path fill="none" stroke="black" d="M208.84,-431.7C208.84,-423.98 208.84,-414.71 208.84,-406.11"/>
<polygon fill="black" stroke="black" points="212.34,-406.1 208.84,-396.1 205.34,-406.1 212.34,-406.1"/>
</g>
<!-- el0x55f3f8ddd200 -->
<g id="node12" class="node">
<title>el0x55f3f8ddd200</title>
<ellipse fill="#adffbf" stroke="black" cx="364.84" cy="-378" rx="62.29" ry="18"/>
<text text-anchor="middle" x="364.84" y="-374.3" font-family="Times,serif" font-size="14.00">COMP_TYPE</text>
</g>
<!-- el0x55f3f8ddd2f0&#45;&gt;el0x55f3f8ddd200 -->
<g id="edge7" class="edge">
<title>el0x55f3f8ddd2f0&#45;&gt;el0x55f3f8ddd200</title>
<path fill="none" stroke="black" d="M364.84,-431.7C364.84,-423.98 364.84,-414.71 364.84,-406.11"/>
<polygon fill="black" stroke="black" points="368.34,-406.1 364.84,-396.1 361.34,-406.1 368.34,-406.1"/>
</g>
<!-- el0x55f3f8ddd230 -->
<g id="node13" class="node">
<title>el0x55f3f8ddd230</title>
<ellipse fill="#adffbf" stroke="black" cx="364.84" cy="-306" rx="57.69" ry="18"/>
<text text-anchor="middle" x="364.84" y="-302.3" font-family="Times,serif" font-size="14.00">STAT_TYPE</text>
</g>
<!-- el0x55f3f8ddd200&#45;&gt;el0x55f3f8ddd230 -->
<g id="edge6" class="edge">
<title>el0x55f3f8ddd200&#45;&gt;el0x55f3f8ddd230</title>
<path fill="none" stroke="black" d="M364.84,-359.7C364.84,-351.98 364.84,-342.71 364.84,-334.11"/>
<polygon fill="black" stroke="black" points="368.34,-334.1 364.84,-324.1 361.34,-334.1 368.34,-334.1"/>
</g>
<!-- el0x55f3f8ddd290 -->
<g id="node14" class="node">
<title>el0x55f3f8ddd290</title>
<ellipse fill="#adffbf" stroke="black" cx="364.84" cy="-234" rx="59.59" ry="18"/>
<text text-anchor="middle" x="364.84" y="-230.3" font-family="Times,serif" font-size="14.00">JUMP_TYPE</text>
</g>
<!-- el0x55f3f8ddd230&#45;&gt;el0x55f3f8ddd290 -->
<g id="edge5" class="edge">
<title>el0x55f3f8ddd230&#45;&gt;el0x55f3f8ddd290</title>
<path fill="none" stroke="black" d="M364.84,-287.7C364.84,-279.98 364.84,-270.71 364.84,-262.11"/>
<polygon fill="black" stroke="black" points="368.34,-262.1 364.84,-252.1 361.34,-262.1 368.34,-262.1"/>
</g>
<!-- el0x55f3f8ddd260 -->
<g id="node15" class="node">
<title>el0x55f3f8ddd260</title>
<ellipse fill="#adffbf" stroke="black" cx="364.84" cy="-162" rx="75.29" ry="18"/>
<text text-anchor="middle" x="364.84" y="-158.3" font-family="Times,serif" font-size="14.00">NUMB_TYPE | 1</text>
</g>
<!-- el0x55f3f8ddd290&#45;&gt;el0x55f3f8ddd260 -->
<g id="edge4" class="edge">
<title>el0x55f3f8ddd290&#45;&gt;el0x55f3f8ddd260</title>
<path fill="none" stroke="black" d="M364.84,-215.7C364.84,-207.98 364.84,-198.71 364.84,-190.11"/>
<polygon fill="black" stroke="black" points="368.34,-190.1 364.84,-180.1 361.34,-190.1 368.34,-190.1"/>
</g>
<!-- el0x55f3f8ddd440 -->
<g id="node17" class="node">
<title>el0x55f3f8ddd440</title>
<ellipse fill="#adffbf" stroke="black" cx="599.84" cy="-450" rx="59.59" ry="18"/>
<text text-anchor="middle" x="599.84" y="-446.3" font-family="Times,serif" font-size="14.00">DECL_TYPE</text>
</g>
<!-- el0x55f3f8ddd320&#45;&gt;el0x55f3f8ddd440 -->
<g id="edge12" class="edge">
<title>el0x55f3f8ddd320&#45;&gt;el0x55f3f8ddd440</title>
<path fill="none" stroke="black" d="M599.84,-503.7C599.84,-495.98 599.84,-486.71 599.84,-478.11"/>
<polygon fill="black" stroke="black" points="603.34,-478.1 599.84,-468.1 596.34,-478.1 603.34,-478.1"/>
</g>
<!-- el0x55f3f8ddd4a0 -->
<g id="node20" class="node">
<title>el0x55f3f8ddd4a0</title>
<ellipse fill="#adffbf" stroke="black" cx="772.84" cy="-450" rx="57.69" ry="18"/>
<text text-anchor="middle" x="772.84" y="-446.3" font-family="Times,serif" font-size="14.00">STAT_TYPE</text>
</g>
<!-- el0x55f3f8ddd320&#45;&gt;el0x55f3f8ddd4a0 -->
<g id="edge26" class="edge">
<title>el0x55f3f8ddd320&#45;&gt;el0x55f3f8ddd4a0</title>
<path fill="none" stroke="black" d="M633.61,-507.34C661.03,-496.24 699.88,-480.52 729.57,-468.51"/>
<polygon fill="black" stroke="black" points="730.91,-471.74 738.87,-464.75 728.29,-465.25 730.91,-471.74"/>
</g>
<!-- el0x55f3f8ddd470 -->
<g id="node18" class="node">
<title>el0x55f3f8ddd470</title>
<ellipse fill="#adffbf" stroke="black" cx="502.84" cy="-378" rx="57.69" ry="18"/>
<text text-anchor="middle" x="502.84" y="-374.3" font-family="Times,serif" font-size="14.00">ID_TYPE | b</text>
</g>
<!-- el0x55f3f8ddd440&#45;&gt;el0x55f3f8ddd470 -->
<g id="edge10" class="edge">
<title>el0x55f3f8ddd440&#45;&gt;el0x55f3f8ddd470</title>
<path fill="none" stroke="black" d="M577.83,-433.12C564.56,-423.54 547.48,-411.21 532.97,-400.74"/>
<polygon fill="black" stroke="black" points="534.93,-397.83 524.77,-394.82 530.83,-403.51 534.93,-397.83"/>
</g>
<!-- el0x55f3f8ddd410 -->
<g id="node19" class="node">
<title>el0x55f3f8ddd410</title>
<ellipse fill="#adffbf" stroke="black" cx="636.84" cy="-378" rx="57.69" ry="18"/>
<text text-anchor="middle" x="636.84" y="-374.3" font-family="Times,serif" font-size="14.00">ID_TYPE | n</text>
</g>
<!-- el0x55f3f8ddd440&#45;&gt;el0x55f3f8ddd410 -->
<g id="edge11" class="edge">
<title>el0x55f3f8ddd440&#45;&gt;el0x55f3f8ddd410</title>
<path fill="none" stroke="black" d="M608.8,-432.05C613.12,-423.89 618.39,-413.91 623.19,-404.82"/>
<polygon fill="black" stroke="black" points="626.39,-406.27 627.97,-395.79 620.2,-402.99 626.39,-406.27"/>
</g>
<!-- el0x55f3f8ddd7d0 -->
<g id="node21" class="node">
<title>el0x55f3f8ddd7d0</title>
<ellipse fill="#adffbf" stroke="black" cx="772.84" cy="-378" rx="59.59" ry="18"/>
<text text-anchor="middle" x="772.84" y="-374.3" font-family="Times,serif" font-size="14.00">ASSG_TYPE</text>
</g>
<!-- el0x55f3f8ddd4a0&#45;&gt;el0x55f3f8ddd7d0 -->
<g id="edge22" class="edge">
<title>el0x55f3f8ddd4a0&#45;&gt;el0x55f3f8ddd7d0</title>
<path fill="none" stroke="black" d="M772.84,-431.7C772.84,-423.98 772.84,-414.71 772.84,-406.11"/>
<polygon fill="black" stroke="black" points="776.34,-406.1 772.84,-396.1 769.34,-406.1 776.34,-406.1"/>
</g>
<!-- el0x55f3f8ddd830 -->
<g id="node31" class="node">
<title>el0x55f3f8ddd830</title>
<ellipse fill="#adffbf" stroke="black" cx="916.84" cy="-378" rx="57.69" ry="18"/>
<text text-anchor="middle" x="916.84" y="-374.3" font-family="Times,serif" font-size="14.00">STAT_TYPE</text>
</g>
<!-- el0x55f3f8ddd4a0&#45;&gt;el0x55f3f8ddd830 -->
<g id="edge25" class="edge">
<title>el0x55f3f8ddd4a0&#45;&gt;el0x55f3f8ddd830</title>
<path fill="none" stroke="black" d="M802.68,-434.5C824.5,-423.89 854.29,-409.41 877.97,-397.9"/>
<polygon fill="black" stroke="black" points="879.58,-401.01 887.05,-393.49 876.52,-394.71 879.58,-401.01"/>
</g>
<!-- el0x55f3f8ddd800 -->
<g id="node22" class="node">
<title>el0x55f3f8ddd800</title>
<ellipse fill="#adffbf" stroke="black" cx="623.84" cy="-306" rx="57.69" ry="18"/>
<text text-anchor="middle" x="623.84" y="-302.3" font-family="Times,serif" font-size="14.00">ID_TYPE | b</text>
</g>
<!-- el0x55f3f8ddd7d0&#45;&gt;el0x55f3f8ddd800 -->
<g id="edge13" class="edge">
<title>el0x55f3f8ddd7d0&#45;&gt;el0x55f3f8ddd800</title>
<path fill="none" stroke="black" d="M741.97,-362.5C719.22,-351.81 688.09,-337.18 663.5,-325.63"/>
<polygon fill="black" stroke="black" points="664.96,-322.45 654.42,-321.37 661.99,-328.79 664.96,-322.45"/>
</g>
<!-- el0x55f3f8ddd5c0 -->
<g id="node23" class="node">
<title>el0x55f3f8ddd5c0</title>
<ellipse fill="#adffbf" stroke="black" cx="772.84" cy="-306" rx="73.39" ry="18"/>
<text text-anchor="middle" x="772.84" y="-302.3" font-family="Times,serif" font-size="14.00">MATH_TYPE | *</text>
</g>
<!-- el0x55f3f8ddd7d0&#45;&gt;el0x55f3f8ddd5c0 -->
<g id="edge21" class="edge">
<title>el0x55f3f8ddd7d0&#45;&gt;el0x55f3f8ddd5c0</title>
<path fill="none" stroke="black" d="M772.84,-359.7C772.84,-351.98 772.84,-342.71 772.84,-334.11"/>
<polygon fill="black" stroke="black" points="776.34,-334.1 772.84,-324.1 769.34,-334.1 776.34,-334.1"/>
</g>
<!-- el0x55f3f8ddd590 -->
<g id="node24" class="node">
<title>el0x55f3f8ddd590</title>
<ellipse fill="#adffbf" stroke="black" cx="643.84" cy="-234" rx="57.69" ry="18"/>
<text text-anchor="middle" x="643.84" y="-230.3" font-family="Times,serif" font-size="14.00">ID_TYPE | b</text>
</g>
<!-- el0x55f3f8ddd5c0&#45;&gt;el0x55f3f8ddd590 -->
<g id="edge14" class="edge">
<title>el0x55f3f8ddd5c0&#45;&gt;el0x55f3f8ddd590</title>
<path fill="none" stroke="black" d="M743.89,-289.29C725.08,-279.08 700.41,-265.69 680.27,-254.77"/>
<polygon fill="black" stroke="black" points="681.83,-251.63 671.37,-249.94 678.49,-257.78 681.83,-251.63"/>
</g>
<!-- el0x55f3f8ddd610 -->
<g id="node25" class="node">
<title>el0x55f3f8ddd610</title>
<ellipse fill="#adffbf" stroke="black" cx="779.84" cy="-234" rx="59.59" ry="18"/>
<text text-anchor="middle" x="779.84" y="-230.3" font-family="Times,serif" font-size="14.00">CALL_TYPE</text>
</g>
<!-- el0x55f3f8ddd5c0&#45;&gt;el0x55f3f8ddd610 -->
<g id="edge20" class="edge">
<title>el0x55f3f8ddd5c0&#45;&gt;el0x55f3f8ddd610</title>
<path fill="none" stroke="black" d="M774.58,-287.7C775.35,-279.98 776.27,-270.71 777.13,-262.11"/>
<polygon fill="black" stroke="black" points="780.62,-262.4 778.13,-252.1 773.66,-261.71 780.62,-262.4"/>
</g>
<!-- el0x55f3f8ddd640 -->
<g id="node26" class="node">
<title>el0x55f3f8ddd640</title>
<ellipse fill="#adffbf" stroke="black" cx="701.84" cy="-162" rx="82.59" ry="18"/>
<text text-anchor="middle" x="701.84" y="-158.3" font-family="Times,serif" font-size="14.00">ID_TYPE | factorial</text>
</g>
<!-- el0x55f3f8ddd610&#45;&gt;el0x55f3f8ddd640 -->
<g id="edge15" class="edge">
<title>el0x55f3f8ddd610&#45;&gt;el0x55f3f8ddd640</title>
<path fill="none" stroke="black" d="M761.75,-216.76C751.76,-207.79 739.16,-196.49 728.1,-186.56"/>
<polygon fill="black" stroke="black" points="730.16,-183.71 720.38,-179.63 725.48,-188.92 730.16,-183.71"/>
</g>
<!-- el0x55f3f8ddd7a0 -->
<g id="node27" class="node">
<title>el0x55f3f8ddd7a0</title>
<ellipse fill="#adffbf" stroke="black" cx="857.84" cy="-162" rx="55.79" ry="18"/>
<text text-anchor="middle" x="857.84" y="-158.3" font-family="Times,serif" font-size="14.00">ARG_TYPE</text>
</g>
<!-- el0x55f3f8ddd610&#45;&gt;el0x55f3f8ddd7a0 -->
<g id="edge19" class="edge">
<title>el0x55f3f8ddd610&#45;&gt;el0x55f3f8ddd7a0</title>
<path fill="none" stroke="black" d="M797.94,-216.76C808.17,-207.58 821.14,-195.94 832.39,-185.84"/>
<polygon fill="black" stroke="black" points="834.75,-188.43 839.85,-179.15 830.07,-183.22 834.75,-188.43"/>
</g>
<!-- el0x55f3f8ddd740 -->
<g id="node28" class="node">
<title>el0x55f3f8ddd740</title>
<ellipse fill="#adffbf" stroke="black" cx="857.84" cy="-90" rx="72.29" ry="18"/>
<text text-anchor="middle" x="857.84" y="-86.3" font-family="Times,serif" font-size="14.00">MATH_TYPE | &#45;</text>
</g>
<!-- el0x55f3f8ddd7a0&#45;&gt;el0x55f3f8ddd740 -->
<g id="edge18" class="edge">
<title>el0x55f3f8ddd7a0&#45;&gt;el0x55f3f8ddd740</title>
<path fill="none" stroke="black" d="M857.84,-143.7C857.84,-135.98 857.84,-126.71 857.84,-118.11"/>
<polygon fill="black" stroke="black" points="861.34,-118.1 857.84,-108.1 854.34,-118.1 861.34,-118.1"/>
</g>
<!-- el0x55f3f8ddd710 -->
<g id="node29" class="node">
<title>el0x55f3f8ddd710</title>
<ellipse fill="#adffbf" stroke="black" cx="782.84" cy="-18" rx="57.69" ry="18"/>
<text text-anchor="middle" x="782.84" y="-14.3" font-family="Times,serif" font-size="14.00">ID_TYPE | n</text>
</g>
<!-- el0x55f3f8ddd740&#45;&gt;el0x55f3f8ddd710 -->
<g id="edge16" class="edge">
<title>el0x55f3f8ddd740&#45;&gt;el0x55f3f8ddd710</title>
<path fill="none" stroke="black" d="M840.07,-72.41C830.38,-63.37 818.23,-52.03 807.63,-42.13"/>
<polygon fill="black" stroke="black" points="809.93,-39.49 800.23,-35.23 805.15,-44.61 809.93,-39.49"/>
</g>
<!-- el0x55f3f8ddd770 -->
<g id="node30" class="node">
<title>el0x55f3f8ddd770</title>
<ellipse fill="#adffbf" stroke="black" cx="933.84" cy="-18" rx="75.29" ry="18"/>
<text text-anchor="middle" x="933.84" y="-14.3" font-family="Times,serif" font-size="14.00">NUMB_TYPE | 1</text>
</g>
<!-- el0x55f3f8ddd740&#45;&gt;el0x55f3f8ddd770 -->
<g id="edge17" class="edge">
<title>el0x55f3f8ddd740&#45;&gt;el0x55f3f8ddd770</title>
<path fill="none" stroke="black" d="M875.86,-72.41C885.53,-63.5 897.63,-52.36 908.27,-42.56"/>
<polygon fill="black" stroke="black" points="910.72,-45.06 915.7,-35.71 905.97,-39.91 910.72,-45.06"/>
</g>
<!-- el0x55f3f8ddd930 -->
<g id="node32" class="node">
<title>el0x55f3f8ddd930</title>
<ellipse fill="#adffbf" stroke="black" cx="923.84" cy="-306" rx="59.59" ry="18"/>
<text text-anchor="middle" x="923.84" y="-302.3" font-family="Times,serif" font-size="14.00">JUMP_TYPE</text>
</g>
<!-- el0x55f3f8ddd830&#45;&gt;el0x55f3f8ddd930 -->
<g id="edge24" class="edge">
<title>el0x55f3f8ddd830&#45;&gt;el0x55f3f8ddd930</title>
<path fill="none" stroke="black" d="M918.58,-359.7C919.35,-351.98 920.27,-342.71 921.13,-334.11"/>
<polygon fill="black" stroke="black" points="924.62,-334.4 922.13,-324.1 917.66,-333.71 924.62,-334.4"/>
</g>
<!-- el0x55f3f8ddd900 -->
<g id="node33" class="node">
<title>el0x55f3f8ddd900</title>
<ellipse fill="#adffbf" stroke="black" cx="923.84" cy="-234" rx="57.69" ry="18"/>
<text text-anchor="middle" x="923.84" y="-230.3" font-family="Times,serif" font-size="14.00">ID_TYPE | b</text>
</g>
<!-- el0x55f3f8ddd930&#45;&gt;el0x55f3f8ddd900 -->
<g id="edge23" class="edge">
<title>el0x55f3f8ddd930&#45;&gt;el0x55f3f8ddd900</title>
<path fill="none" stroke="black" d="M923.84,-287.7C923.84,-279.98 923.84,-270.71 923.84,-262.11"/>
<polygon fill="black" stroke="black" points="927.34,-262.1 923.84,-252.1 920.34,-262.1 927.34,-262.1"/>
</g>
<!-- el0x55f3f8ddda10 -->
<g id="node36" class="node">
<title>el0x55f3f8ddda10</title>
<ellipse fill="#adffbf" stroke="black" cx="940.84" cy="-738" rx="59.59" ry="18"/>
<text text-anchor="middle" x="940.84" y="-734.3" font-family="Times,serif" font-size="14.00">DECL_TYPE</text>
</g>
<!-- el0x55f3f8ddd990&#45;&gt;el0x55f3f8ddda10 -->
<g id="edge35" class="edge">
<title>el0x55f3f8ddd990&#45;&gt;el0x55f3f8ddda10</title>
<path fill="none" stroke="black" d="M940.84,-791.7C940.84,-783.98 940.84,-774.71 940.84,-766.11"/>
<polygon fill="black" stroke="black" points="944.34,-766.1 940.84,-756.1 937.34,-766.1 944.34,-766.1"/>
</g>
<!-- el0x55f3f8ddda70 -->
<g id="node39" class="node">
<title>el0x55f3f8ddda70</title>
<ellipse fill="#adffbf" stroke="black" cx="1139.84" cy="-738" rx="57.69" ry="18"/>
<text text-anchor="middle" x="1139.84" y="-734.3" font-family="Times,serif" font-size="14.00">STAT_TYPE</text>
</g>
<!-- el0x55f3f8ddd990&#45;&gt;el0x55f3f8ddda70 -->
<g id="edge54" class="edge">
<title>el0x55f3f8ddd990&#45;&gt;el0x55f3f8ddda70</title>
<path fill="none" stroke="black" d="M977.81,-796C1010.48,-784.5 1058.28,-767.69 1093.5,-755.3"/>
<polygon fill="black" stroke="black" points="1094.81,-758.55 1103.08,-751.93 1092.48,-751.95 1094.81,-758.55"/>
</g>
<!-- el0x55f3f8ddda40 -->
<g id="node37" class="node">
<title>el0x55f3f8ddda40</title>
<ellipse fill="#adffbf" stroke="black" cx="836.84" cy="-666" rx="57.69" ry="18"/>
<text text-anchor="middle" x="836.84" y="-662.3" font-family="Times,serif" font-size="14.00">ID_TYPE | k</text>
</g>
<!-- el0x55f3f8ddda10&#45;&gt;el0x55f3f8ddda40 -->
<g id="edge33" class="edge">
<title>el0x55f3f8ddda10&#45;&gt;el0x55f3f8ddda40</title>
<path fill="none" stroke="black" d="M917.51,-721.29C903.05,-711.56 884.31,-698.95 868.52,-688.32"/>
<polygon fill="black" stroke="black" points="870.36,-685.34 860.11,-682.66 866.45,-691.14 870.36,-685.34"/>
</g>
<!-- el0x55f3f8ddd9e0 -->
<g id="node38" class="node">
<title>el0x55f3f8ddd9e0</title>
<ellipse fill="#adffbf" stroke="black" cx="1018.84" cy="-666" rx="105.88" ry="18"/>
<text text-anchor="middle" x="1018.84" y="-662.3" font-family="Times,serif" font-size="14.00">NUMB_TYPE | 10000000</text>
</g>
<!-- el0x55f3f8ddda10&#45;&gt;el0x55f3f8ddd9e0 -->
<g id="edge34" class="edge">
<title>el0x55f3f8ddda10&#45;&gt;el0x55f3f8ddd9e0</title>
<path fill="none" stroke="black" d="M958.94,-720.76C968.86,-711.86 981.34,-700.65 992.35,-690.78"/>
<polygon fill="black" stroke="black" points="994.93,-693.16 1000.04,-683.88 990.26,-687.95 994.93,-693.16"/>
</g>
<!-- el0x55f3f8dddf70 -->
<g id="node40" class="node">
<title>el0x55f3f8dddf70</title>
<ellipse fill="#adffbf" stroke="black" cx="1202.84" cy="-666" rx="59.59" ry="18"/>
<text text-anchor="middle" x="1202.84" y="-662.3" font-family="Times,serif" font-size="14.00">LOOP_TYPE</text>
</g>
<!-- el0x55f3f8ddda70&#45;&gt;el0x55f3f8dddf70 -->
<g id="edge53" class="edge">
<title>el0x55f3f8ddda70&#45;&gt;el0x55f3f8dddf70</title>
<path fill="none" stroke="black" d="M1154.77,-720.41C1162.7,-711.61 1172.58,-700.63 1181.32,-690.92"/>
<polygon fill="black" stroke="black" points="1183.93,-693.24 1188.02,-683.47 1178.73,-688.56 1183.93,-693.24"/>
</g>
<!-- el0x55f3f8dddb70 -->
<g id="node41" class="node">
<title>el0x55f3f8dddb70</title>
<ellipse fill="#adffbf" stroke="black" cx="1109.84" cy="-594" rx="74.99" ry="18"/>
<text text-anchor="middle" x="1109.84" y="-590.3" font-family="Times,serif" font-size="14.00">MATH_TYPE | &gt;</text>
</g>
<!-- el0x55f3f8dddf70&#45;&gt;el0x55f3f8dddb70 -->
<g id="edge38" class="edge">
<title>el0x55f3f8dddf70&#45;&gt;el0x55f3f8dddb70</title>
<path fill="none" stroke="black" d="M1181.74,-649.12C1169.32,-639.76 1153.4,-627.78 1139.7,-617.47"/>
<polygon fill="black" stroke="black" points="1141.6,-614.52 1131.51,-611.31 1137.39,-620.12 1141.6,-614.52"/>
</g>
<!-- el0x55f3f8dddbd0 -->
<g id="node44" class="node">
<title>el0x55f3f8dddbd0</title>
<ellipse fill="#adffbf" stroke="black" cx="1264.84" cy="-594" rx="62.29" ry="18"/>
<text text-anchor="middle" x="1264.84" y="-590.3" font-family="Times,serif" font-size="14.00">COMP_TYPE</text>
</g>
<!-- el0x55f3f8dddf70&#45;&gt;el0x55f3f8dddbd0 -->
<g id="edge52" class="edge">
<title>el0x55f3f8dddf70&#45;&gt;el0x55f3f8dddbd0</title>
<path fill="none" stroke="black" d="M1217.54,-648.41C1225.15,-639.82 1234.59,-629.16 1243.03,-619.63"/>
<polygon fill="black" stroke="black" points="1245.82,-621.76 1249.83,-611.96 1240.58,-617.12 1245.82,-621.76"/>
</g>
<!-- el0x55f3f8dddb40 -->
<g id="node42" class="node">
<title>el0x55f3f8dddb40</title>
<ellipse fill="#adffbf" stroke="black" cx="960.84" cy="-522" rx="57.69" ry="18"/>
<text text-anchor="middle" x="960.84" y="-518.3" font-family="Times,serif" font-size="14.00">ID_TYPE | k</text>
</g>
<!-- el0x55f3f8dddb70&#45;&gt;el0x55f3f8dddb40 -->
<g id="edge36" class="edge">
<title>el0x55f3f8dddb70&#45;&gt;el0x55f3f8dddb40</title>
<path fill="none" stroke="black" d="M1077.15,-577.64C1054.61,-567.05 1024.53,-552.92 1000.6,-541.68"/>
<polygon fill="black" stroke="black" points="1001.97,-538.46 991.43,-537.37 999,-544.79 1001.97,-538.46"/>
</g>
<!-- el0x55f3f8dddba0 -->
<g id="node43" class="node">
<title>el0x55f3f8dddba0</title>
<ellipse fill="#adffbf" stroke="black" cx="1111.84" cy="-522" rx="75.29" ry="18"/>
<text text-anchor="middle" x="1111.84" y="-518.3" font-family="Times,serif" font-size="14.00">NUMB_TYPE | 0</text>
</g>
<!-- el0x55f3f8dddb70&#45;&gt;el0x55f3f8dddba0 -->
<g id="edge37" class="edge">
<title>el0x55f3f8dddb70&#45;&gt;el0x55f3f8dddba0</title>
<path fill="none" stroke="black" d="M1110.34,-575.7C1110.56,-567.98 1110.82,-558.71 1111.07,-550.11"/>
<polygon fill="black" stroke="black" points="1114.57,-550.2 1111.36,-540.1 1107.57,-550 1114.57,-550.2"/>
</g>
<!-- el0x55f3f8dddc00 -->
<g id="node45" class="node">
<title>el0x55f3f8dddc00</title>
<ellipse fill="#adffbf" stroke="black" cx="1264.84" cy="-522" rx="57.69" ry="18"/>
<text text-anchor="middle" x="1264.84" y="-518.3" font-family="Times,serif" font-size="14.00">STAT_TYPE</text>
</g>
<!-- el0x55f3f8dddbd0&#45;&gt;el0x55f3f8dddc00 -->
<g id="edge51" class="edge">
<title>el0x55f3f8dddbd0&#45;&gt;el0x55f3f8dddc00</title>
<path fill="none" stroke="black" d="M1264.84,-575.7C1264.84,-567.98 1264.84,-558.71 1264.84,-550.11"/>
<polygon fill="black" stroke="black" points="1268.34,-550.1 1264.84,-540.1 1261.34,-550.1 1268.34,-550.1"/>
</g>
<!-- el0x55f3f8dddd30 -->
<g id="node46" class="node">
<title>el0x55f3f8dddd30</title>
<ellipse fill="#adffbf" stroke="black" cx="1255.84" cy="-450" rx="59.59" ry="18"/>
<text text-anchor="middle" x="1255.84" y="-446.3" font-family="Times,serif" font-size="14.00">DECL_TYPE</text>
</g>
<!-- el0x55f3f8dddc00&#45;&gt;el0x55f3f8dddd30 -->
<g id="edge44" class="edge">
<title>el0x55f3f8dddc00&#45;&gt;el0x55f3f8dddd30</title>
<path fill="none" stroke="black" d="M1262.62,-503.7C1261.63,-495.98 1260.44,-486.71 1259.33,-478.11"/>
<polygon fill="black" stroke="black" points="1262.79,-477.58 1258.04,-468.1 1255.85,-478.47 1262.79,-477.58"/>
</g>
<!-- el0x55f3f8dddd90 -->
<g id="node52" class="node">
<title>el0x55f3f8dddd90</title>
<ellipse fill="#adffbf" stroke="black" cx="1392.84" cy="-450" rx="57.69" ry="18"/>
<text text-anchor="middle" x="1392.84" y="-446.3" font-family="Times,serif" font-size="14.00">STAT_TYPE</text>
</g>
<!-- el0x55f3f8dddc00&#45;&gt;el0x55f3f8dddd90 -->
<g id="edge50" class="edge">
<title>el0x55f3f8dddc00&#45;&gt;el0x55f3f8dddd90</title>
<path fill="none" stroke="black" d="M1292.3,-505.98C1311.03,-495.74 1336.04,-482.07 1356.43,-470.92"/>
<polygon fill="black" stroke="black" points="1358.34,-473.86 1365.43,-465.99 1354.98,-467.72 1358.34,-473.86"/>
</g>
<!-- el0x55f3f8dddd60 -->
<g id="node47" class="node">
<title>el0x55f3f8dddd60</title>
<ellipse fill="#adffbf" stroke="black" cx="1120.84" cy="-378" rx="57.39" ry="18"/>
<text text-anchor="middle" x="1120.84" y="-374.3" font-family="Times,serif" font-size="14.00">ID_TYPE | a</text>
</g>
<!-- el0x55f3f8dddd30&#45;&gt;el0x55f3f8dddd60 -->
<g id="edge39" class="edge">
<title>el0x55f3f8dddd30&#45;&gt;el0x55f3f8dddd60</title>
<path fill="none" stroke="black" d="M1227.21,-434.15C1207.17,-423.76 1180.18,-409.77 1158.41,-398.48"/>
<polygon fill="black" stroke="black" points="1159.92,-395.32 1149.43,-393.82 1156.7,-401.53 1159.92,-395.32"/>
</g>
<!-- el0x55f3f8dddc70 -->
<g id="node48" class="node">
<title>el0x55f3f8dddc70</title>
<ellipse fill="#adffbf" stroke="black" cx="1255.84" cy="-378" rx="59.59" ry="18"/>
<text text-anchor="middle" x="1255.84" y="-374.3" font-family="Times,serif" font-size="14.00">CALL_TYPE</text>
</g>
<!-- el0x55f3f8dddd30&#45;&gt;el0x55f3f8dddc70 -->
<g id="edge43" class="edge">
<title>el0x55f3f8dddd30&#45;&gt;el0x55f3f8dddc70</title>
<path fill="none" stroke="black" d="M1255.84,-431.7C1255.84,-423.98 1255.84,-414.71 1255.84,-406.11"/>
<polygon fill="black" stroke="black" points="1259.34,-406.1 1255.84,-396.1 1252.34,-406.1 1259.34,-406.1"/>
</g>
<!-- el0x55f3f8dddca0 -->
<g id="node49" class="node">
<title>el0x55f3f8dddca0</title>
<ellipse fill="#adffbf" stroke="black" cx="1100.84" cy="-306" rx="82.59" ry="18"/>
<text text-anchor="middle" x="1100.84" y="-302.3" font-family="Times,serif" font-size="14.00">ID_TYPE | factorial</text>
</g>
<!-- el0x55f3f8dddc70&#45;&gt;el0x55f3f8dddca0 -->
<g id="edge40" class="edge">
<title>el0x55f3f8dddc70&#45;&gt;el0x55f3f8dddca0</title>
<path fill="none" stroke="black" d="M1224.1,-362.67C1201.09,-352.27 1169.7,-338.09 1144.35,-326.65"/>
<polygon fill="black" stroke="black" points="1145.52,-323.33 1134.96,-322.41 1142.64,-329.71 1145.52,-323.33"/>
</g>
<!-- el0x55f3f8dddd00 -->
<g id="node50" class="node">
<title>el0x55f3f8dddd00</title>
<ellipse fill="#adffbf" stroke="black" cx="1256.84" cy="-306" rx="55.79" ry="18"/>
<text text-anchor="middle" x="1256.84" y="-302.3" font-family="Times,serif" font-size="14.00">ARG_TYPE</text>
</g>
<!-- el0x55f3f8dddc70&#45;&gt;el0x55f3f8dddd00 -->
<g id="edge42" class="edge">
<title>el0x55f3f8dddc70&#45;&gt;el0x55f3f8dddd00</title>
<path fill="none" stroke="black" d="M1256.09,-359.7C1256.2,-351.98 1256.33,-342.71 1256.46,-334.11"/>
<polygon fill="black" stroke="black" points="1259.96,-334.15 1256.6,-324.1 1252.96,-334.05 1259.96,-334.15"/>
</g>
<!-- el0x55f3f8dddcd0 -->
<g id="node51" class="node">
<title>el0x55f3f8dddcd0</title>
<ellipse fill="#adffbf" stroke="black" cx="1256.84" cy="-234" rx="79.09" ry="18"/>
<text text-anchor="middle" x="1256.84" y="-230.3" font-family="Times,serif" font-size="14.00">NUMB_TYPE | 20</text>
</g>
<!-- el0x55f3f8dddd00&#45;&gt;el0x55f3f8dddcd0 -->
<g id="edge41" class="edge">
<title>el0x55f3f8dddd00&#45;&gt;el0x55f3f8dddcd0</title>
<path fill="none" stroke="black" d="M1256.84,-287.7C1256.84,-279.98 1256.84,-270.71 1256.84,-262.11"/>
<polygon fill="black" stroke="black" points="1260.34,-262.1 1256.84,-252.1 1253.34,-262.1 1260.34,-262.1"/>
</g>
<!-- el0x55f3f8dddf10 -->
<g id="node53" class="node">
<title>el0x55f3f8dddf10</title>
<ellipse fill="#adffbf" stroke="black" cx="1393.84" cy="-378" rx="59.59" ry="18"/>
<text text-anchor="middle" x="1393.84" y="-374.3" font-family="Times,serif" font-size="14.00">ASSG_TYPE</text>
</g>
<!-- el0x55f3f8dddd90&#45;&gt;el0x55f3f8dddf10 -->
<g id="edge49" class="edge">
<title>el0x55f3f8dddd90&#45;&gt;el0x55f3f8dddf10</title>
<path fill="none" stroke="black" d="M1393.09,-431.7C1393.2,-423.98 1393.33,-414.71 1393.46,-406.11"/>
<polygon fill="black" stroke="black" points="1396.96,-406.15 1393.6,-396.1 1389.96,-406.05 1396.96,-406.15"/>
</g>
<!-- el0x55f3f8dddf40 -->
<g id="node54" class="node">
<title>el0x55f3f8dddf40</title>
<ellipse fill="#adffbf" stroke="black" cx="1390.84" cy="-306" rx="57.69" ry="18"/>
<text text-anchor="middle" x="1390.84" y="-302.3" font-family="Times,serif" font-size="14.00">ID_TYPE | k</text>
</g>
<!-- el0x55f3f8dddf10&#45;&gt;el0x55f3f8dddf40 -->
<g id="edge45" class="edge">
<title>el0x55f3f8dddf10&#45;&gt;el0x55f3f8dddf40</title>
<path fill="none" stroke="black" d="M1393.1,-359.7C1392.77,-351.98 1392.38,-342.71 1392.01,-334.11"/>
<polygon fill="black" stroke="black" points="1395.5,-333.95 1391.58,-324.1 1388.51,-334.25 1395.5,-333.95"/>
</g>
<!-- el0x55f3f8dddeb0 -->
<g id="node55" class="node">
<title>el0x55f3f8dddeb0</title>
<ellipse fill="#adffbf" stroke="black" cx="1538.84" cy="-306" rx="72.29" ry="18"/>
<text text-anchor="middle" x="1538.84" y="-302.3" font-family="Times,serif" font-size="14.00">MATH_TYPE | &#45;</text>
</g>
<!-- el0x55f3f8dddf10&#45;&gt;el0x55f3f8dddeb0 -->
<g id="edge48" class="edge">
<title>el0x55f3f8dddf10&#45;&gt;el0x55f3f8dddeb0</title>
<path fill="none" stroke="black" d="M1424.24,-362.33C1445.72,-351.96 1474.75,-337.94 1498.21,-326.61"/>
<polygon fill="black" stroke="black" points="1499.75,-329.76 1507.23,-322.26 1496.71,-323.46 1499.75,-329.76"/>
</g>
<!-- el0x55f3f8ddde80 -->
<g id="node56" class="node">
<title>el0x55f3f8ddde80</title>
<ellipse fill="#adffbf" stroke="black" cx="1475.84" cy="-234" rx="57.69" ry="18"/>
<text text-anchor="middle" x="1475.84" y="-230.3" font-family="Times,serif" font-size="14.00">ID_TYPE | k</text>
</g>
<!-- el0x55f3f8dddeb0&#45;&gt;el0x55f3f8ddde80 -->
<g id="edge46" class="edge">
<title>el0x55f3f8dddeb0&#45;&gt;el0x55f3f8ddde80</title>
<path fill="none" stroke="black" d="M1523.59,-288.05C1515.86,-279.46 1506.32,-268.86 1497.8,-259.4"/>
<polygon fill="black" stroke="black" points="1500.25,-256.88 1490.95,-251.79 1495.04,-261.56 1500.25,-256.88"/>
</g>
<!-- el0x55f3f8dddee0 -->
<g id="node57" class="node">
<title>el0x55f3f8dddee0</title>
<ellipse fill="#adffbf" stroke="black" cx="1626.84" cy="-234" rx="75.29" ry="18"/>
<text text-anchor="middle" x="1626.84" y="-230.3" font-family="Times,serif" font-size="14.00">NUMB_TYPE | 1</text>
</g>
<!-- el0x55f3f8dddeb0&#45;&gt;el0x55f3f8dddee0 -->
<g id="edge47" class="edge">
<title>el0x55f3f8dddeb0&#45;&gt;el0x55f3f8dddee0</title>
<path fill="none" stroke="black" d="M1559.7,-288.41C1571.21,-279.26 1585.67,-267.76 1598.22,-257.77"/>
<polygon fill="black" stroke="black" points="1600.49,-260.43 1606.14,-251.47 1596.13,-254.96 1600.49,-260.43"/>
</g>
</g>
</svg>
